<?xml version="1.0" encoding="UTF-8" standalone="no"?>
<svg
   xmlns:dc="http://purl.org/dc/elements/1.1/"
   xmlns:cc="http://creativecommons.org/ns#"
   xmlns:rdf="http://www.w3.org/1999/02/22-rdf-syntax-ns#"
   xmlns:svg="http://www.w3.org/2000/svg"
   xmlns="http://www.w3.org/2000/svg"
   xmlns:sodipodi="http://sodipodi.sourceforge.net/DTD/sodipodi-0.dtd"
   xmlns:inkscape="http://www.inkscape.org/namespaces/inkscape"
   viewBox="0 0 16 16"
   width="16"
   height="16"
   version="1.1"
   id="svg4"
   sodipodi:docname="aeration.icon.svg"
   inkscape:version="1.0.1 (3bc2e813f5, 2020-09-07)">
  <metadata
     id="metadata10">
    <rdf:RDF>
      <cc:Work
         rdf:about="">
        <dc:format>image/svg+xml</dc:format>
        <dc:type
           rdf:resource="http://purl.org/dc/dcmitype/StillImage" />
      </cc:Work>
    </rdf:RDF>
  </metadata>
  <defs
     id="defs8" />
  <sodipodi:namedview
     pagecolor="#ffffff"
     bordercolor="#666666"
     borderopacity="1"
     objecttolerance="10"
     gridtolerance="10"
     guidetolerance="10"
     inkscape:pageopacity="0"
     inkscape:pageshadow="2"
     inkscape:window-width="3200"
     inkscape:window-height="1711"
     id="namedview6"
     showgrid="false"
     inkscape:zoom="45.9375"
     inkscape:cx="8"
     inkscape:cy="8"
     inkscape:window-x="3191"
     inkscape:window-y="6"
     inkscape:window-maximized="1"
     inkscape:current-layer="svg4" />
  <path
     class="iconStroke"
     fill-rule="evenodd"
     d="M11 11.542c.391.256.814.458 1.176.458C13.736 12 15 10.657 15 9c0-.713-.12-1.378-.745-2.042l.02-.01c.6-.81.725-1.585.725-2.448C15 2.567 13.657 1 12 1c-.7 0-1.345.28-1.855.75l-.013-.015-.046.067A4.487 4.487 0 0 0 7.53 1a4.78 4.78 0 0 0-2.832.951l-.118-.184-.003.002A2 2 0 1 0 2.54 4.947l.364.044A6.01 6.01 0 0 0 2.823 6c0 1.268.445 2.426 1.177 3.307v1.409C2.672 9.615 1.824 7.908 1.824 6c0-.08.001-.159.004-.238A3.002 3.002 0 0 1 3 0c.705 0 1.37.245 1.897.675a5.465 5.465 0 0 1 5.112-.08A3.658 3.658 0 0 1 12 0c2.246 0 4 2.046 4 4.5a4.92 4.92 0 0 1-.592 2.36C15.792 7.495 16 8.233 16 9c0 2.196-1.698 4-3.824 4-.407 0-.803-.067-1.176-.193v-1.265zM6 16H5V4h1v12zm4 0H9V4h1v12z"
     id="path2"
     style="fill:#000000;fill-opacity:1" />
</svg>
