<!-- BackspaceIcon.svg -->
<svg width="30" height="19" xmlns="http://www.w3.org/2000/svg" fill="none" fill-rule="evenodd">
  <g>
    <path
      d="M9.884.5a1.5 1.5 0 00-1.033.413l-7.895 7.5-.054.054a1.5 1.5 0 00.054 2.12l7.895 7.5a1.5 1.5 0 001.033.413h17.202a1.5 1.5 0 001.5-1.5V2a1.5 1.5 0 00-1.5-1.5H9.884z"
      stroke="currentColor"
    />
    <path
      d="M18.692 8.793l3.89-3.89.707.708-3.89 3.889 3.89 3.89-.708.706-3.889-3.889-3.889 3.89-.707-.708 3.89-3.889-3.89-3.89.707-.706 3.89 3.889z"
      fill="currentColor"
    />
  </g>
</svg>