<?xml version="1.0" encoding="UTF-8" standalone="no"?>
<svg
   xmlns:dc="http://purl.org/dc/elements/1.1/"
   xmlns:cc="http://creativecommons.org/ns#"
   xmlns:rdf="http://www.w3.org/1999/02/22-rdf-syntax-ns#"
   xmlns:svg="http://www.w3.org/2000/svg"
   xmlns="http://www.w3.org/2000/svg"
   xmlns:sodipodi="http://sodipodi.sourceforge.net/DTD/sodipodi-0.dtd"
   xmlns:inkscape="http://www.inkscape.org/namespaces/inkscape"
   viewBox="0 0 16 16"
   width="16"
   height="16"
   version="1.1"
   id="svg4"
   sodipodi:docname="bagejection.icon.svg"
   inkscape:version="1.0.1 (3bc2e813f5, 2020-09-07)">
  <metadata
     id="metadata10">
    <rdf:RDF>
      <cc:Work
         rdf:about="">
        <dc:format>image/svg+xml</dc:format>
        <dc:type
           rdf:resource="http://purl.org/dc/dcmitype/StillImage" />
      </cc:Work>
    </rdf:RDF>
  </metadata>
  <defs
     id="defs8" />
  <sodipodi:namedview
     pagecolor="#ffffff"
     bordercolor="#666666"
     borderopacity="1"
     objecttolerance="10"
     gridtolerance="10"
     guidetolerance="10"
     inkscape:pageopacity="0"
     inkscape:pageshadow="2"
     inkscape:window-width="840"
     inkscape:window-height="480"
     id="namedview6"
     showgrid="false"
     inkscape:zoom="5.7421875"
     inkscape:cx="13.961883"
     inkscape:cy="15.645123"
     inkscape:window-x="0"
     inkscape:window-y="0"
     inkscape:window-maximized="0"
     inkscape:current-layer="svg4" />
  <path
     class="iconStroke"
     d="M5.547 5h-1.04a13.71 13.71 0 0 0-.464-1.297L4 3h8l-.043.703a13.746 13.746 0 0 0-.478 1.345C11.18 6.061 11 7.07 11 8c0 .93.18 1.94.48 2.952a13.746 13.746 0 0 0 .477 1.345L12 13H8.5v-1h2.27c-.086-.24-.17-.495-.25-.764C10.197 10.139 10 9.039 10 8c0-1.039.196-2.139.52-3.236.08-.269.164-.525.25-.764H5.23a15.006 15.006 0 0 1 .317 1zm4-3h-1.04A13.71 13.71 0 0 0 8.042.703L8 0h8l-.043.703a13.746 13.746 0 0 0-.478 1.345C15.18 3.061 15 4.07 15 5c0 .93.18 1.94.48 2.952a13.746 13.746 0 0 0 .477 1.345L16 10h-3.5V9h2.27c-.086-.24-.17-.495-.25-.764C14.197 7.139 14 6.039 14 5c0-1.039.196-2.139.52-3.236.08-.269.164-.525.25-.764H9.23a15.006 15.006 0 0 1 .317 1zM1.83 9.222l-.99.142c-.04-.22-.177-.83-.248-1.08l.95-.316c.1.357.222.902.288 1.254zM0 6h2v1h-.757l-.959.327a39.614 39.614 0 0 0-.24-.624L0 6zm3 0h2v1H3V6zm-1.034 4.213c.038.306.058 1.314 0 1.574l-.99-.141c.038-.235.033-1.102 0-1.292l.99-.141zm-.137 2.565a17.53 17.53 0 0 1-.288 1.254l-.95-.317c.07-.249.209-.86.248-1.079l.99.142zM0 16l.043-.703c.028-.062.238-.615.241-.624l.96.327H2v1H0zm3 0v-1h2v1H3zm3.17-6.778c.067-.352.19-.897.29-1.254l.95.317c-.072.249-.21.86-.25 1.079l-.99-.142zM8 6l-.043.703c-.028.062-.238.615-.241.624L6.756 7H6V6h2zm-1.966 4.213l.99.141c-.033.19-.038 1.057 0 1.292l-.99.141c-.058-.26-.038-1.268 0-1.574zm.137 2.565l.99-.142c.04.22.177.83.248 1.08l-.95.316a17.53 17.53 0 0 1-.288-1.254zM8 16H6v-1h.757l.959-.327c.003.009.213.562.24.624L8 16z"
     id="path2"
     style="fill:#000000;fill-opacity:1" />
</svg>
