<?xml version="1.0" encoding="UTF-8" standalone="no"?>
<svg
   xmlns:dc="http://purl.org/dc/elements/1.1/"
   xmlns:cc="http://creativecommons.org/ns#"
   xmlns:rdf="http://www.w3.org/1999/02/22-rdf-syntax-ns#"
   xmlns:svg="http://www.w3.org/2000/svg"
   xmlns="http://www.w3.org/2000/svg"
   xmlns:sodipodi="http://sodipodi.sourceforge.net/DTD/sodipodi-0.dtd"
   xmlns:inkscape="http://www.inkscape.org/namespaces/inkscape"
   viewBox="0 0 16 16"
   width="16"
   height="16"
   version="1.1"
   id="svg4"
   sodipodi:docname="basicsetting.icon.svg"
   inkscape:version="1.0.1 (3bc2e813f5, 2020-09-07)">
  <metadata
     id="metadata10">
    <rdf:RDF>
      <cc:Work
         rdf:about="">
        <dc:format>image/svg+xml</dc:format>
        <dc:type
           rdf:resource="http://purl.org/dc/dcmitype/StillImage" />
      </cc:Work>
    </rdf:RDF>
  </metadata>
  <defs
     id="defs8" />
  <sodipodi:namedview
     pagecolor="#ffffff"
     bordercolor="#666666"
     borderopacity="1"
     objecttolerance="10"
     gridtolerance="10"
     guidetolerance="10"
     inkscape:pageopacity="0"
     inkscape:pageshadow="2"
     inkscape:window-width="840"
     inkscape:window-height="480"
     id="namedview6"
     showgrid="false"
     inkscape:zoom="11.484375"
     inkscape:cx="5.1764258"
     inkscape:cy="2.9564951"
     inkscape:window-x="740"
     inkscape:window-y="200"
     inkscape:window-maximized="0"
     inkscape:current-layer="svg4" />
  <path
     class="iconStroke"
     fill-rule="evenodd"
     d="M7 3.027a4.479 4.479 0 0 0-2.309.957L3.257 2.55l-.707.707 1.434 1.434A4.479 4.479 0 0 0 3.027 7H1v1h2.027c.096.868.44 1.661.957 2.309L2.55 11.743l.707.707 1.434-1.434c.648.518 1.441.86 2.309.957V14h1v-2.027a4.479 4.479 0 0 0 2.309-.957l1.434 1.434.707-.707-1.434-1.434c.518-.648.86-1.441.957-2.309H14V7h-2.027a4.479 4.479 0 0 0-.957-2.309l1.434-1.434-.707-.707-1.434 1.434A4.479 4.479 0 0 0 8 3.027V1H7v2.027zM2.697 4.818l-1.561-1.56 2.121-2.122 1.561 1.561c.37-.207.766-.372 1.182-.49V0h3v2.207c.416.118.812.283 1.182.49l1.56-1.561 2.122 2.121-1.561 1.561c.207.37.372.766.49 1.182H15v3h-2.207a5.466 5.466 0 0 1-.49 1.182l1.561 1.56-2.121 2.122-1.561-1.561c-.37.207-.766.372-1.182.49V15H6v-2.207a5.466 5.466 0 0 1-1.182-.49l-1.56 1.561-2.122-2.121 1.561-1.561A5.466 5.466 0 0 1 2.207 9H0V6h2.207c.118-.416.283-.812.49-1.182zM7.5 10a2.5 2.5 0 1 1 0-5 2.5 2.5 0 0 1 0 5zm0-1a1.5 1.5 0 1 0 0-3 1.5 1.5 0 0 0 0 3z"
     id="path2"
     style="fill:#000000;fill-opacity:1" />
</svg>
