<?xml version="1.0" encoding="UTF-8" standalone="no"?>
<svg
   xmlns:dc="http://purl.org/dc/elements/1.1/"
   xmlns:cc="http://creativecommons.org/ns#"
   xmlns:rdf="http://www.w3.org/1999/02/22-rdf-syntax-ns#"
   xmlns:svg="http://www.w3.org/2000/svg"
   xmlns="http://www.w3.org/2000/svg"
   xmlns:sodipodi="http://sodipodi.sourceforge.net/DTD/sodipodi-0.dtd"
   xmlns:inkscape="http://www.inkscape.org/namespaces/inkscape"
   viewBox="0 0 16 16"
   width="16"
   height="16"
   version="1.1"
   id="svg4"
   sodipodi:docname="bucketconveyor.icon.svg"
   inkscape:version="1.0.1 (3bc2e813f5, 2020-09-07)">
  <metadata
     id="metadata10">
    <rdf:RDF>
      <cc:Work
         rdf:about="">
        <dc:format>image/svg+xml</dc:format>
        <dc:type
           rdf:resource="http://purl.org/dc/dcmitype/StillImage" />
      </cc:Work>
    </rdf:RDF>
  </metadata>
  <defs
     id="defs8" />
  <sodipodi:namedview
     pagecolor="#ffffff"
     bordercolor="#666666"
     borderopacity="1"
     objecttolerance="10"
     gridtolerance="10"
     guidetolerance="10"
     inkscape:pageopacity="0"
     inkscape:pageshadow="2"
     inkscape:window-width="840"
     inkscape:window-height="480"
     id="namedview6"
     showgrid="false"
     inkscape:zoom="5.7421875"
     inkscape:cx="-4.0436774"
     inkscape:cy="-1.4933146"
     inkscape:window-x="0"
     inkscape:window-y="0"
     inkscape:window-maximized="0"
     inkscape:current-layer="svg4" />
  <path
     class="iconStroke"
     d="M13 10H3a2 2 0 1 0 0 4h10a2 2 0 1 0 0-4zm0-1a3 3 0 0 1 0 6H3a3 3 0 0 1 0-6h10zM2 7V6h4v1H2zm7 0V6h5v1H9zm7 0h-1V2h1v5zM8 7H7V2h1v5zM1 7H0V2h1v5zm2 6a1 1 0 1 1 0-2 1 1 0 0 1 0 2zm10 0a1 1 0 1 1 0-2 1 1 0 0 1 0 2z"
     id="path2"
     style="fill:#000000;fill-opacity:1" />
</svg>
