<?xml version="1.0" encoding="UTF-8" standalone="no"?>
<svg
   xmlns:dc="http://purl.org/dc/elements/1.1/"
   xmlns:cc="http://creativecommons.org/ns#"
   xmlns:rdf="http://www.w3.org/1999/02/22-rdf-syntax-ns#"
   xmlns:svg="http://www.w3.org/2000/svg"
   xmlns="http://www.w3.org/2000/svg"
   xmlns:sodipodi="http://sodipodi.sourceforge.net/DTD/sodipodi-0.dtd"
   xmlns:inkscape="http://www.inkscape.org/namespaces/inkscape"
   viewBox="0 0 16 16"
   width="16"
   height="16"
   version="1.1"
   id="svg4"
   sodipodi:docname="buffercyclechain.icon.svg"
   inkscape:version="1.0.1 (3bc2e813f5, 2020-09-07)">
  <metadata
     id="metadata10">
    <rdf:RDF>
      <cc:Work
         rdf:about="">
        <dc:format>image/svg+xml</dc:format>
        <dc:type
           rdf:resource="http://purl.org/dc/dcmitype/StillImage" />
      </cc:Work>
    </rdf:RDF>
  </metadata>
  <defs
     id="defs8" />
  <sodipodi:namedview
     pagecolor="#ffffff"
     bordercolor="#666666"
     borderopacity="1"
     objecttolerance="10"
     gridtolerance="10"
     guidetolerance="10"
     inkscape:pageopacity="0"
     inkscape:pageshadow="2"
     inkscape:window-width="840"
     inkscape:window-height="480"
     id="namedview6"
     showgrid="false"
     inkscape:zoom="8.1206795"
     inkscape:cx="1.8294731"
     inkscape:cy="8.5019746"
     inkscape:window-x="0"
     inkscape:window-y="0"
     inkscape:window-maximized="0"
     inkscape:current-layer="svg4" />
  <path
     class="iconStroke"
     fill-rule="evenodd"
     d="M5 14v-1l-4 1.5L5 16v-1h3v-1H5zm7 1v1l4-1.5-4-1.5v1H9v1h3zM4 6c0-.648.205-1.248.555-1.738L2.5 2.207l.707-.707 2.055 2.055C5.752 3.205 6.352 3 7 3h3V0h1v3h1V0h1v3h1V0h1v3h1v1H7a2 2 0 1 0 0 4h9v4h-1V9h-3v3h-1V9H8v3H7V9c-.692 0-1.33-.234-1.837-.628l-1.956 1.956-.707-.707 1.985-1.985a2.988 2.988 0 0 1-.32-.654H1V6h3zm3 1a1 1 0 1 1 0-2 1 1 0 0 1 0 2z"
     id="path2"
     style="fill:#000000;fill-opacity:1" />
</svg>
