<?xml version="1.0" encoding="UTF-8" standalone="no"?>
<svg
   xmlns:dc="http://purl.org/dc/elements/1.1/"
   xmlns:cc="http://creativecommons.org/ns#"
   xmlns:rdf="http://www.w3.org/1999/02/22-rdf-syntax-ns#"
   xmlns:svg="http://www.w3.org/2000/svg"
   xmlns="http://www.w3.org/2000/svg"
   xmlns:sodipodi="http://sodipodi.sourceforge.net/DTD/sodipodi-0.dtd"
   xmlns:inkscape="http://www.inkscape.org/namespaces/inkscape"
   viewBox="0 0 16 16"
   width="16"
   height="16"
   version="1.1"
   id="svg4"
   sodipodi:docname="chainbag_perforated.icon.svg"
   inkscape:version="1.0.1 (3bc2e813f5, 2020-09-07)">
  <metadata
     id="metadata10">
    <rdf:RDF>
      <cc:Work
         rdf:about="">
        <dc:format>image/svg+xml</dc:format>
        <dc:type
           rdf:resource="http://purl.org/dc/dcmitype/StillImage" />
      </cc:Work>
    </rdf:RDF>
  </metadata>
  <defs
     id="defs8" />
  <sodipodi:namedview
     pagecolor="#ffffff"
     bordercolor="#666666"
     borderopacity="1"
     objecttolerance="10"
     gridtolerance="10"
     guidetolerance="10"
     inkscape:pageopacity="0"
     inkscape:pageshadow="2"
     inkscape:window-width="840"
     inkscape:window-height="480"
     id="namedview6"
     showgrid="false"
     inkscape:zoom="5.7421875"
     inkscape:cx="0.85301905"
     inkscape:cy="-1.4933146"
     inkscape:window-x="0"
     inkscape:window-y="0"
     inkscape:window-maximized="0"
     inkscape:current-layer="svg4" />
  <path
     class="iconStroke"
     fill-rule="evenodd"
     d="M6.018 16h-1c0-1.496-.82-4.333-.988-4.9H4V9.9h.03c.168-.567.988-3.404.988-4.9C5.018 3.333 4 0 4 0h9s-1.031 3.333-1.031 5c0 1.496.83 4.333 1 4.9H13v1.2h-.03c-.17.567-1.001 3.404-1.001 4.9h-1c0-.592.103-1.345.288-2.239a29.587 29.587 0 0 1 .42-1.761H5.319c.055.21.109.423.161.638.095.388.18.765.254 1.125.182.894.284 1.646.284 2.237zM5 11h1v-1H5v1zm7 0v-1h-1v1h1zm-2 0v-1H9v1h1zm-2 0v-1H7v1h1zM5.48 1.638c.095.388.18.765.254 1.125.182.894.284 1.646.284 2.237 0 .59-.102 1.343-.284 2.237A29.91 29.91 0 0 1 5.319 9h6.358a29.587 29.587 0 0 1-.42-1.761c-.185-.894-.288-1.647-.288-2.239 0-.592.103-1.345.288-2.239A29.587 29.587 0 0 1 11.677 1H5.319c.055.21.109.423.161.638z"
     id="path2"
     style="fill:#000000;fill-opacity:1" />
</svg>
