<?xml version="1.0" encoding="UTF-8" standalone="no"?>
<svg
   xmlns:dc="http://purl.org/dc/elements/1.1/"
   xmlns:cc="http://creativecommons.org/ns#"
   xmlns:rdf="http://www.w3.org/1999/02/22-rdf-syntax-ns#"
   xmlns:svg="http://www.w3.org/2000/svg"
   xmlns="http://www.w3.org/2000/svg"
   xmlns:sodipodi="http://sodipodi.sourceforge.net/DTD/sodipodi-0.dtd"
   xmlns:inkscape="http://www.inkscape.org/namespaces/inkscape"
   width="10"
   height="13"
   viewBox="0 0 10 13"
   version="1.1"
   id="svg4"
   sodipodi:docname="circle-help.icon.svg"
   inkscape:version="1.0.1 (3bc2e813f5, 2020-09-07)">
  <metadata
     id="metadata10">
    <rdf:RDF>
      <cc:Work
         rdf:about="">
        <dc:format>image/svg+xml</dc:format>
        <dc:type
           rdf:resource="http://purl.org/dc/dcmitype/StillImage" />
      </cc:Work>
    </rdf:RDF>
  </metadata>
  <defs
     id="defs8" />
  <sodipodi:namedview
     pagecolor="#ffffff"
     bordercolor="#666666"
     borderopacity="1"
     objecttolerance="10"
     gridtolerance="10"
     guidetolerance="10"
     inkscape:pageopacity="0"
     inkscape:pageshadow="2"
     inkscape:window-width="840"
     inkscape:window-height="480"
     id="namedview6"
     showgrid="false"
     inkscape:zoom="56.538462"
     inkscape:cx="5"
     inkscape:cy="6.5"
     inkscape:window-x="0"
     inkscape:window-y="0"
     inkscape:window-maximized="0"
     inkscape:current-layer="svg4" />
  <path
     class="iconStroke"
     d="M3.823 10.688h2.4V13h-2.4v-2.312zm-1.3-5.967H.482c.023-.503.085-.913.185-1.23.28-.873.832-1.564 1.652-2.074.697-.434 1.532-.65 2.505-.65 1.254 0 2.276.343 3.067 1.028.81.703 1.213 1.58 1.213 2.628 0 .697-.208 1.318-.624 1.863-.25.322-.634.674-1.15 1.055-.51.37-.817.618-.923.747-.21.246-.337.536-.378.87-.012.088-.018.255-.018.5H4.017c0-.825.062-1.39.185-1.695s.316-.583.58-.835c.105-.106.368-.314.79-.624.47-.34.794-.633.976-.88.223-.298.334-.644.334-1.036 0-.48-.158-.882-.475-1.204-.392-.393-.928-.59-1.608-.59-.856 0-1.48.303-1.873.906-.223.34-.358.746-.405 1.22z"
     id="path2"
     style="fill:#000000;fill-opacity:1" />
</svg>
