<?xml version="1.0" encoding="UTF-8" standalone="no"?>
<svg
   xmlns:dc="http://purl.org/dc/elements/1.1/"
   xmlns:cc="http://creativecommons.org/ns#"
   xmlns:rdf="http://www.w3.org/1999/02/22-rdf-syntax-ns#"
   xmlns:svg="http://www.w3.org/2000/svg"
   xmlns="http://www.w3.org/2000/svg"
   xmlns:sodipodi="http://sodipodi.sourceforge.net/DTD/sodipodi-0.dtd"
   xmlns:inkscape="http://www.inkscape.org/namespaces/inkscape"
   viewBox="0 0 16 16"
   width="16"
   height="16"
   version="1.1"
   id="svg4"
   sodipodi:docname="clipper.icon.svg"
   inkscape:version="1.0.1 (3bc2e813f5, 2020-09-07)">
  <metadata
     id="metadata10">
    <rdf:RDF>
      <cc:Work
         rdf:about="">
        <dc:format>image/svg+xml</dc:format>
        <dc:type
           rdf:resource="http://purl.org/dc/dcmitype/StillImage" />
      </cc:Work>
    </rdf:RDF>
  </metadata>
  <defs
     id="defs8" />
  <sodipodi:namedview
     pagecolor="#ffffff"
     bordercolor="#666666"
     borderopacity="1"
     objecttolerance="10"
     gridtolerance="10"
     guidetolerance="10"
     inkscape:pageopacity="0"
     inkscape:pageshadow="2"
     inkscape:window-width="840"
     inkscape:window-height="480"
     id="namedview6"
     showgrid="false"
     inkscape:zoom="45.9375"
     inkscape:cx="8"
     inkscape:cy="8"
     inkscape:window-x="0"
     inkscape:window-y="0"
     inkscape:window-maximized="0"
     inkscape:current-layer="svg4" />
  <path
     class="iconStroke"
     d="M2.85 16H1.628c.058-.108.594-1.054.73-1.35.229-.497.457-1.053.671-1.652.356-.996.632-2.01.798-3.01h.987c-.177 1.063-.469 2.297-.843 3.346-.224.628-.464 1.21-.704 1.733-.145.316-.35.808-.417.933zm9.017-15H4.136a34.45 34.45 0 0 1 .356 1.761c.126.709.238 1.518.322 2.243h-.987a34.09 34.09 0 0 0-.32-2.068 35.378 35.378 0 0 0-.338-1.679A19.853 19.853 0 0 0 3.017.63L2.85 0h10.297l-.163.626c-.03.115-.083.334-.152.642a37.368 37.368 0 0 0-.638 3.736H11.18A41.678 41.678 0 0 1 11.867 1zm-.687 8.989l.987-.003c.166 1.002.444 2.02.804 3.022.213.596.442 1.148.67 1.644.137.295.605 1.24.663 1.348h-1.157c-.068-.125-.268-.615-.414-.93-.24-.52-.48-1.1-.704-1.724-.378-1.056-.672-2.291-.849-3.357zM3 6h10v3H3V6zm1 2h8V7H4v1z"
     id="path2"
     style="fill:#000000;fill-opacity:1" />
</svg>
