<?xml version="1.0" encoding="UTF-8" standalone="no"?>
<svg
   xmlns:dc="http://purl.org/dc/elements/1.1/"
   xmlns:cc="http://creativecommons.org/ns#"
   xmlns:rdf="http://www.w3.org/1999/02/22-rdf-syntax-ns#"
   xmlns:svg="http://www.w3.org/2000/svg"
   xmlns="http://www.w3.org/2000/svg"
   xmlns:sodipodi="http://sodipodi.sourceforge.net/DTD/sodipodi-0.dtd"
   xmlns:inkscape="http://www.inkscape.org/namespaces/inkscape"
   width="49"
   height="49"
   viewBox="0 0 49 49"
   version="1.1"
   id="svg4"
   sodipodi:docname="content-help.icon.svg"
   inkscape:version="1.0.1 (3bc2e813f5, 2020-09-07)">
  <metadata
     id="metadata10">
    <rdf:RDF>
      <cc:Work
         rdf:about="">
        <dc:format>image/svg+xml</dc:format>
        <dc:type
           rdf:resource="http://purl.org/dc/dcmitype/StillImage" />
      </cc:Work>
    </rdf:RDF>
  </metadata>
  <defs
     id="defs8" />
  <sodipodi:namedview
     pagecolor="#ffffff"
     bordercolor="#666666"
     borderopacity="1"
     objecttolerance="10"
     gridtolerance="10"
     guidetolerance="10"
     inkscape:pageopacity="0"
     inkscape:pageshadow="2"
     inkscape:window-width="840"
     inkscape:window-height="480"
     id="namedview6"
     showgrid="false"
     inkscape:zoom="15"
     inkscape:cx="24.5"
     inkscape:cy="24.5"
     inkscape:window-x="0"
     inkscape:window-y="0"
     inkscape:window-maximized="0"
     inkscape:current-layer="svg4" />
  <path
     class="iconStroke"
     d="M24.5 0C10.97 0 0 10.97 0 24.5S10.97 49 24.5 49 49 38.03 49 24.5 38.03 0 24.5 0zm0 47.47c-12.686 0-22.97-10.284-22.97-22.97S11.815 1.53 24.5 1.53 47.47 11.815 47.47 24.5 37.185 47.47 24.5 47.47zM23.22 36h2.874v-2.875H23.22V36zm6.39-20.266c-1.167-.99-2.667-1.484-4.5-1.484-2.532 0-4.428.88-5.69 2.64-.843 1.178-1.296 2.673-1.358 4.485h2.47c.082-1.333.364-2.344.843-3.03.77-1.136 1.958-1.704 3.562-1.704 1.156 0 2.088.313 2.797.94.73.645 1.094 1.43 1.094 2.358 0 .646-.21 1.292-.625 1.938-.26.427-.86 1.088-1.797 1.984-1.135 1.083-1.906 2.084-2.312 3-.417.98-.65 2.25-.703 3.812h2.5v-.297c0-1.53.36-2.76 1.08-3.688.27-.344.78-.85 1.53-1.516.938-.832 1.604-1.53 2-2.093.697-1.01 1.047-2.088 1.047-3.234 0-1.655-.647-3.025-1.938-4.11z"
     id="path2"
     style="fill:#000000;fill-opacity:1" />
</svg>
