<?xml version="1.0" encoding="UTF-8" standalone="no"?>
<svg
   xmlns:dc="http://purl.org/dc/elements/1.1/"
   xmlns:cc="http://creativecommons.org/ns#"
   xmlns:rdf="http://www.w3.org/1999/02/22-rdf-syntax-ns#"
   xmlns:svg="http://www.w3.org/2000/svg"
   xmlns="http://www.w3.org/2000/svg"
   xmlns:sodipodi="http://sodipodi.sourceforge.net/DTD/sodipodi-0.dtd"
   xmlns:inkscape="http://www.inkscape.org/namespaces/inkscape"
   width="49"
   height="49"
   viewBox="0 0 49 49"
   version="1.1"
   id="svg4"
   sodipodi:docname="content-user-SELECTED.icon.svg"
   inkscape:version="1.0.1 (3bc2e813f5, 2020-09-07)">
  <metadata
     id="metadata10">
    <rdf:RDF>
      <cc:Work
         rdf:about="">
        <dc:format>image/svg+xml</dc:format>
        <dc:type
           rdf:resource="http://purl.org/dc/dcmitype/StillImage" />
        <dc:title></dc:title>
      </cc:Work>
    </rdf:RDF>
  </metadata>
  <defs
     id="defs8" />
  <sodipodi:namedview
     pagecolor="#ffffff"
     bordercolor="#666666"
     borderopacity="1"
     objecttolerance="10"
     gridtolerance="10"
     guidetolerance="10"
     inkscape:pageopacity="0"
     inkscape:pageshadow="2"
     inkscape:window-width="3200"
     inkscape:window-height="1711"
     id="namedview6"
     showgrid="false"
     inkscape:zoom="21.213203"
     inkscape:cx="26.29181"
     inkscape:cy="33.889185"
     inkscape:window-x="3191"
     inkscape:window-y="6"
     inkscape:window-maximized="1"
     inkscape:current-layer="svg4"
     inkscape:document-rotation="0" />
  <path
     id="path830"
     style="fill:#000000;stroke-width:5.76033"
     d="M 24.308594 0 A 24.5 24.5 0 0 0 0 24.5 A 24.5 24.5 0 0 0 24.5 49 A 24.5 24.5 0 0 0 49 24.5 A 24.5 24.5 0 0 0 24.5 0 A 24.5 24.5 0 0 0 24.308594 0 z M 24.193359 13.78125 C 27.562359 13.78125 30.318359 16.365437 30.318359 19.523438 L 30.318359 20.960938 C 30.318359 24.117937 27.563359 26.699219 24.193359 26.699219 L 24.191406 26.699219 C 20.822406 26.699219 18.068359 24.117938 18.068359 20.960938 L 18.068359 19.523438 C 18.068359 16.365437 20.824359 13.78125 24.193359 13.78125 z M 30.623047 26.699219 L 30.626953 26.699219 C 33.381953 27.561219 35.220703 29.429141 35.220703 31.869141 L 35.220703 36.179688 L 13.78125 36.179688 L 13.78125 31.873047 C 13.78125 29.433047 15.619 27.565125 18.375 26.703125 C 19.906 28.140125 22.05 29 24.5 29 C 26.95 29 29.094047 28.137219 30.623047 26.699219 z " />
</svg>
