<?xml version="1.0" encoding="UTF-8" standalone="no"?>
<svg
   xmlns:dc="http://purl.org/dc/elements/1.1/"
   xmlns:cc="http://creativecommons.org/ns#"
   xmlns:rdf="http://www.w3.org/1999/02/22-rdf-syntax-ns#"
   xmlns:svg="http://www.w3.org/2000/svg"
   xmlns="http://www.w3.org/2000/svg"
   xmlns:sodipodi="http://sodipodi.sourceforge.net/DTD/sodipodi-0.dtd"
   xmlns:inkscape="http://www.inkscape.org/namespaces/inkscape"
   width="49"
   height="49"
   viewBox="0 0 49 49"
   version="1.1"
   id="svg4"
   sodipodi:docname="content-help-selected.icon.svg"
   inkscape:version="1.0.1 (3bc2e813f5, 2020-09-07)">
  <metadata
     id="metadata10">
    <rdf:RDF>
      <cc:Work
         rdf:about="">
        <dc:format>image/svg+xml</dc:format>
        <dc:type
           rdf:resource="http://purl.org/dc/dcmitype/StillImage" />
        <dc:title></dc:title>
      </cc:Work>
    </rdf:RDF>
  </metadata>
  <defs
     id="defs8" />
  <sodipodi:namedview
     pagecolor="#ffffff"
     bordercolor="#666666"
     borderopacity="1"
     objecttolerance="10"
     gridtolerance="10"
     guidetolerance="10"
     inkscape:pageopacity="0"
     inkscape:pageshadow="2"
     inkscape:window-width="3200"
     inkscape:window-height="1711"
     id="namedview6"
     showgrid="false"
     inkscape:zoom="15"
     inkscape:cx="24.5"
     inkscape:cy="24.5"
     inkscape:window-x="3191"
     inkscape:window-y="6"
     inkscape:window-maximized="1"
     inkscape:current-layer="svg4"
     inkscape:document-rotation="0" />
  <path
     id="path830"
     style="fill:#000000;stroke-width:0.935114"
     d="M 24.308594 0 A 24.5 24.5 0 0 0 0 24.5 A 24.5 24.5 0 0 0 24.5 49 A 24.5 24.5 0 0 0 49 24.5 A 24.5 24.5 0 0 0 24.5 0 A 24.5 24.5 0 0 0 24.308594 0 z M 25.109375 14.25 C 26.942375 14.25 28.442375 14.744375 29.609375 15.734375 C 30.900375 16.819375 31.548828 18.190703 31.548828 19.845703 C 31.548828 20.991703 31.198953 22.068125 30.501953 23.078125 C 30.105953 23.641125 29.439953 24.339875 28.501953 25.171875 C 27.751953 25.837875 27.240703 26.3435 26.970703 26.6875 C 26.250703 27.6155 25.890625 28.846953 25.890625 30.376953 L 25.890625 30.673828 L 23.390625 30.673828 C 23.443625 29.111828 23.67675 27.841328 24.09375 26.861328 C 24.49975 25.945328 25.27125 24.944328 26.40625 23.861328 C 27.34325 22.965328 27.943125 22.303953 28.203125 21.876953 C 28.618125 21.230953 28.828125 20.585453 28.828125 19.939453 C 28.828125 19.011453 28.464375 18.225078 27.734375 17.580078 C 27.025375 16.953078 26.0935 16.640625 24.9375 16.640625 C 23.3335 16.640625 22.145 17.209703 21.375 18.345703 C 20.896 19.031703 20.61325 20.042 20.53125 21.375 L 18.0625 21.375 C 18.1245 19.563 18.576922 18.068625 19.419922 16.890625 C 20.681922 15.130625 22.577375 14.25 25.109375 14.25 z M 23.220703 33.125 L 26.09375 33.125 L 26.09375 36 L 23.220703 36 L 23.220703 33.125 z " />
</svg>
