<?xml version="1.0" encoding="UTF-8" standalone="no"?>
<svg
   xmlns:dc="http://purl.org/dc/elements/1.1/"
   xmlns:cc="http://creativecommons.org/ns#"
   xmlns:rdf="http://www.w3.org/1999/02/22-rdf-syntax-ns#"
   xmlns:svg="http://www.w3.org/2000/svg"
   xmlns="http://www.w3.org/2000/svg"
   xmlns:sodipodi="http://sodipodi.sourceforge.net/DTD/sodipodi-0.dtd"
   xmlns:inkscape="http://www.inkscape.org/namespaces/inkscape"
   width="49"
   height="49"
   viewBox="0 0 49 49"
   version="1.1"
   id="svg4"
   sodipodi:docname="content-user.icon.svg"
   inkscape:version="1.0.1 (3bc2e813f5, 2020-09-07)">
  <metadata
     id="metadata10">
    <rdf:RDF>
      <cc:Work
         rdf:about="">
        <dc:format>image/svg+xml</dc:format>
        <dc:type
           rdf:resource="http://purl.org/dc/dcmitype/StillImage" />
      </cc:Work>
    </rdf:RDF>
  </metadata>
  <defs
     id="defs8" />
  <sodipodi:namedview
     pagecolor="#ffffff"
     bordercolor="#666666"
     borderopacity="1"
     objecttolerance="10"
     gridtolerance="10"
     guidetolerance="10"
     inkscape:pageopacity="0"
     inkscape:pageshadow="2"
     inkscape:window-width="840"
     inkscape:window-height="480"
     id="namedview6"
     showgrid="false"
     inkscape:zoom="7.5"
     inkscape:cx="18.031424"
     inkscape:cy="25.099913"
     inkscape:window-x="0"
     inkscape:window-y="0"
     inkscape:window-maximized="0"
     inkscape:current-layer="svg4" />
  <path
     class="iconStroke"
     d="M24.5 0C10.97 0 0 10.97 0 24.5S10.97 49 24.5 49 49 38.03 49 24.5 38.03 0 24.5 0zm0 47.47c-12.686 0-22.97-10.284-22.97-22.97S11.815 1.53 24.5 1.53 47.47 11.815 47.47 24.5 37.185 47.47 24.5 47.47zm-.306-20.77c3.37 0 6.125-2.583 6.125-5.74v-1.437c0-3.158-2.757-5.742-6.126-5.742s-6.125 2.585-6.125 5.743v1.436c0 3.157 2.755 5.74 6.124 5.74zm6.43 0C29.095 28.138 26.95 29 24.5 29s-4.594-.86-6.125-2.297c-2.756.862-4.594 2.73-4.594 5.17v4.306h21.44V31.87c0-2.44-1.84-4.308-4.595-5.17z"
     id="path2"
     style="fill:#000000;fill-opacity:1" />
</svg>
