<?xml version="1.0" encoding="UTF-8" standalone="no"?>
<svg
   xmlns:dc="http://purl.org/dc/elements/1.1/"
   xmlns:cc="http://creativecommons.org/ns#"
   xmlns:rdf="http://www.w3.org/1999/02/22-rdf-syntax-ns#"
   xmlns:svg="http://www.w3.org/2000/svg"
   xmlns="http://www.w3.org/2000/svg"
   xmlns:sodipodi="http://sodipodi.sourceforge.net/DTD/sodipodi-0.dtd"
   xmlns:inkscape="http://www.inkscape.org/namespaces/inkscape"
   viewBox="0 0 16 16"
   width="16"
   height="16"
   version="1.1"
   id="svg4"
   sodipodi:docname="coolingcross.icon.svg"
   inkscape:version="1.0.1 (3bc2e813f5, 2020-09-07)">
  <metadata
     id="metadata10">
    <rdf:RDF>
      <cc:Work
         rdf:about="">
        <dc:format>image/svg+xml</dc:format>
        <dc:type
           rdf:resource="http://purl.org/dc/dcmitype/StillImage" />
      </cc:Work>
    </rdf:RDF>
  </metadata>
  <defs
     id="defs8" />
  <sodipodi:namedview
     pagecolor="#ffffff"
     bordercolor="#666666"
     borderopacity="1"
     objecttolerance="10"
     gridtolerance="10"
     guidetolerance="10"
     inkscape:pageopacity="0"
     inkscape:pageshadow="2"
     inkscape:window-width="840"
     inkscape:window-height="480"
     id="namedview6"
     showgrid="false"
     inkscape:zoom="45.9375"
     inkscape:cx="8"
     inkscape:cy="8"
     inkscape:window-x="0"
     inkscape:window-y="0"
     inkscape:window-maximized="0"
     inkscape:current-layer="svg4" />
  <path
     class="iconStroke"
     d="M8 2.732l1.723-1.148.554.832L8.08 3.882 8 4v3H7V4l-.079-.118-2.198-1.466.554-.832L7 2.732V0h1v2.732zM2.924 5.787l-.56-1.993.963-.27.715 2.544.088.11 2.853.928-.31.95-2.852-.926-.137.038-2.073 1.638-.62-.784 1.625-1.284-2.6-.844.31-.951 2.598.844zm1.337 5.772l-2.069-.084.04-.999 2.642.106.132-.048 1.763-2.428.81.588-1.763 2.426-.006.142.917 2.479-.938.347-.718-1.942-1.607 2.21-.809-.587 1.606-2.21zm5.902.511l-.718 1.942-.938-.348.917-2.476-.006-.144-1.763-2.426.81-.588 1.763 2.427.132.05L13 10.4l.04.999-2.068.083 1.606 2.211-.809.588-1.606-2.21zm2.31-5.454l1.625 1.283-.62.785-2.073-1.639-.136-.038-2.854.927-.309-.95 2.853-.928.088-.111.715-2.544.963.27-.56 1.993 2.598-.844.31.951-2.6.845zM0 15h15v1H0v-1z"
     id="path2"
     style="fill:#000000;fill-opacity:1" />
</svg>
