<?xml version="1.0" encoding="UTF-8" standalone="no"?>
<svg
   xmlns:dc="http://purl.org/dc/elements/1.1/"
   xmlns:cc="http://creativecommons.org/ns#"
   xmlns:rdf="http://www.w3.org/1999/02/22-rdf-syntax-ns#"
   xmlns:svg="http://www.w3.org/2000/svg"
   xmlns="http://www.w3.org/2000/svg"
   xmlns:sodipodi="http://sodipodi.sourceforge.net/DTD/sodipodi-0.dtd"
   xmlns:inkscape="http://www.inkscape.org/namespaces/inkscape"
   width="16"
   height="16"
   viewBox="0 0 16 16"
   id="CutOffEmptyBag"
   version="1.1"
   sodipodi:docname="CutOffEmptyBag.icon.svg"
   inkscape:version="1.0.1 (3bc2e813f5, 2020-09-07)">
  <metadata
     id="metadata9">
    <rdf:RDF>
      <cc:Work
         rdf:about="">
        <dc:format>image/svg+xml</dc:format>
        <dc:type
           rdf:resource="http://purl.org/dc/dcmitype/StillImage" />
      </cc:Work>
    </rdf:RDF>
  </metadata>
  <defs
     id="defs7" />
  <sodipodi:namedview
     pagecolor="#ffffff"
     bordercolor="#666666"
     borderopacity="1"
     objecttolerance="10"
     gridtolerance="10"
     guidetolerance="10"
     inkscape:pageopacity="0"
     inkscape:pageshadow="2"
     inkscape:window-width="840"
     inkscape:window-height="480"
     id="namedview5"
     showgrid="false"
     inkscape:zoom="45.9375"
     inkscape:cx="8"
     inkscape:cy="8"
     inkscape:window-x="0"
     inkscape:window-y="0"
     inkscape:window-maximized="0"
     inkscape:current-layer="CutOffEmptyBag" />
  <path
     class="iconStroke"
     d="M 9.68 0 L 9.53 0.15 L 10.78 1.38 L 9.55 2.62 L 10.26 3.32 L 11.49 2.08 L 12.73 3.31 L 13.44 2.6 L 12.19 1.37 L 13.42 0.12 L 13.29 0 L 12.13 0 L 11.48 0.67 L 10.8 0 L 9.68 0 z M 8 0.03 L 8 4.9 L 14.97 4.9 L 14.97 0.03 L 13.97 0.03 L 13.97 3.9 L 9 3.9 L 9 0.03 L 8 0.03 z M 5.12 2.21 C 4.64 2.21 4.15 2.34 3.71 2.62 C 2.56 3.38 2.3 4.9 2.99 6.08 C 3.21 6.46 3.95 7.7 4.79 9.1 L 1.68 10.38 C 0.4 10.9 -0.21 12.37 0.31 13.64 C 0.84 14.92 2.3 15.53 3.58 15 C 4.86 14.48 5.46 13.02 4.94 11.74 C 4.87 11.59 4.79 11.44 4.7 11.3 L 5.83 10.84 C 7.37 13.42 8.95 16.03 8.95 16.03 L 9.11 16.03 C 9.11 16.03 9.18 15.47 8.9 14.61 C 8.76 14.18 7.81 11.59 7.81 11.59 L 7.27 10.24 L 15.85 6.72 L 15.43 5.71 C 15.18 5.09 14.56 5.09 14.13 5.26 L 6.54 8.38 L 6 7.03 C 6.16 6.97 6.31 6.9 6.45 6.81 C 7.6 6.05 7.93 4.5 7.17 3.35 C 6.7 2.62 5.92 2.23 5.12 2.21 z M 5.05 3.25 C 5.53 3.26 6 3.49 6.29 3.93 C 6.74 4.62 6.54 5.55 5.85 6 C 5.16 6.46 4.23 6.26 3.77 5.57 C 3.32 4.88 3.51 3.95 4.21 3.49 C 4.47 3.32 4.76 3.24 5.05 3.25 z M 14.77 8.93 L 8 10.53 C 8 10.53 9.05 13.45 9.4 14.96 C 9.47 15.26 9.54 15.64 9.6 16.03 L 10.61 16.03 C 10.54 15.54 10.45 15.06 10.36 14.69 C 10.08 13.51 9.2 11.27 9.2 11.27 L 14.03 10.13 C 14.03 10.13 14.24 12.68 14.53 13.93 C 14.67 14.5 14.94 15.31 15.2 16.03 L 16 16.03 L 16 15.61 C 15.77 14.92 15.56 14.24 15.43 13.71 C 15.07 12.14 14.77 8.93 14.77 8.93 z M 2.62 11.13 C 3.2 11.14 3.75 11.49 3.99 12.06 C 4.31 12.83 3.94 13.71 3.17 14.02 C 2.41 14.34 1.53 13.97 1.22 13.2 C 0.9 12.44 1.27 11.56 2.03 11.25 C 2.22 11.17 2.42 11.13 2.62 11.13 z M 13.23 12.04 L 12.31 13.53 L 10.82 12.61 L 10.29 13.46 L 11.78 14.38 L 10.86 15.87 L 11.12 16.03 L 11.94 16.03 L 12.63 14.91 L 14.12 15.83 L 14.65 14.98 L 13.16 14.06 L 14.08 12.57 L 13.23 12.04 z"
     id="path2"
     style="fill-opacity:1;fill:#000000" />
</svg>
