<?xml version="1.0" encoding="UTF-8" standalone="no"?>
<svg
   xmlns:dc="http://purl.org/dc/elements/1.1/"
   xmlns:cc="http://creativecommons.org/ns#"
   xmlns:rdf="http://www.w3.org/1999/02/22-rdf-syntax-ns#"
   xmlns:svg="http://www.w3.org/2000/svg"
   xmlns="http://www.w3.org/2000/svg"
   xmlns:sodipodi="http://sodipodi.sourceforge.net/DTD/sodipodi-0.dtd"
   xmlns:inkscape="http://www.inkscape.org/namespaces/inkscape"
   width="18"
   height="18"
   viewBox="0 0 18 18"
   version="1.1"
   id="svg4"
   sodipodi:docname="default-help.icon.svg"
   inkscape:version="1.0.1 (3bc2e813f5, 2020-09-07)">
  <metadata
     id="metadata10">
    <rdf:RDF>
      <cc:Work
         rdf:about="">
        <dc:format>image/svg+xml</dc:format>
        <dc:type
           rdf:resource="http://purl.org/dc/dcmitype/StillImage" />
      </cc:Work>
    </rdf:RDF>
  </metadata>
  <defs
     id="defs8" />
  <sodipodi:namedview
     pagecolor="#ffffff"
     bordercolor="#666666"
     borderopacity="1"
     objecttolerance="10"
     gridtolerance="10"
     guidetolerance="10"
     inkscape:pageopacity="0"
     inkscape:pageshadow="2"
     inkscape:window-width="840"
     inkscape:window-height="480"
     id="namedview6"
     showgrid="false"
     inkscape:zoom="40.833333"
     inkscape:cx="9"
     inkscape:cy="9"
     inkscape:window-x="0"
     inkscape:window-y="0"
     inkscape:window-maximized="0"
     inkscape:current-layer="svg4" />
  <path
     class="iconStroke"
     d="M8.944 4.967c-.762 0-1.32.322-1.676.967-.17.316-.27.824-.292 1.523h.896c.016-.45.064-.78.146-.996.18-.476.504-.714.973-.714.35 0 .622.137.82.41.19.258.282.564.282.92 0 .227-.05.46-.146.697-.078.196-.263.46-.556.797-.207.242-.364.43-.47.563-.222.28-.36.523-.415.726-.04.136-.062.437-.07.9 0 .048-.004.15-.012.306h.89c-.007-.156-.01-.29-.01-.398 0-.3.056-.572.17-.814.085-.184.276-.434.573-.75.328-.352.56-.646.69-.885.196-.356.294-.735.294-1.138 0-.625-.193-1.133-.58-1.523-.383-.396-.885-.593-1.506-.593zM8.424 13h.948v-1.014h-.95V13zM9 .5C4.313.5.5 4.313.5 9c0 4.687 3.813 8.5 8.5 8.5 4.687 0 8.5-3.813 8.5-8.5C17.5 4.313 13.687.5 9 .5zm0 16c-4.136 0-7.5-3.364-7.5-7.5S4.864 1.5 9 1.5s7.5 3.364 7.5 7.5-3.364 7.5-7.5 7.5z"
     id="path2"
     style="fill:#000000;fill-opacity:1" />
</svg>
