<?xml version="1.0" encoding="UTF-8" standalone="no"?>
<svg
   xmlns:dc="http://purl.org/dc/elements/1.1/"
   xmlns:cc="http://creativecommons.org/ns#"
   xmlns:rdf="http://www.w3.org/1999/02/22-rdf-syntax-ns#"
   xmlns:svg="http://www.w3.org/2000/svg"
   xmlns="http://www.w3.org/2000/svg"
   xmlns:sodipodi="http://sodipodi.sourceforge.net/DTD/sodipodi-0.dtd"
   xmlns:inkscape="http://www.inkscape.org/namespaces/inkscape"
   viewBox="0 0 16 16"
   width="16"
   height="16"
   version="1.1"
   id="svg4"
   sodipodi:docname="dosage_auger.icon.svg"
   inkscape:version="1.0.1 (3bc2e813f5, 2020-09-07)">
  <metadata
     id="metadata10">
    <rdf:RDF>
      <cc:Work
         rdf:about="">
        <dc:format>image/svg+xml</dc:format>
        <dc:type
           rdf:resource="http://purl.org/dc/dcmitype/StillImage" />
      </cc:Work>
    </rdf:RDF>
  </metadata>
  <defs
     id="defs8" />
  <sodipodi:namedview
     pagecolor="#ffffff"
     bordercolor="#666666"
     borderopacity="1"
     objecttolerance="10"
     gridtolerance="10"
     guidetolerance="10"
     inkscape:pageopacity="0"
     inkscape:pageshadow="2"
     inkscape:window-width="840"
     inkscape:window-height="480"
     id="namedview6"
     showgrid="false"
     inkscape:zoom="45.9375"
     inkscape:cx="8"
     inkscape:cy="8"
     inkscape:window-x="0"
     inkscape:window-y="0"
     inkscape:window-maximized="0"
     inkscape:current-layer="svg4" />
  <path
     class="iconStroke"
     d="M8 7.771c1.818-.515 2.231-.636 2.563-.769-.386-.192-1.033-.42-1.952-.693-.192-.057-.39-.114-.611-.177v1.64zm-1-1.92c-2.33-.647-2.688-.756-3.268-1.012a1.751 1.751 0 0 1-.39-.228c-.626-.502-.326-1.078.367-1.44.396-.208.977-.4 1.708-.584A25.62 25.62 0 0 1 7 2.243V0h1v5.084c.366.103.666.19.953.275 1.098.326 1.839.593 2.303.853.81.455.963 1.18.039 1.584-.566.247-.574.252-3.295 1.023v2.232c.427.121.781.225 1.113.326 1.101.336 1.845.614 2.295.886.805.486.82 1.23-.145 1.586a25.41 25.41 0 0 1-2.568.807c-.284.071-.517.123-.695.159V16H7v-4.183l-.73-.203c-.402-.112-.698-.196-.973-.276-.704-.205-1.199-.365-1.55-.51-.913-.373-.856-1.098-.082-1.571.438-.268 1.154-.54 2.208-.867.335-.104.693-.21 1.127-.335V5.852zm0-2.586c-.44.086-.88.182-1.288.285-.591.15-1.066.302-1.37.445.427.18.893.32 2.658.81v-1.54zm0 5.84c-.284.082-.535.157-.772.231-.841.26-1.446.484-1.807.67.33.131.644.222 2.579.764V9.104zm1 4.683c.116-.026.25-.058.402-.096.654-.165 1.4-.391 2.227-.69-.376-.188-1-.413-1.865-.677A50.847 50.847 0 0 0 8 12.1v1.689z"
     id="path2"
     style="fill-opacity:1;fill:#000000" />
</svg>
