<?xml version="1.0" encoding="UTF-8" standalone="no"?>
<svg
   xmlns:dc="http://purl.org/dc/elements/1.1/"
   xmlns:cc="http://creativecommons.org/ns#"
   xmlns:rdf="http://www.w3.org/1999/02/22-rdf-syntax-ns#"
   xmlns:svg="http://www.w3.org/2000/svg"
   xmlns="http://www.w3.org/2000/svg"
   xmlns:sodipodi="http://sodipodi.sourceforge.net/DTD/sodipodi-0.dtd"
   xmlns:inkscape="http://www.inkscape.org/namespaces/inkscape"
   width="16"
   height="16"
   viewBox="0 0 16 16"
   version="1.1"
   id="svg4"
   sodipodi:docname="dosage_closure.icon.svg"
   inkscape:version="1.0.1 (3bc2e813f5, 2020-09-07)">
  <metadata
     id="metadata10">
    <rdf:RDF>
      <cc:Work
         rdf:about="">
        <dc:format>image/svg+xml</dc:format>
        <dc:type
           rdf:resource="http://purl.org/dc/dcmitype/StillImage" />
      </cc:Work>
    </rdf:RDF>
  </metadata>
  <defs
     id="defs8" />
  <sodipodi:namedview
     pagecolor="#ffffff"
     bordercolor="#666666"
     borderopacity="1"
     objecttolerance="10"
     gridtolerance="10"
     guidetolerance="10"
     inkscape:pageopacity="0"
     inkscape:pageshadow="2"
     inkscape:window-width="840"
     inkscape:window-height="480"
     id="namedview6"
     showgrid="false"
     inkscape:zoom="45.9375"
     inkscape:cx="8"
     inkscape:cy="8"
     inkscape:window-x="13"
     inkscape:window-y="39"
     inkscape:window-maximized="0"
     inkscape:current-layer="svg4" />
  <path
     class="iconStroke"
     fill-rule="evenodd"
     d="M8 .771C9.818.256 10.231.135 10.563.002c.01.021 1.378.038 1.363.021.024.289-.17.571-.631.773-.566.247-.574.252-3.295 1.023V4.05c.427.121.781.225 1.113.326 1.101.336 1.845.614 2.295.886.805.486.82 1.23-.145 1.586a25.41 25.41 0 0 1-2.568.807c-.284.071-.517.123-.695.159V9H7V4.817l-.73-.203c-.402-.112-.698-.196-.973-.276-.704-.205-1.199-.365-1.55-.51-.913-.373-.856-1.098-.082-1.571.438-.268 1.154-.54 2.208-.867.335-.104.693-.21 1.127-.335V0h1v.771zM8 5.1v1.689c.116-.026.25-.058.402-.096.654-.165 1.4-.391 2.227-.69-.376-.188-1-.413-1.865-.677A50.848 50.848 0 0 0 8 5.1zM7 3.77V2.104c-.284.083-.535.158-.772.232-.841.26-1.446.484-1.807.67.33.131.644.222 2.579.764zM7 16a6 6 0 0 1-6-6h6v6zm1 0v-6h6a6 6 0 0 1-6 6zm5-16h1v9h-1V0zM1 0h1v9H1V0z"
     id="path2"
     style="fill:#000000;fill-opacity:1" />
</svg>
