<?xml version="1.0" encoding="UTF-8" standalone="no"?>
<svg
   xmlns:dc="http://purl.org/dc/elements/1.1/"
   xmlns:cc="http://creativecommons.org/ns#"
   xmlns:rdf="http://www.w3.org/1999/02/22-rdf-syntax-ns#"
   xmlns:svg="http://www.w3.org/2000/svg"
   xmlns="http://www.w3.org/2000/svg"
   xmlns:sodipodi="http://sodipodi.sourceforge.net/DTD/sodipodi-0.dtd"
   xmlns:inkscape="http://www.inkscape.org/namespaces/inkscape"
   width="15.966008"
   height="14.461443"
   viewBox="0 0 15.966008 14.461443"
   version="1.1"
   id="svg4"
   sodipodi:docname="ecomode5.icon.svg"
   inkscape:version="1.0.1 (3bc2e813f5, 2020-09-07)">
  <metadata
     id="metadata10">
    <rdf:RDF>
      <cc:Work
         rdf:about="">
        <dc:format>image/svg+xml</dc:format>
        <dc:type
           rdf:resource="http://purl.org/dc/dcmitype/StillImage" />
      </cc:Work>
    </rdf:RDF>
  </metadata>
  <defs
     id="defs8" />
  <sodipodi:namedview
     pagecolor="#ffffff"
     bordercolor="#666666"
     borderopacity="1"
     objecttolerance="10"
     gridtolerance="10"
     guidetolerance="10"
     inkscape:pageopacity="0"
     inkscape:pageshadow="2"
     inkscape:window-width="840"
     inkscape:window-height="480"
     id="namedview6"
     showgrid="false"
     inkscape:zoom="50.824804"
     inkscape:cx="7.9830041"
     inkscape:cy="7.2307215"
     inkscape:window-x="0"
     inkscape:window-y="0"
     inkscape:window-maximized="0"
     inkscape:current-layer="svg4" />
  <path
     class="iconStroke"
     d="M 15.439469,6.6640692e-5 A 0.50005,0.50005 0 0 0 15.029313,0.22272289 c -0.250196,0.3781127 -0.188464,0.33611157 -0.769531,0.49023437 -0.581067,0.1541227 -1.681538,0.37563344 -3.773438,0.99218744 a 0.50005,0.50005 0 0 0 -0.02539,0.00781 C 9.55944,2.0348279 8.0211358,2.4933351 6.7754065,3.5586604 5.5296772,4.6239854 4.6172504,6.3579133 4.9824378,8.9473322 a 0.50005,0.50005 0 0 0 0.00977,0.046875 c 0.5604678,2.3327898 1.0182927,3.6275738 1.3515581,4.3652348 0.1666327,0.36883 0.3019107,0.59902 0.4101562,0.75 0.054123,0.07549 0.1021989,0.130762 0.1445313,0.173828 0.042332,0.04307 0.1132813,0.0957 0.1132813,0.0957 a 0.5,0.5 0 0 0 0.6914062,-0.140622 0.5,0.5 0 0 0 -0.095703,-0.658203 c -0.00228,-0.0024 -0.014614,-0.01591 -0.041016,-0.05273 -0.057141,-0.0797 -0.1659835,-0.253821 -0.3125,-0.578125 -0.06885,-0.152394 -0.2175849,-0.76015 -0.3027343,-0.984375 A 0.5,0.5 0 0 0 7.0703284,11.574286 C 6.6416062,8.1884085 7.5971545,6.5129651 8.8632971,5.5254572 9.4347868,5.079733 10.091833,4.8141714 10.730485,4.6016291 9.2783296,5.8399843 7.9644562,7.3120459 7.7871253,9.2578791 A 0.50005,0.50005 0 0 0 8.2597815,9.802801 C 11.610724,9.967796 13.342075,8.6058885 14.548844,6.8125666 16.006537,4.646358 16.007997,2.0359563 15.947282,0.48053539 A 0.50005,0.50005 0 0 0 15.439469,6.6640692e-5 Z M 0.51173469,0.99420726 A 0.50005,0.50005 0 0 0 1.5941248e-5,1.4981135 C 0.01341054,3.1006524 0.16424258,4.5732122 0.71290656,5.8125666 1.2615705,7.0519211 2.2469017,8.036816 3.7636878,8.5410822 A 0.5,0.5 0 0 0 4.3945471,8.224676 0.5,0.5 0 0 0 4.0781409,7.5918635 C 2.7953969,7.1654065 2.0822732,6.4347844 1.626969,5.4063166 1.2767494,4.6152199 1.212624,3.5046448 1.1445471,2.3926447 1.7235555,2.7046842 2.278245,3.0152178 2.7148597,3.2110041 a 0.50005,0.50005 0 0 0 0.035156,0.013672 c 1.5570083,0.5594456 2.7167969,0.46875 2.7167969,0.46875 A 0.5,0.5 0 0 0 5.9218909,3.1524104 0.5,0.5 0 0 0 5.3828284,2.6953791 c 0,0 -0.9117384,0.077107 -2.28125,-0.4101563 C 2.5467487,2.0333087 0.74025031,1.0547541 0.74025032,1.0547541 A 0.50005,0.50005 0 0 0 0.51173469,0.99420726 Z M 14.906266,1.4180354 c -0.0032,1.4659693 -0.146298,3.2906097 -1.1875,4.8378906 C 12.700221,7.769537 11.522999,8.735113 8.955094,8.771551 9.4321612,6.832654 11.235519,5.1253363 13.005875,3.9942072 A 0.50005,0.50005 0 0 0 12.638688,3.0820978 C 11.644491,3.2815535 9.7741899,3.5461161 8.2480628,4.7363947 7.1437171,5.5977117 6.2826507,6.9840562 6.0527503,9.0449885 6.0199974,8.9135625 6.0081722,8.9282331 5.9746253,8.7891291 5.6558467,6.487603 6.3887226,5.2053134 7.4257971,4.318426 8.4576135,3.4360354 9.8237986,3.000882 10.769547,2.6641291 l 0.0059,-0.00195 c 2.056252,-0.605741 3.090655,-0.810127 3.740234,-0.9824219 0.188495,-0.049997 0.241308,-0.1928629 0.390625,-0.2617187 z M 2.5215003,3.7735041 A 0.5,0.5 0 0 0 2.0683753,4.0313166 0.5,0.5 0 0 0 2.2656409,4.7110041 C 2.8543212,5.0356781 3.1956739,5.404292 3.392594,5.6836604 3.5895142,5.9630286 3.626969,6.1113948 3.626969,6.1113947 A 0.5,0.5 0 0 0 4.2480628,6.4531916 0.5,0.5 0 0 0 4.5879065,5.8320978 c 0,0 -0.1047571,-0.3356772 -0.3789062,-0.7246093 C 3.9348512,4.7185564 3.4756547,4.2353387 2.7480628,3.834051 A 0.5,0.5 0 0 0 2.5215003,3.7735041 Z"
     id="path2"
     style="fill:#000000;fill-opacity:1" />
</svg>
