<?xml version="1.0" encoding="UTF-8" standalone="no"?>
<svg
   xmlns:dc="http://purl.org/dc/elements/1.1/"
   xmlns:cc="http://creativecommons.org/ns#"
   xmlns:rdf="http://www.w3.org/1999/02/22-rdf-syntax-ns#"
   xmlns:svg="http://www.w3.org/2000/svg"
   xmlns="http://www.w3.org/2000/svg"
   xmlns:sodipodi="http://sodipodi.sourceforge.net/DTD/sodipodi-0.dtd"
   xmlns:inkscape="http://www.inkscape.org/namespaces/inkscape"
   width="15.994454"
   height="15.907702"
   viewBox="0 0 15.994454 15.907702"
   version="1.1"
   id="svg4"
   sodipodi:docname="ecomode3.icon.svg"
   inkscape:version="1.0.1 (3bc2e813f5, 2020-09-07)">
  <metadata
     id="metadata10">
    <rdf:RDF>
      <cc:Work
         rdf:about="">
        <dc:format>image/svg+xml</dc:format>
        <dc:type
           rdf:resource="http://purl.org/dc/dcmitype/StillImage" />
      </cc:Work>
    </rdf:RDF>
  </metadata>
  <defs
     id="defs8" />
  <sodipodi:namedview
     pagecolor="#ffffff"
     bordercolor="#666666"
     borderopacity="1"
     objecttolerance="10"
     gridtolerance="10"
     guidetolerance="10"
     inkscape:pageopacity="0"
     inkscape:pageshadow="2"
     inkscape:window-width="840"
     inkscape:window-height="480"
     id="namedview6"
     showgrid="false"
     inkscape:zoom="46.204032"
     inkscape:cx="7.9972272"
     inkscape:cy="7.9538512"
     inkscape:window-x="0"
     inkscape:window-y="0"
     inkscape:window-maximized="0"
     inkscape:current-layer="svg4" />
  <path
     class="iconStroke"
     d="M 9.7597656 0 A 0.5000475 0.5000475 0 0 0 9.4472656 0.125 C 9.4472656 0.125 7.8226691 1.5236993 7.0800781 1.9511719 C 5.5107521 2.8545548 4.0869557 3.164961 2.0117188 4.578125 C -0.07805725 6.0011896 0.005859375 8.2070312 0.005859375 8.2070312 A 0.4999975 0.4999975 0 0 0 0.01953125 8.2910156 A 0.50078499 0.50078499 0 0 0 0 8.4296875 C 0.0071 10.966142 1.2961083 13.32732 3.4257812 14.705078 C 5.3767558 15.967232 7.7901087 16.234645 9.9628906 15.478516 L 9.9628906 15.533203 A 0.50083507 0.50083507 0 0 0 10.464844 16.033203 L 15.462891 16.033203 A 0.50083507 0.50083507 0 0 0 15.962891 15.533203 L 15.962891 10.533203 A 0.50083507 0.50083507 0 0 0 15.462891 10.033203 L 14.714844 10.033203 L 14.714844 8.46875 A 0.5 0.5 0 0 0 14.214844 7.96875 A 0.5 0.5 0 0 0 13.714844 8.46875 L 13.714844 10.033203 L 12.210938 10.033203 L 12.210938 8.46875 A 0.4999975 0.4999975 0 0 0 11.710938 7.96875 A 0.4999975 0.4999975 0 0 0 11.210938 8.46875 L 11.210938 10.033203 L 10.464844 10.033203 A 0.50083507 0.50083507 0 0 0 9.9628906 10.533203 L 9.9628906 14.412109 C 7.9976184 15.217673 5.761121 15.023517 3.9707031 13.865234 C 2.1244301 12.670816 1.0081361 10.624699 1.0019531 8.4257812 A 0.50078499 0.50078499 0 0 0 0.98828125 8.3046875 A 0.4999975 0.4999975 0 0 0 1.0039062 8.1523438 C 1.0039062 8.1523438 0.87589275 6.5607974 2.5742188 5.4042969 C 4.5281277 4.0737531 5.875271 3.7966549 7.578125 2.8164062 C 8.304474 2.3982838 8.9599908 1.8005197 9.4492188 1.3808594 C 9.6516828 2.0968639 10.165374 3.8002632 10.183594 4.96875 C 10.206244 6.4217187 9.6848993 8.1966187 7.8789062 9.5898438 C 7.0776873 10.20794 5.9443044 10.246941 4.9746094 10.091797 C 4.2690854 9.9789179 3.9954016 9.8430456 3.7285156 9.7402344 C 3.7893156 9.4317129 3.8485342 8.8537014 4.4257812 8.1875 C 5.1815153 7.3153065 6.0417079 7.0005812 7.9042969 6.0703125 A 0.4999975 0.4999975 0 0 0 8.1269531 5.4003906 A 0.4999975 0.4999975 0 0 0 7.4570312 5.1757812 C 5.6271552 6.0897112 4.5922639 6.4687268 3.6699219 7.5332031 C 2.7120079 8.6387328 2.5625 10.005859 2.5625 10.005859 A 0.5000475 0.5000475 0 0 0 2.8574219 10.523438 C 2.8574219 10.523438 3.7096074 10.900732 4.8183594 11.078125 C 5.9271114 11.255517 7.3557702 11.25453 8.4882812 10.380859 C 10.549748 8.7905507 11.210322 6.6675621 11.183594 4.953125 C 11.156154 3.1933784 10.255859 0.35351563 10.255859 0.35351562 A 0.5000475 0.5000475 0 0 0 9.7597656 0 z M 10.964844 11.035156 L 14.960938 11.035156 L 14.960938 15.03125 L 10.964844 15.03125 L 10.964844 11.035156 z "
     id="path2"
     style="fill:#000000;fill-opacity:1" />
</svg>
