<?xml version="1.0" encoding="UTF-8" standalone="no"?>
<svg
   xmlns:dc="http://purl.org/dc/elements/1.1/"
   xmlns:cc="http://creativecommons.org/ns#"
   xmlns:rdf="http://www.w3.org/1999/02/22-rdf-syntax-ns#"
   xmlns:svg="http://www.w3.org/2000/svg"
   xmlns="http://www.w3.org/2000/svg"
   xmlns:sodipodi="http://sodipodi.sourceforge.net/DTD/sodipodi-0.dtd"
   xmlns:inkscape="http://www.inkscape.org/namespaces/inkscape"
   width="15.981202"
   height="14.461466"
   viewBox="0 0 15.981202 14.461466"
   version="1.1"
   id="svg4"
   sodipodi:docname="ecomode4.icon.svg"
   inkscape:version="1.0.1 (3bc2e813f5, 2020-09-07)">
  <metadata
     id="metadata10">
    <rdf:RDF>
      <cc:Work
         rdf:about="">
        <dc:format>image/svg+xml</dc:format>
        <dc:type
           rdf:resource="http://purl.org/dc/dcmitype/StillImage" />
      </cc:Work>
    </rdf:RDF>
  </metadata>
  <defs
     id="defs8" />
  <sodipodi:namedview
     pagecolor="#ffffff"
     bordercolor="#666666"
     borderopacity="1"
     objecttolerance="10"
     gridtolerance="10"
     guidetolerance="10"
     inkscape:pageopacity="0"
     inkscape:pageshadow="2"
     inkscape:window-width="840"
     inkscape:window-height="480"
     id="namedview6"
     showgrid="false"
     inkscape:zoom="50.824723"
     inkscape:cx="7.9906011"
     inkscape:cy="7.2307329"
     inkscape:window-x="0"
     inkscape:window-y="0"
     inkscape:window-maximized="0"
     inkscape:current-layer="svg4" />
  <path
     class="iconStroke"
     d="M 14.736328,1.6425781 A 0.50005,0.50005 0 0 0 14.326172,1.8652344 C 14.075976,2.2433471 14.137708,2.201346 13.556641,2.3554688 12.975574,2.5095914 11.875103,2.7311023 9.7832031,3.3476562 a 0.50005,0.50005 0 0 0 -0.025391,0.00781 c -0.901513,0.3218732 -2.4398172,0.7803805 -3.6855465,1.8457057 -0.011044,0.00944 -0.020259,0.0217 -0.03125,0.03125 a 0.5,0.5 0 0 0 -0.044922,-0.048828 c 0,0 -0.1894956,-0.1788272 -0.5410157,-0.3964844 -0.35152,-0.2176573 -0.8896444,-0.49799 -1.65625,-0.7734375 A 0.50005,0.50005 0 0 0 3.7714839,4.005862 C 2.1042393,3.5113287 1.2245103,3.3323863 0.76953125,3.2109375 0.31455218,3.0894887 0.40848209,3.1558342 0.21484375,2.8613281 A 0.50005,0.50005 0 0 0 -0.24414062,2.6367188 0.50005,0.50005 0 0 0 -0.703125,3.1152344 C -0.75161908,4.3654831 -0.75479925,6.4804979 0.42578125,8.2460938 0.89506575,8.9479228 1.2748605,9.4418857 1.8476562,9.8027344 2.420452,10.163583 3.1180663,10.361736 4.21875,10.595703 a 0.50005,0.50005 0 0 0 0.064453,0.0098 0.50005,0.50005 0 0 0 0.00586,0.03125 c 0.5604722,2.332789 1.0182971,3.627573 1.3515625,4.365234 0.1666327,0.36883 0.3019107,0.59902 0.4101562,0.75 0.054123,0.07549 0.1021989,0.130762 0.1445313,0.173828 0.042332,0.04307 0.1132812,0.0957 0.1132813,0.0957 A 0.5,0.5 0 0 0 7,15.880859 0.5,0.5 0 0 0 6.9042969,15.222656 c -0.00228,-0.0024 -0.014614,-0.01591 -0.041016,-0.05273 -0.057141,-0.0797 -0.1659834,-0.253821 -0.3125,-0.578125 -0.06885,-0.152394 -0.2175849,-0.76015 -0.3027343,-0.984375 A 0.5,0.5 0 0 0 6.3671875,13.216797 C 5.9384653,9.83092 6.8940137,8.1554767 8.1601562,7.1679688 8.7316459,6.7222446 9.3886918,6.4566829 10.027344,6.2441406 8.5751887,7.4824958 7.2613153,8.9545574 7.0839844,10.900391 a 0.50005,0.50005 0 0 0 0.4726562,0.544921 C 10.907583,11.610307 12.638934,10.2484 13.845703,8.4550781 15.303396,6.2888695 15.304856,3.6784678 15.244141,2.1230469 A 0.50005,0.50005 0 0 0 14.736328,1.6425781 Z m -0.533203,1.4179688 c -0.0032,1.4659693 -0.146298,3.2906097 -1.1875,4.8378906 C 11.99708,9.4120485 10.819858,10.377625 8.2519531,10.414062 8.7290203,8.4751655 10.532378,6.7678478 12.302734,5.6367188 A 0.50005,0.50005 0 0 0 11.935547,4.7246094 C 10.94135,4.9240651 9.071049,5.1886277 7.5449219,6.3789062 6.4405762,7.2402232 5.5795098,8.6265677 5.3496094,10.6875 5.3168565,10.556074 5.3050313,10.570745 5.2714844,10.431641 4.9527058,8.1301145 5.6855816,6.8478249 6.7226562,5.9609375 7.7544726,5.0785469 9.1206577,4.6433935 10.066406,4.3066406 l 0.0059,-0.00195 c 2.056252,-0.605741 3.090655,-0.810127 3.740234,-0.9824219 0.188495,-0.049997 0.241308,-0.1928629 0.390625,-0.2617187 z m -13.86523438,1 c 0.0723837,0.026474 0.0919868,0.095863 0.171875,0.1171875 C 1.0319033,4.31711 1.8517187,4.4809822 3.4726562,4.9609375 4.1667905,5.2116209 4.639516,5.4582572 4.9277344,5.6367188 5.2183055,5.8166371 5.3007812,5.9042969 5.3007812,5.9042969 A 0.5,0.5 0 0 0 5.359375,5.953125 C 5.2907039,6.0397698 5.2222665,6.1262161 5.1582031,6.21875 A 0.5,0.5 0 0 0 5.1171871,6.193359 c 0,0 -1.3546642,-0.7422907 -3.0664063,-1.0878906 A 0.50005,0.50005 0 0 0 1.6816406,6.0175781 c 1.217063,0.7825749 1.6984027,1.915513 1.9492188,3.34375 C 3.1808892,9.2330376 2.6224728,9.1092424 2.3808594,8.9570312 1.9856655,8.7080679 1.7075157,8.3649187 1.2558594,7.6894531 0.48774986,6.5407209 0.35768566,5.197405 0.33789062,4.0605469 Z M 3.59375,6.7011719 C 3.895021,6.836573 4.640625,7.0722656 4.640625,7.0722656 a 0.5,0.5 0 0 0 0.039063,0.017578 C 4.5414911,7.4054582 4.4241438,7.7412834 4.34375,8.109375 4.1423333,7.6103547 3.8939405,7.1406809 3.59375,6.7011719 Z"
     id="path2"
     style="fill:#000000;fill-opacity:1" />
</svg>
