<?xml version="1.0" encoding="UTF-8" standalone="no"?>
<svg
   xmlns:dc="http://purl.org/dc/elements/1.1/"
   xmlns:cc="http://creativecommons.org/ns#"
   xmlns:rdf="http://www.w3.org/1999/02/22-rdf-syntax-ns#"
   xmlns:svg="http://www.w3.org/2000/svg"
   xmlns="http://www.w3.org/2000/svg"
   xmlns:sodipodi="http://sodipodi.sourceforge.net/DTD/sodipodi-0.dtd"
   xmlns:inkscape="http://www.inkscape.org/namespaces/inkscape"
   viewBox="0 0 32 23"
   width="32"
   height="23"
   version="1.1"
   id="svg6"
   sodipodi:docname="educate.icon.svg"
   inkscape:version="1.0.1 (3bc2e813f5, 2020-09-07)">
  <metadata
     id="metadata12">
    <rdf:RDF>
      <cc:Work
         rdf:about="">
        <dc:format>image/svg+xml</dc:format>
        <dc:type
           rdf:resource="http://purl.org/dc/dcmitype/StillImage" />
      </cc:Work>
    </rdf:RDF>
  </metadata>
  <defs
     id="defs10" />
  <sodipodi:namedview
     pagecolor="#ffffff"
     bordercolor="#666666"
     borderopacity="1"
     objecttolerance="10"
     gridtolerance="10"
     guidetolerance="10"
     inkscape:pageopacity="0"
     inkscape:pageshadow="2"
     inkscape:window-width="840"
     inkscape:window-height="480"
     id="namedview8"
     showgrid="false"
     inkscape:zoom="31.956522"
     inkscape:cx="16"
     inkscape:cy="11.5"
     inkscape:window-x="0"
     inkscape:window-y="0"
     inkscape:window-maximized="0"
     inkscape:current-layer="svg6" />
  <path
     class="iconStroke"
     d="M 15.628906,0.07226562 0.62890625,6.0722656 a 1.0001,1.0001 0 0 0 0,1.8554688 L 15.628906,13.927734 a 1.0001,1.0001 0 0 0 0.742188,0 L 30,8.4765625 V 16 a 1,1 0 0 0 1,1 1,1 0 0 0 1,-1 V 7 a 1.0001,1.0001 0 0 0 -0.002,-0.00391 1,1 0 0 0 -0.417969,-0.7890625 1.0001,1.0001 0 0 0 -0.0625,-0.039063 1,1 0 0 0 -0.146484,-0.095703 l -15,-5.99999998 a 1.0001,1.0001 0 0 0 -0.742188,0 z M 16,2.0761719 28.308594,7 16,11.923828 3.6914063,7 Z"
     id="path2"
     style="fill:#000000;fill-opacity:1" />
  <path
     class="iconStroke"
     d="m 7,8.4003906 a 1,1 0 0 0 -1,1 V 17.5 c 0,1.78449 1.3785563,3.173372 3.1894531,4.078125 C 11.00035,22.482878 13.380194,23 16,23 18.619806,23 20.99965,22.482878 22.810547,21.578125 24.621444,20.673372 26,19.28449 26,17.5 V 9.4003906 a 1,1 0 0 0 -1,-1 1,1 0 0 0 -1,1 V 17.5 c 0,0.705508 -0.637384,1.566318 -2.083984,2.289062 C 20.469416,20.511807 18.350189,21 16,21 13.649811,21 11.530584,20.511807 10.083984,19.789062 8.6373844,19.066318 8,18.205508 8,17.5 V 9.4003906 a 1,1 0 0 0 -1,-1 z"
     id="path4" />
</svg>
