<?xml version="1.0" encoding="UTF-8" standalone="no"?>
<svg
   xmlns:dc="http://purl.org/dc/elements/1.1/"
   xmlns:cc="http://creativecommons.org/ns#"
   xmlns:rdf="http://www.w3.org/1999/02/22-rdf-syntax-ns#"
   xmlns:svg="http://www.w3.org/2000/svg"
   xmlns="http://www.w3.org/2000/svg"
   xmlns:sodipodi="http://sodipodi.sourceforge.net/DTD/sodipodi-0.dtd"
   xmlns:inkscape="http://www.inkscape.org/namespaces/inkscape"
   width="16"
   height="16"
   viewBox="0 0 16 16"
   id="EmptyChainBag"
   version="1.1"
   sodipodi:docname="EmptyChainBag.icon.svg"
   inkscape:version="1.0.1 (3bc2e813f5, 2020-09-07)">
  <metadata
     id="metadata9">
    <rdf:RDF>
      <cc:Work
         rdf:about="">
        <dc:format>image/svg+xml</dc:format>
        <dc:type
           rdf:resource="http://purl.org/dc/dcmitype/StillImage" />
      </cc:Work>
    </rdf:RDF>
  </metadata>
  <defs
     id="defs7" />
  <sodipodi:namedview
     pagecolor="#ffffff"
     bordercolor="#666666"
     borderopacity="1"
     objecttolerance="10"
     gridtolerance="10"
     guidetolerance="10"
     inkscape:pageopacity="0"
     inkscape:pageshadow="2"
     inkscape:window-width="840"
     inkscape:window-height="480"
     id="namedview5"
     showgrid="false"
     inkscape:zoom="45.9375"
     inkscape:cx="8"
     inkscape:cy="8"
     inkscape:window-x="0"
     inkscape:window-y="0"
     inkscape:window-maximized="0"
     inkscape:current-layer="EmptyChainBag" />
  <path
     class="iconStroke"
     d="M 8,0 C 8,0 8.02,0.14 8.05,0.36 8.14,1.17 8.36,3.17 8.36,4.29 8.35,5.56 8.01,9 8.01,9 h -0.01 c 0,0 0.02,0.14 0.05,0.36 0.1,0.81 0.32,2.81 0.31,3.93 C 8.36,13.9 8.27,15.01 8.19,16 H 9.14 C 9.24,15.15 9.36,14 9.36,13.25 9.35,12.13 9,9.92 9,9.92 l 4.97,-0 c 0,0 -0.36,2.36 -0.36,3.54 -0,0.69 0.12,1.74 0.22,2.53 h 0.89 c -0.1,-0.88 -0.19,-1.86 -0.19,-2.54 0,-1.49 0.43,-4.46 0.43,-4.46 h 0.01 c 0,0 -0.44,-3.02 -0.44,-4.54 C 14.54,2.97 14.97,-0 14.97,-0 Z m -4.98,0.52 -0.03,3 h -2 l 2.5,4 2.5,-4 h -2 l 0.03,-3 z M 13.97,0.92 c 0,0 -0.36,2.36 -0.36,3.54 -0,1.22 0.37,3.61 0.37,3.61 l -4.97,0 c 0,0 0.36,-2.55 0.35,-3.83 C 9.35,3.13 9,0.92 9,0.92 Z M 10.32,3.4 9.61,4.1 10.79,5.29 9.61,6.48 10.32,7.19 11.5,6 12.68,7.19 13.39,6.48 12.21,5.29 13.41,4.12 12.7,3.42 11.5,4.58 Z M 3.02,8.5 2.98,11.5 h -2 l 2.5,4 2.5,-4 h -2 L 4.02,8.5 Z m 7.3,3.9 -0.71,0.71 1.18,1.19 L 9.61,15.48 10.13,16 h 0.37 L 11.5,15 12.49,16 h 0.37 l 0.52,-0.52 -1.18,-1.19 1.2,-1.17 -0.71,-0.71 -1.2,1.17 z"
     id="path2"
     style="fill:#000000;fill-opacity:1" />
</svg>
