<?xml version="1.0" encoding="UTF-8" standalone="no"?>
<svg
   xmlns:dc="http://purl.org/dc/elements/1.1/"
   xmlns:cc="http://creativecommons.org/ns#"
   xmlns:rdf="http://www.w3.org/1999/02/22-rdf-syntax-ns#"
   xmlns:svg="http://www.w3.org/2000/svg"
   xmlns="http://www.w3.org/2000/svg"
   xmlns:sodipodi="http://sodipodi.sourceforge.net/DTD/sodipodi-0.dtd"
   xmlns:inkscape="http://www.inkscape.org/namespaces/inkscape"
   viewBox="0 0 16 16"
   width="16"
   height="16"
   version="1.1"
   id="svg4"
   sodipodi:docname="filmrunning.icon.svg"
   inkscape:version="1.0.1 (3bc2e813f5, 2020-09-07)">
  <metadata
     id="metadata10">
    <rdf:RDF>
      <cc:Work
         rdf:about="">
        <dc:format>image/svg+xml</dc:format>
        <dc:type
           rdf:resource="http://purl.org/dc/dcmitype/StillImage" />
      </cc:Work>
    </rdf:RDF>
  </metadata>
  <defs
     id="defs8" />
  <sodipodi:namedview
     pagecolor="#ffffff"
     bordercolor="#666666"
     borderopacity="1"
     objecttolerance="10"
     gridtolerance="10"
     guidetolerance="10"
     inkscape:pageopacity="0"
     inkscape:pageshadow="2"
     inkscape:window-width="840"
     inkscape:window-height="480"
     id="namedview6"
     showgrid="false"
     inkscape:zoom="45.9375"
     inkscape:cx="8"
     inkscape:cy="8"
     inkscape:window-x="0"
     inkscape:window-y="0"
     inkscape:window-maximized="0"
     inkscape:current-layer="svg4" />
  <path
     class="iconStroke"
     d="M7.996 10.345l-3.33-4.643L.773 11 0 10.417l4.676-6.362 3.326 4.638L11.422 4 16 10.345l-.778.576-3.804-5.272-3.422 4.696zm-3.032-.393A.97.97 0 0 1 4 8.976.97.97 0 0 1 4.964 8a.97.97 0 0 1 .963.976.97.97 0 0 1-.963.976zm3.038-2.993a.97.97 0 0 1-.964-.976.97.97 0 0 1 .964-.976.97.97 0 0 1 .963.976.97.97 0 0 1-.963.976zm2.962 2.993A.97.97 0 0 1 10 8.976.97.97 0 0 1 10.964 8a.97.97 0 0 1 .963.976.97.97 0 0 1-.963.976z"
     id="path2"
     style="fill:#000000;fill-opacity:1" />
</svg>
