<?xml version="1.0" encoding="UTF-8" standalone="no"?>
<svg
   xmlns:dc="http://purl.org/dc/elements/1.1/"
   xmlns:cc="http://creativecommons.org/ns#"
   xmlns:rdf="http://www.w3.org/1999/02/22-rdf-syntax-ns#"
   xmlns:svg="http://www.w3.org/2000/svg"
   xmlns="http://www.w3.org/2000/svg"
   xmlns:sodipodi="http://sodipodi.sourceforge.net/DTD/sodipodi-0.dtd"
   xmlns:inkscape="http://www.inkscape.org/namespaces/inkscape"
   viewBox="0 0 16 16"
   width="16"
   height="16"
   version="1.1"
   id="svg4"
   sodipodi:docname="filmposition.icon.svg"
   inkscape:version="1.0.1 (3bc2e813f5, 2020-09-07)">
  <metadata
     id="metadata10">
    <rdf:RDF>
      <cc:Work
         rdf:about="">
        <dc:format>image/svg+xml</dc:format>
        <dc:type
           rdf:resource="http://purl.org/dc/dcmitype/StillImage" />
      </cc:Work>
    </rdf:RDF>
  </metadata>
  <defs
     id="defs8" />
  <sodipodi:namedview
     pagecolor="#ffffff"
     bordercolor="#666666"
     borderopacity="1"
     objecttolerance="10"
     gridtolerance="10"
     guidetolerance="10"
     inkscape:pageopacity="0"
     inkscape:pageshadow="2"
     inkscape:window-width="840"
     inkscape:window-height="480"
     id="namedview6"
     showgrid="false"
     inkscape:zoom="45.9375"
     inkscape:cx="8"
     inkscape:cy="8"
     inkscape:window-x="0"
     inkscape:window-y="0"
     inkscape:window-maximized="0"
     inkscape:current-layer="svg4" />
  <path
     class="iconStroke"
     fill-rule="evenodd"
     d="M10 1V0h1v1h1v1h-.005l3.451 6.848c.261.517-.419.99-.812.565a3.49 3.49 0 0 0-.256-.238 5.996 5.996 0 0 0-.776-.563A5.699 5.699 0 0 0 12 7.926V10.2h-1V7.787c-.954-.029-1.957.235-3 .86V16H7V8.5h.014a.476.476 0 0 1 .143-.493c.525-.496.995-.996 1.413-1.496-1.161.062-2.364.366-3.57.86V10.2H4V7.821a17.484 17.484 0 0 0-2.05 1.186c-.31.209-.528.37-.64.458-.42.332-.998-.139-.756-.617L4.004 2H4V1h1V0h1v1h4zM4.992 2a4.8 4.8 0 0 0 .434.667c.444.591 1.041 1.186 1.811 1.743.579.42 1.233.8 1.97 1.135a.554.554 0 0 1 .077.043 12.86 12.86 0 0 0 1.08-1.799c.234-.478.406-.914.526-1.299a3.976 3.976 0 0 0 .127-.49H4.992zM12 13v1.5l-4-2 4-2V12h3v1h-3zm-9-1v-1.5l4 2-4 2V13H0v-1h3zm8 3h1v1h-1v-1zm-7-.2h1V16H4v-1.2zM2.3 7.605c.295-.175.604-.347.925-.513 1.35-.698 2.718-1.2 4.07-1.438-.224-.14-.438-.285-.644-.434-.982-.71-1.67-1.428-2.116-2.05L2.3 7.606zm8.961-3.376a14.423 14.423 0 0 1-1.753 2.715c1.462-.348 2.856-.114 4.133.543l-2.032-4.032c-.096.237-.211.496-.348.774z"
     id="path2"
     style="fill:#000000;fill-opacity:1" />
</svg>
