<svg xmlns="http://www.w3.org/2000/svg" width="16" height="16" viewBox="0 0 16 16">
  <defs>
    <rect id="function-a" width="16" height="15" y="1" rx="2"/>
    <mask id="function-b" width="16" height="15" x="0" y="0" fill="#fff">
      <use href="#function-a"/>
    </mask>
    <path id="function-c" d="M2,11.5 C2,10.1192881 3.12893087,9 4.50098635,9 L11.4990137,9 C12.8802703,9 14,10.1096621 14,11.5 C14,12.8807119 12.8710691,14 11.4990137,14 L4.50098635,14 C3.11972973,14 2,12.8903379 2,11.5 Z M10,11.5 C10,12.3342028 10.6715729,13 11.5,13 C12.3342028,13 13,12.3284271 13,11.5 C13,10.6657972 12.3284271,10 11.5,10 C10.6657972,10 10,10.6715729 10,11.5 Z"/>
    <path id="function-d" d="M2,5.5 C2,4.11928813 3.12893087,3 4.50098635,3 L11.4990137,3 C12.8802703,3 14,4.10966206 14,5.5 C14,6.88071187 12.8710691,8 11.4990137,8 L4.50098635,8 C3.11972973,8 2,6.89033794 2,5.5 Z M10,5.5 C10,6.33420277 10.6715729,7 11.5,7 C12.3342028,7 13,6.32842712 13,5.5 C13,4.66579723 12.3284271,4 11.5,4 C10.6657972,4 10,4.67157288 10,5.5 Z"/>
  </defs>
  <g fill="none" fill-rule="evenodd">
    <use stroke="#FFF" stroke-width="2" mask="url(#function-b)" opacity=".5" href="#function-a"/>
    <use fill="#FFF" href="#function-c"/>
    <use fill="#FFF" transform="matrix(-1 0 0 1 16 0)" href="#function-d"/>
  </g>
</svg>
