<?xml version="1.0" encoding="UTF-8" standalone="no"?>
<svg
   xmlns:dc="http://purl.org/dc/elements/1.1/"
   xmlns:cc="http://creativecommons.org/ns#"
   xmlns:rdf="http://www.w3.org/1999/02/22-rdf-syntax-ns#"
   xmlns:svg="http://www.w3.org/2000/svg"
   xmlns="http://www.w3.org/2000/svg"
   xmlns:sodipodi="http://sodipodi.sourceforge.net/DTD/sodipodi-0.dtd"
   xmlns:inkscape="http://www.inkscape.org/namespaces/inkscape"
   viewBox="0 0 16 16"
   width="16"
   height="16"
   version="1.1"
   id="svg4"
   sodipodi:docname="gasflushing.icon.svg"
   inkscape:version="1.0.1 (3bc2e813f5, 2020-09-07)">
  <metadata
     id="metadata10">
    <rdf:RDF>
      <cc:Work
         rdf:about="">
        <dc:format>image/svg+xml</dc:format>
        <dc:type
           rdf:resource="http://purl.org/dc/dcmitype/StillImage" />
      </cc:Work>
    </rdf:RDF>
  </metadata>
  <defs
     id="defs8" />
  <sodipodi:namedview
     pagecolor="#ffffff"
     bordercolor="#666666"
     borderopacity="1"
     objecttolerance="10"
     gridtolerance="10"
     guidetolerance="10"
     inkscape:pageopacity="0"
     inkscape:pageshadow="2"
     inkscape:window-width="840"
     inkscape:window-height="480"
     id="namedview6"
     showgrid="false"
     inkscape:zoom="45.9375"
     inkscape:cx="8"
     inkscape:cy="8"
     inkscape:window-x="0"
     inkscape:window-y="0"
     inkscape:window-maximized="0"
     inkscape:current-layer="svg4" />
  <path
     class="iconStroke"
     fill-rule="evenodd"
     d="M5 4.458C4.609 4.202 4.186 4 3.824 4 2.264 4 1 5.343 1 7c0 .713.12 1.378.745 2.042l-.02.01C1.125 9.861 1 10.636 1 11.5 1 13.433 2.343 15 4 15c.7 0 1.345-.28 1.855-.75l.013.015.046-.067A4.487 4.487 0 0 0 8.47 15a4.78 4.78 0 0 0 2.832-.951l.118.184.003-.002a2 2 0 1 0 2.037-3.178l-.364-.044a6.01 6.01 0 0 0 .08-1.009A5.163 5.163 0 0 0 12 6.693V5.284c1.328 1.101 2.176 2.808 2.176 4.716 0 .08-.001.159-.004.238A3.002 3.002 0 0 1 13 16c-.705 0-1.37-.245-1.897-.675a5.465 5.465 0 0 1-5.112.08A3.658 3.658 0 0 1 4 16c-2.246 0-4-2.046-4-4.5 0-.845.208-1.658.592-2.36A4.124 4.124 0 0 1 0 7c0-2.196 1.698-4 3.824-4 .407 0 .803.067 1.176.193v1.265zM10 0h1v12h-1V0zM6 0h1v12H6V0z"
     id="path2"
     style="fill:#000000;fill-opacity:1" />
</svg>
