<?xml version="1.0" encoding="UTF-8" standalone="no"?>
<svg
   xmlns:dc="http://purl.org/dc/elements/1.1/"
   xmlns:cc="http://creativecommons.org/ns#"
   xmlns:rdf="http://www.w3.org/1999/02/22-rdf-syntax-ns#"
   xmlns:svg="http://www.w3.org/2000/svg"
   xmlns="http://www.w3.org/2000/svg"
   xmlns:sodipodi="http://sodipodi.sourceforge.net/DTD/sodipodi-0.dtd"
   xmlns:inkscape="http://www.inkscape.org/namespaces/inkscape"
   viewBox="0 0 16 16"
   width="16"
   height="16"
   version="1.1"
   id="svg4"
   sodipodi:docname="headformer.icon.svg"
   inkscape:version="1.0.1 (3bc2e813f5, 2020-09-07)">
  <metadata
     id="metadata10">
    <rdf:RDF>
      <cc:Work
         rdf:about="">
        <dc:format>image/svg+xml</dc:format>
        <dc:type
           rdf:resource="http://purl.org/dc/dcmitype/StillImage" />
      </cc:Work>
    </rdf:RDF>
  </metadata>
  <defs
     id="defs8" />
  <sodipodi:namedview
     pagecolor="#ffffff"
     bordercolor="#666666"
     borderopacity="1"
     objecttolerance="10"
     gridtolerance="10"
     guidetolerance="10"
     inkscape:pageopacity="0"
     inkscape:pageshadow="2"
     inkscape:window-width="840"
     inkscape:window-height="480"
     id="namedview6"
     showgrid="false"
     inkscape:zoom="45.9375"
     inkscape:cx="8"
     inkscape:cy="8"
     inkscape:window-x="0"
     inkscape:window-y="0"
     inkscape:window-maximized="0"
     inkscape:current-layer="svg4" />
  <path
     class="iconStroke"
     d="M4 6h8s-1.031 3.333-1.031 5c0 1.667 1.031 5 1.031 5H4s1.018-3.333 1.018-5C5.018 9.333 4 6 4 6zM3 8l1 3-1 3H0V8h3zm10 0h3v6h-3l-1-3 1-3zM4 0h8v3H4V0zm0 5V4h8v1H4zm1-3h6V1H5v1zm8.054 9l.667 2H15V9h-1.28l-.666 2zM1 9v4h1.28l.666-2-.667-2H1zm4.48-1.362c.095.388.18.765.254 1.125.182.894.284 1.646.284 2.237 0 .59-.102 1.343-.284 2.237A29.91 29.91 0 0 1 5.319 15h5.358a29.587 29.587 0 0 1-.42-1.761c-.185-.894-.288-1.647-.288-2.239 0-.592.103-1.345.288-2.239A29.587 29.587 0 0 1 10.677 7H5.319c.055.21.109.423.161.638z"
     id="path2"
     style="fill:#000000;fill-opacity:1" />
</svg>
