<?xml version="1.0" encoding="UTF-8" standalone="no"?>
<svg
   xmlns:dc="http://purl.org/dc/elements/1.1/"
   xmlns:cc="http://creativecommons.org/ns#"
   xmlns:rdf="http://www.w3.org/1999/02/22-rdf-syntax-ns#"
   xmlns:svg="http://www.w3.org/2000/svg"
   xmlns="http://www.w3.org/2000/svg"
   xmlns:sodipodi="http://sodipodi.sourceforge.net/DTD/sodipodi-0.dtd"
   xmlns:inkscape="http://www.inkscape.org/namespaces/inkscape"
   viewBox="0 0 16 16"
   width="16"
   height="16"
   version="1.1"
   id="svg4"
   sodipodi:docname="heating.icon.svg"
   inkscape:version="1.0.1 (3bc2e813f5, 2020-09-07)">
  <metadata
     id="metadata10">
    <rdf:RDF>
      <cc:Work
         rdf:about="">
        <dc:format>image/svg+xml</dc:format>
        <dc:type
           rdf:resource="http://purl.org/dc/dcmitype/StillImage" />
      </cc:Work>
    </rdf:RDF>
  </metadata>
  <defs
     id="defs8" />
  <sodipodi:namedview
     pagecolor="#ffffff"
     bordercolor="#666666"
     borderopacity="1"
     objecttolerance="10"
     gridtolerance="10"
     guidetolerance="10"
     inkscape:pageopacity="0"
     inkscape:pageshadow="2"
     inkscape:window-width="840"
     inkscape:window-height="480"
     id="namedview6"
     showgrid="false"
     inkscape:zoom="45.9375"
     inkscape:cx="8"
     inkscape:cy="8"
     inkscape:window-x="0"
     inkscape:window-y="0"
     inkscape:window-maximized="0"
     inkscape:current-layer="svg4" />
  <path
     class="iconStroke"
     d="M10.094 2.583L10.906 2a12.134 12.134 0 0 1 .788 1.31c.295.57.524 1.132.662 1.668.094.363.144.708.144 1.033 0 .757-.212 1.304-.745 2.24l-.071.123C11.17 9.272 11 9.703 11 10.309c0 1.431.588 2.867 1.353 3.628l-.706.71c-.955-.95-1.647-2.642-1.647-4.338 0-.833.22-1.39.816-2.432l.07-.122c.453-.794.614-1.21.614-1.744 0-.234-.038-.497-.112-.784a7.145 7.145 0 0 0-.582-1.458 11.143 11.143 0 0 0-.712-1.186zm-3 0L7.906 2a12.134 12.134 0 0 1 .788 1.31c.295.57.524 1.132.662 1.668.094.363.144.708.144 1.033 0 .757-.212 1.304-.745 2.24l-.071.123C8.17 9.272 8 9.703 8 10.309c0 1.431.588 2.867 1.353 3.628l-.706.71C7.692 13.696 7 12.004 7 10.308c0-.833.22-1.39.816-2.432l.07-.122c.453-.794.614-1.21.614-1.744 0-.234-.038-.497-.112-.784a7.145 7.145 0 0 0-.582-1.458 11.143 11.143 0 0 0-.712-1.186zm-3 0L4.906 2a12.134 12.134 0 0 1 .788 1.31c.295.57.524 1.132.662 1.668.094.363.144.708.144 1.033 0 .757-.212 1.304-.745 2.24l-.071.123C5.17 9.272 5 9.703 5 10.309c0 1.431.588 2.867 1.353 3.628l-.706.71C4.692 13.696 4 12.004 4 10.308c0-.833.22-1.39.816-2.432l.07-.122c.453-.794.614-1.21.614-1.744 0-.234-.038-.497-.112-.784a7.145 7.145 0 0 0-.582-1.458 11.143 11.143 0 0 0-.712-1.186z"
     id="path2"
     style="fill:#000000;fill-opacity:1" />
</svg>
