<?xml version="1.0" encoding="UTF-8" standalone="no"?>
<svg
   xmlns:dc="http://purl.org/dc/elements/1.1/"
   xmlns:cc="http://creativecommons.org/ns#"
   xmlns:rdf="http://www.w3.org/1999/02/22-rdf-syntax-ns#"
   xmlns:svg="http://www.w3.org/2000/svg"
   xmlns="http://www.w3.org/2000/svg"
   xmlns:sodipodi="http://sodipodi.sourceforge.net/DTD/sodipodi-0.dtd"
   xmlns:inkscape="http://www.inkscape.org/namespaces/inkscape"
   width="16"
   height="16"
   viewBox="0 0 16 16"
   version="1.1"
   id="svg4"
   sodipodi:docname="Icon_Switch_Menu.icon.svg"
   inkscape:version="1.0.1 (3bc2e813f5, 2020-09-07)">
  <metadata
     id="metadata10">
    <rdf:RDF>
      <cc:Work
         rdf:about="">
        <dc:format>image/svg+xml</dc:format>
        <dc:type
           rdf:resource="http://purl.org/dc/dcmitype/StillImage" />
      </cc:Work>
    </rdf:RDF>
  </metadata>
  <defs
     id="defs8" />
  <sodipodi:namedview
     pagecolor="#ffffff"
     bordercolor="#666666"
     borderopacity="1"
     objecttolerance="10"
     gridtolerance="10"
     guidetolerance="10"
     inkscape:pageopacity="0"
     inkscape:pageshadow="2"
     inkscape:window-width="840"
     inkscape:window-height="480"
     id="namedview6"
     showgrid="false"
     inkscape:zoom="45.9375"
     inkscape:cx="8"
     inkscape:cy="8"
     inkscape:window-x="0"
     inkscape:window-y="0"
     inkscape:window-maximized="0"
     inkscape:current-layer="svg4" />
  <path
     class="iconStroke"
     d="m 11.725668,0.05000185 c -1.40456,0.00199 -2.6881666,0.7231399 -3.4684004,1.87490795 h -4.953536 c -1.3466694,0 -2.48447101,1.0238963 -2.48447101,2.3273294 v 0.042622 c 0,1.3034332 1.13780161,2.3273295 2.48447101,2.3273295 h 4.9519953 c 0.7805777,1.1522659 2.0647621,1.8734073 3.4699411,1.8749079 h 5.25e-4 c 2.326785,9.84e-5 4.223904,-1.8970218 4.223806,-4.2238057 -2.23e-4,-2.3265593 -1.897244,-4.22339125 -4.223806,-4.22329285 z m 5.25e-4,0.99419905 h 5.26e-4 c 1.789276,2.048e-4 3.228923,1.4397498 3.229094,3.2290939 7.4e-5,1.7896938 -1.439913,3.2296821 -3.229608,3.2296066 -1.15742,-0.00139 -2.2236428,-0.6203603 -2.7987526,-1.6248178 l -0.1432757,-0.2500901 h -5.258e-4 c -0.1898593,-0.4119739 -0.2988761,-0.8696643 -0.2988761,-1.3546987 0,-0.4850354 0.1090168,-0.9427248 0.2988761,-1.3546997 h 0.00257 l 0.1427621,-0.2495763 c 0.5748713,-1.0040422 1.640271,-1.6229595 2.797212,-1.6248179 z m -7.4523859,6.4587005 c -2.3265599,-9.84e-5 -4.22358344,1.8967336 -4.22380604,4.2232916 -9.838e-5,2.326784 1.89702154,4.223905 4.22380604,4.223807 h 5.259e-4 c 1.4051783,-0.0015 2.6893624,-0.722642 3.4699401,-1.874908 h 4.9519959 c 1.346669,0 2.484471,-1.023896 2.484471,-2.32733 v -0.04262 c 0,-1.303433 -1.137802,-2.32733 -2.484471,-2.32733 h -4.9535366 c -0.7802339,-1.1517687 -2.0638392,-1.8728734 -3.4683994,-1.8749076 z m -5.259e-4,0.9941991 h 5.259e-4 c 1.1569413,0.00189 2.2223411,0.6207755 2.7972124,1.6248175 l 0.1427621,0.249577 h 0.00257 c 0.1898593,0.411975 0.2988761,0.869664 0.2988761,1.354698 0,0.485036 -0.1090168,0.942725 -0.2988761,1.3547 h -5.259e-4 l -0.1432756,0.25009 c -0.5751097,1.004458 -1.6413336,1.623436 -2.7987529,1.624818 -1.7896953,7.6e-5 -3.2296823,-1.439913 -3.2296068,-3.229608 1.709e-4,-1.789343 1.4398183,-3.2288888 3.2290933,-3.2290925 z m 3.9957977,1.8749075 h 4.4271651 c 0.855474,0 1.490272,0.608841 1.490272,1.333131 v 0.04262 c 0,0.724289 -0.634798,1.333131 -1.490272,1.333131 h -4.4271651 c 0.1450469,-0.425915 0.2274949,-0.880697 0.2274949,-1.3547 0,-0.473999 -0.082452,-0.928274 -0.2274949,-1.354184 z"
     id="path2"
     style="fill:#000000;fill-opacity:1" />
</svg>
