<?xml version="1.0" encoding="UTF-8" standalone="no"?>
<svg
   xmlns:dc="http://purl.org/dc/elements/1.1/"
   xmlns:cc="http://creativecommons.org/ns#"
   xmlns:rdf="http://www.w3.org/1999/02/22-rdf-syntax-ns#"
   xmlns:svg="http://www.w3.org/2000/svg"
   xmlns="http://www.w3.org/2000/svg"
   xmlns:sodipodi="http://sodipodi.sourceforge.net/DTD/sodipodi-0.dtd"
   xmlns:inkscape="http://www.inkscape.org/namespaces/inkscape"
   width="16"
   height="16"
   viewBox="0 0 16 16"
   version="1.1"
   id="svg4"
   sodipodi:docname="lubrication.icon.svg"
   inkscape:version="1.0.1 (3bc2e813f5, 2020-09-07)">
  <metadata
     id="metadata10">
    <rdf:RDF>
      <cc:Work
         rdf:about="">
        <dc:format>image/svg+xml</dc:format>
        <dc:type
           rdf:resource="http://purl.org/dc/dcmitype/StillImage" />
      </cc:Work>
    </rdf:RDF>
  </metadata>
  <defs
     id="defs8" />
  <sodipodi:namedview
     pagecolor="#ffffff"
     bordercolor="#666666"
     borderopacity="1"
     objecttolerance="10"
     gridtolerance="10"
     guidetolerance="10"
     inkscape:pageopacity="0"
     inkscape:pageshadow="2"
     inkscape:window-width="840"
     inkscape:window-height="480"
     id="namedview6"
     showgrid="false"
     inkscape:zoom="45.9375"
     inkscape:cx="8"
     inkscape:cy="8"
     inkscape:window-x="0"
     inkscape:window-y="0"
     inkscape:window-maximized="0"
     inkscape:current-layer="svg4" />
  <path
     class="iconStroke"
     d="M12 4c1.268-.911 2.391-1.176 3.37-.795 1.324.515.257 5.483-2.37 8.783V14H7V6.992C4.434 4.997 2.101 4 0 4V3c2.002-.003 4.339.33 7.01 1H12zm-9.5 8c-.828 0-1.5-.746-1.5-1.667C1 9.72 1.5 8.61 2.5 7 3.5 8.609 4 9.72 4 10.333 4 11.253 3.328 12 2.5 12zM8 13h4V5H8v8zm6.551-6.165c.268-.892.401-1.7.387-2.281a1.837 1.837 0 0 0-.059-.46c-.508-.145-1.122-.018-1.875.439.017 2.386.032 4.267.045 5.642a14.274 14.274 0 0 0 1.502-3.34z"
     id="path2"
     style="fill:#000000;fill-opacity:1" />
</svg>
