<?xml version="1.0" encoding="UTF-8" standalone="no"?>
<svg
   xmlns:dc="http://purl.org/dc/elements/1.1/"
   xmlns:cc="http://creativecommons.org/ns#"
   xmlns:rdf="http://www.w3.org/1999/02/22-rdf-syntax-ns#"
   xmlns:svg="http://www.w3.org/2000/svg"
   xmlns="http://www.w3.org/2000/svg"
   xmlns:sodipodi="http://sodipodi.sourceforge.net/DTD/sodipodi-0.dtd"
   xmlns:inkscape="http://www.inkscape.org/namespaces/inkscape"
   viewBox="0 0 16 16"
   width="16"
   height="16"
   version="1.1"
   id="svg4"
   sodipodi:docname="machine_running.icon.svg"
   inkscape:version="1.0.1 (3bc2e813f5, 2020-09-07)">
  <metadata
     id="metadata10">
    <rdf:RDF>
      <cc:Work
         rdf:about="">
        <dc:format>image/svg+xml</dc:format>
        <dc:type
           rdf:resource="http://purl.org/dc/dcmitype/StillImage" />
      </cc:Work>
    </rdf:RDF>
  </metadata>
  <defs
     id="defs8" />
  <sodipodi:namedview
     pagecolor="#ffffff"
     bordercolor="#666666"
     borderopacity="1"
     objecttolerance="10"
     gridtolerance="10"
     guidetolerance="10"
     inkscape:pageopacity="0"
     inkscape:pageshadow="2"
     inkscape:window-width="840"
     inkscape:window-height="480"
     id="namedview6"
     showgrid="false"
     inkscape:zoom="8.1206795"
     inkscape:cx="0.60317556"
     inkscape:cy="4.7509467"
     inkscape:window-x="0"
     inkscape:window-y="0"
     inkscape:window-maximized="0"
     inkscape:current-layer="svg4" />
  <path
     class="iconStroke"
     fill-rule="evenodd"
     d="M4.103 12.997l7.473.002c.869 0 1.78-.711 1.99-1.557l1.616-6.415s.762-.06.858 0c.097.06 0 .537 0 .537l-1.503 6.12C14.214 12.976 12.903 14 11.576 14l-7.473-.002v1.865L.889 13.37l3.214-2.491v2.117zM12 3.003L4.492 3c-.869 0-1.78.71-1.991 1.557L.885 10.972s-.76.06-.857 0c-.097-.06 0-.536 0-.536l1.503-6.12C1.854 3.023 3.164 2 4.492 2L12 2.003V0l3.436 2.491L12 4.981V3.004z"
     id="path2"
     style="fill:#000000;fill-opacity:1" />
</svg>
