<?xml version="1.0" encoding="UTF-8" standalone="no"?>
<svg
   xmlns:dc="http://purl.org/dc/elements/1.1/"
   xmlns:cc="http://creativecommons.org/ns#"
   xmlns:rdf="http://www.w3.org/1999/02/22-rdf-syntax-ns#"
   xmlns:svg="http://www.w3.org/2000/svg"
   xmlns="http://www.w3.org/2000/svg"
   xmlns:sodipodi="http://sodipodi.sourceforge.net/DTD/sodipodi-0.dtd"
   xmlns:inkscape="http://www.inkscape.org/namespaces/inkscape"
   viewBox="0 0 16 16"
   width="16"
   height="16"
   version="1.1"
   id="svg4"
   sodipodi:docname="metalcheck.icon.svg"
   inkscape:version="1.0.1 (3bc2e813f5, 2020-09-07)">
  <metadata
     id="metadata10">
    <rdf:RDF>
      <cc:Work
         rdf:about="">
        <dc:format>image/svg+xml</dc:format>
        <dc:type
           rdf:resource="http://purl.org/dc/dcmitype/StillImage" />
      </cc:Work>
    </rdf:RDF>
  </metadata>
  <defs
     id="defs8" />
  <sodipodi:namedview
     pagecolor="#ffffff"
     bordercolor="#666666"
     borderopacity="1"
     objecttolerance="10"
     gridtolerance="10"
     guidetolerance="10"
     inkscape:pageopacity="0"
     inkscape:pageshadow="2"
     inkscape:window-width="840"
     inkscape:window-height="480"
     id="namedview6"
     showgrid="false"
     inkscape:zoom="45.9375"
     inkscape:cx="8"
     inkscape:cy="8"
     inkscape:window-x="0"
     inkscape:window-y="0"
     inkscape:window-maximized="0"
     inkscape:current-layer="svg4" />
  <path
     class="iconStroke"
     fill-rule="evenodd"
     d="M9 2v2.603L8.5 8.5h-1L7 4.603V2h2zm4 8.5V10a2 2 0 1 1 0-4V5a2 2 0 1 1 0-4V0a3 3 0 0 0-1.659 5.5A2.997 2.997 0 0 0 10 8c0 1.043.533 1.963 1.341 2.5A3 3 0 0 0 13 16v-1a2 2 0 1 1 0-4v-.5zm-8.341 0A2.997 2.997 0 0 0 6 8a2.997 2.997 0 0 0-1.341-2.5A3 3 0 0 0 3 0v1a2 2 0 1 1 0 4v1a2 2 0 1 1 0 4v1a2 2 0 1 1 0 4v1a3 3 0 0 0 1.659-5.5zM9 10v2H7v-2h2zM1 0h2v1H1V0zm0 5h2v1H1V5zm0 5h2v1H1v-1zm0 5h2v1H1v-1zM15 0v1h-2V0h2zm0 5v1h-2V5h2zm0 5v1h-2v-1h2zm0 5v1h-2v-1h2z"
     id="path2"
     style="fill:#000000;fill-opacity:1" />
</svg>
