<?xml version="1.0" encoding="UTF-8" standalone="no"?>
<svg
   xmlns:dc="http://purl.org/dc/elements/1.1/"
   xmlns:cc="http://creativecommons.org/ns#"
   xmlns:rdf="http://www.w3.org/1999/02/22-rdf-syntax-ns#"
   xmlns:svg="http://www.w3.org/2000/svg"
   xmlns="http://www.w3.org/2000/svg"
   xmlns:sodipodi="http://sodipodi.sourceforge.net/DTD/sodipodi-0.dtd"
   xmlns:inkscape="http://www.inkscape.org/namespaces/inkscape"
   viewBox="0 0 16 16"
   width="16"
   height="16"
   version="1.1"
   id="svg4"
   sodipodi:docname="oscilloscope.icon.svg"
   inkscape:version="1.0.1 (3bc2e813f5, 2020-09-07)">
  <metadata
     id="metadata10">
    <rdf:RDF>
      <cc:Work
         rdf:about="">
        <dc:format>image/svg+xml</dc:format>
        <dc:type
           rdf:resource="http://purl.org/dc/dcmitype/StillImage" />
      </cc:Work>
    </rdf:RDF>
  </metadata>
  <defs
     id="defs8" />
  <sodipodi:namedview
     pagecolor="#ffffff"
     bordercolor="#666666"
     borderopacity="1"
     objecttolerance="10"
     gridtolerance="10"
     guidetolerance="10"
     inkscape:pageopacity="0"
     inkscape:pageshadow="2"
     inkscape:window-width="840"
     inkscape:window-height="480"
     id="namedview6"
     showgrid="false"
     inkscape:zoom="45.9375"
     inkscape:cx="8"
     inkscape:cy="8"
     inkscape:window-x="0"
     inkscape:window-y="0"
     inkscape:window-maximized="0"
     inkscape:current-layer="svg4" />
  <path
     class="iconStroke"
     d="M10.872 9c-.68 2.075-1.324 3-2.29 3-.907 0-1.361-.816-1.941-3H1.07a7.002 7.002 0 0 0 13.858 0h-4.057zm-.937 0H7.41c.442 1.687.68 2.08 1.171 2.08.548 0 .844-.522 1.354-2.08zm4.146-1H15A7 7 0 0 0 1 8h.967c.036-.167.074-.34.087-.378a11.276 11.276 0 0 1 .728-1.678C3.43 4.736 4.16 4 5.012 4c.858 0 1.118.158 1.752 2.752.017.07.308.98.39 1.248h3.095c.106-.34.24-.767.293-.932.432-1.317.95-1.98 1.514-1.98.667 0 1.164.683 1.539 1.502.123.268.224.553.306.837.026.088.105.339.179.573zm-.74 0a7.946 7.946 0 0 1-.058-.187c-.074-.259-.258-.653-.368-.892-.289-.63-.489-.875-.858-.875-.159 0-.372.369-.701 1.373-.038.115-.108.345-.179.581h2.164zM6.387 8l-.151-.58C5.71 5.267 5.41 4.948 5.013 4.948c-.562 0-.932.31-1.486 1.338-.204.38-.4.926-.558 1.335-.043.112-.08.25-.11.378h3.528zM8 16A8 8 0 1 1 8 0a8 8 0 0 1 0 16z"
     id="path2"
     style="fill:#000000;fill-opacity:1" />
</svg>
