<?xml version="1.0" encoding="UTF-8" standalone="no"?>
<svg
   xmlns:dc="http://purl.org/dc/elements/1.1/"
   xmlns:cc="http://creativecommons.org/ns#"
   xmlns:rdf="http://www.w3.org/1999/02/22-rdf-syntax-ns#"
   xmlns:svg="http://www.w3.org/2000/svg"
   xmlns="http://www.w3.org/2000/svg"
   xmlns:sodipodi="http://sodipodi.sourceforge.net/DTD/sodipodi-0.dtd"
   xmlns:inkscape="http://www.inkscape.org/namespaces/inkscape"
   width="30"
   height="30"
   viewBox="0 0 30 30"
   version="1.1"
   id="svg4"
   sodipodi:docname="Page_forwardBack.icon.svg"
   inkscape:version="1.0.1 (3bc2e813f5, 2020-09-07)">
  <metadata
     id="metadata10">
    <rdf:RDF>
      <cc:Work
         rdf:about="">
        <dc:format>image/svg+xml</dc:format>
        <dc:type
           rdf:resource="http://purl.org/dc/dcmitype/StillImage" />
        <dc:title></dc:title>
      </cc:Work>
    </rdf:RDF>
  </metadata>
  <defs
     id="defs8" />
  <sodipodi:namedview
     pagecolor="#ffffff"
     bordercolor="#666666"
     borderopacity="1"
     objecttolerance="10"
     gridtolerance="10"
     guidetolerance="10"
     inkscape:pageopacity="0"
     inkscape:pageshadow="2"
     inkscape:window-width="3200"
     inkscape:window-height="1711"
     id="namedview6"
     showgrid="false"
     inkscape:zoom="42.426406"
     inkscape:cx="12.335286"
     inkscape:cy="14.224572"
     inkscape:window-x="3191"
     inkscape:window-y="6"
     inkscape:window-maximized="1"
     inkscape:current-layer="svg4"
     inkscape:document-rotation="0"
     fit-margin-top="0"
     fit-margin-left="0"
     fit-margin-right="0"
     fit-margin-bottom="0" />
  <circle
     style="fill:#edf0f1;fill-opacity:1;stroke:none;stroke-width:3.24429"
     id="path836"
     cx="15"
     cy="15"
     r="14" />
  <path
     class="iconStroke"
     d="M 15.000001,0 C 6.7163265,0 0,6.7163265 0,15 0,23.283673 6.7163265,30 15.000001,30 23.283674,30 30,23.283673 30,15 30,6.7163265 23.283674,0 15.000001,0 Z m 0,29 C 7.2330612,29 1,22.766939 1,15 1,7.2330612 7.2336735,1 15.000001,1 22.766328,1 29,7.2336735 29,15 29,22.766327 22.766328,29 15.000001,29 Z"
     id="path2"
     style="fill:#aeb1b3;fill-opacity:1;stroke:none;stroke-width:0.612246"
     sodipodi:nodetypes="ssssssssss" />
  <path
     class="iconStroke"
     d="M 19.015,15.127192 12.613843,21.528349 11.238087,20.152594 16.260892,15.127192 10.985,9.8474073 12.359458,8.4716509"
     id="path2-6"
     style="fill:#46474e;fill-opacity:1;stroke-width:1.29788" />
</svg>
