<?xml version="1.0" encoding="UTF-8" standalone="no"?>
<svg
   xmlns:dc="http://purl.org/dc/elements/1.1/"
   xmlns:cc="http://creativecommons.org/ns#"
   xmlns:rdf="http://www.w3.org/1999/02/22-rdf-syntax-ns#"
   xmlns:svg="http://www.w3.org/2000/svg"
   xmlns="http://www.w3.org/2000/svg"
   xmlns:sodipodi="http://sodipodi.sourceforge.net/DTD/sodipodi-0.dtd"
   xmlns:inkscape="http://www.inkscape.org/namespaces/inkscape"
   width="16"
   height="16"
   viewBox="0 0 16 16"
   id="PhotoCell"
   version="1.1"
   sodipodi:docname="PhotoCell.icon.svg"
   inkscape:version="1.0.1 (3bc2e813f5, 2020-09-07)">
  <metadata
     id="metadata9">
    <rdf:RDF>
      <cc:Work
         rdf:about="">
        <dc:format>image/svg+xml</dc:format>
        <dc:type
           rdf:resource="http://purl.org/dc/dcmitype/StillImage" />
      </cc:Work>
    </rdf:RDF>
  </metadata>
  <defs
     id="defs7" />
  <sodipodi:namedview
     pagecolor="#ffffff"
     bordercolor="#666666"
     borderopacity="1"
     objecttolerance="10"
     gridtolerance="10"
     guidetolerance="10"
     inkscape:pageopacity="0"
     inkscape:pageshadow="2"
     inkscape:window-width="840"
     inkscape:window-height="480"
     id="namedview5"
     showgrid="false"
     inkscape:zoom="45.9375"
     inkscape:cx="8"
     inkscape:cy="8"
     inkscape:window-x="0"
     inkscape:window-y="0"
     inkscape:window-maximized="0"
     inkscape:current-layer="PhotoCell" />
  <path
     class="iconStroke"
     d="M 4 0 L 4 4 L 5.5 4 L 5.5 7 L 11.5 7 L 11.5 4 L 15 4 L 15 0 L 4 0 z M 5 1 L 14 1 L 14 3 L 5 3 L 5 1 z M 6.5 4 L 10.5 4 L 10.5 6 L 6.5 6 L 6.5 4 z M 7.64 7.65 L 7 8.42 C 7.93 9.19 9.29 9.19 10.21 8.42 L 9.57 7.65 C 9.01 8.12 8.2 8.12 7.64 7.65 z M 6.36 9.18 L 5.71 9.95 C 7.39 11.35 9.83 11.35 11.5 9.95 L 10.86 9.18 C 9.55 10.28 7.66 10.28 6.36 9.18 z M 5.07 10.71 L 4.43 11.48 C 6.84 13.51 10.37 13.51 12.79 11.48 L 12.14 10.71 C 10.1 12.43 7.12 12.43 5.07 10.71 z M 0 14 L 0 15 L 3 15 L 3 16 L 6 16 L 6 15 L 16 15 L 16 14 L 0 14 z"
     id="path2"
     style="fill:#000000;fill-opacity:1" />
</svg>
