<?xml version="1.0" encoding="UTF-8" standalone="no"?>
<svg
   xmlns:dc="http://purl.org/dc/elements/1.1/"
   xmlns:cc="http://creativecommons.org/ns#"
   xmlns:rdf="http://www.w3.org/1999/02/22-rdf-syntax-ns#"
   xmlns:svg="http://www.w3.org/2000/svg"
   xmlns="http://www.w3.org/2000/svg"
   xmlns:sodipodi="http://sodipodi.sourceforge.net/DTD/sodipodi-0.dtd"
   xmlns:inkscape="http://www.inkscape.org/namespaces/inkscape"
   width="16"
   height="16"
   viewBox="0 0 16 16"
   id="PhotoCellTeachIn"
   version="1.1"
   sodipodi:docname="PhotoCellTeachIn.icon.svg"
   inkscape:version="1.0.1 (3bc2e813f5, 2020-09-07)">
  <metadata
     id="metadata9">
    <rdf:RDF>
      <cc:Work
         rdf:about="">
        <dc:format>image/svg+xml</dc:format>
        <dc:type
           rdf:resource="http://purl.org/dc/dcmitype/StillImage" />
      </cc:Work>
    </rdf:RDF>
  </metadata>
  <defs
     id="defs7" />
  <sodipodi:namedview
     pagecolor="#ffffff"
     bordercolor="#666666"
     borderopacity="1"
     objecttolerance="10"
     gridtolerance="10"
     guidetolerance="10"
     inkscape:pageopacity="0"
     inkscape:pageshadow="2"
     inkscape:window-width="840"
     inkscape:window-height="480"
     id="namedview5"
     showgrid="false"
     inkscape:zoom="45.9375"
     inkscape:cx="8"
     inkscape:cy="8"
     inkscape:window-x="0"
     inkscape:window-y="0"
     inkscape:window-maximized="0"
     inkscape:current-layer="PhotoCellTeachIn" />
  <path
     class="iconStroke"
     d="M 5.36 0 L 5 0.15 L 0 5.15 L 0.36 6 L 0.37 6 L 1.29 8.23 L 2.21 7.85 L 1.44 5.99 L 2.67 5.99 L 3.69 8.45 L 3.96 8.49 C 3.96 8.49 4.69 8.62 5.61 8.66 C 6.53 8.71 7.66 8.68 8.59 8.31 C 9.54 7.93 10.42 7.07 11.13 6.31 C 11.83 5.55 12.33 4.87 12.33 4.87 L 12.5 4.65 L 11.46 2.12 L 12.71 0.88 L 12.36 0.03 L 5.36 0 z M 5.56 1 L 11.14 1.02 L 7.15 4.96 L 1.57 4.99 L 5.56 1 z M 10.69 2.87 L 11.35 4.49 C 11.24 4.64 10.96 5.02 10.39 5.63 C 9.73 6.34 8.85 7.12 8.21 7.38 C 7.55 7.65 6.51 7.7 5.65 7.66 C 4.95 7.63 4.57 7.56 4.4 7.54 L 3.75 5.98 L 7.36 5.96 L 7.71 5.82 L 10.69 2.87 z M 13.32 5 C 13.05 5.3 12.73 5.64 12.35 6 L 15 6 L 15 8 L 10.1 8 C 10.1 8 9.87 8.3 9.44 8.57 C 9 8.85 8.73 8.88 8.44 9 L 11.5 9 L 11.5 11 L 7.5 11 L 7.5 9.23 L 6.5 9.32 L 6.5 12 L 12.5 12 L 12.5 9 L 16 9 L 16 5 L 13.32 5 z M 8.52 12.65 L 7.88 13.42 C 8.8 14.19 10.16 14.19 11.09 13.42 L 10.45 12.65 C 9.89 13.12 9.08 13.12 8.52 12.65 z M 7.23 14.18 L 6.59 14.95 C 8.26 16.35 10.71 16.35 12.38 14.95 L 11.73 14.18 C 10.43 15.28 8.54 15.28 7.23 14.18 z"
     id="path2"
     style="fill:#000000;fill-opacity:1" />
</svg>
