<?xml version="1.0" encoding="UTF-8" standalone="no"?>
<svg
   xmlns:dc="http://purl.org/dc/elements/1.1/"
   xmlns:cc="http://creativecommons.org/ns#"
   xmlns:rdf="http://www.w3.org/1999/02/22-rdf-syntax-ns#"
   xmlns:svg="http://www.w3.org/2000/svg"
   xmlns="http://www.w3.org/2000/svg"
   xmlns:sodipodi="http://sodipodi.sourceforge.net/DTD/sodipodi-0.dtd"
   xmlns:inkscape="http://www.inkscape.org/namespaces/inkscape"
   width="16"
   height="16"
   viewBox="0 0 16 16"
   version="1.1"
   id="svg4"
   sodipodi:docname="powerunwind.icon.svg"
   inkscape:version="1.0.1 (3bc2e813f5, 2020-09-07)">
  <metadata
     id="metadata10">
    <rdf:RDF>
      <cc:Work
         rdf:about="">
        <dc:format>image/svg+xml</dc:format>
        <dc:type
           rdf:resource="http://purl.org/dc/dcmitype/StillImage" />
      </cc:Work>
    </rdf:RDF>
  </metadata>
  <defs
     id="defs8" />
  <sodipodi:namedview
     pagecolor="#ffffff"
     bordercolor="#666666"
     borderopacity="1"
     objecttolerance="10"
     gridtolerance="10"
     guidetolerance="10"
     inkscape:pageopacity="0"
     inkscape:pageshadow="2"
     inkscape:window-width="840"
     inkscape:window-height="480"
     id="namedview6"
     showgrid="false"
     inkscape:zoom="45.9375"
     inkscape:cx="8"
     inkscape:cy="8"
     inkscape:window-x="0"
     inkscape:window-y="0"
     inkscape:window-maximized="0"
     inkscape:current-layer="svg4" />
  <path
     class="iconStroke"
     d="M3.977 6.032c1.052.104 1.808.58 2.958 1.605l.18.16c1.011.9 1.563 1.213 2.385 1.213.323 0 .423-.101.638-.613l.119-.287c.051-.12.097-.223.146-.322C10.985 6.613 12.01 6.01 14 6.01h2v1h-2c-1.62 0-2.292.396-2.7 1.222-.04.08-.078.164-.122.268l-.118.283c-.353.843-.734 1.227-1.56 1.227-.965 0-1.637-.298-2.538-1.029a3.5 3.5 0 1 1-2.985-2.949zM3.5 7a2.5 2.5 0 1 0 .39.03 3.548 3.548 0 0 0-.39-.02V7zm0 4a1.5 1.5 0 1 1 0-3 1.5 1.5 0 0 1 0 3zM14 5a2 2 0 1 1 0-4 2 2 0 0 1 0 4zm0-1a1 1 0 1 0 0-2 1 1 0 0 0 0 2zm0 8a2 2 0 1 1 0-4 2 2 0 0 1 0 4zm0-1a1 1 0 1 0 0-2 1 1 0 0 0 0 2z"
     id="path2"
     style="fill:#000000;fill-opacity:1" />
</svg>
