<?xml version="1.0" encoding="UTF-8" standalone="no"?>
<svg
   xmlns:dc="http://purl.org/dc/elements/1.1/"
   xmlns:cc="http://creativecommons.org/ns#"
   xmlns:rdf="http://www.w3.org/1999/02/22-rdf-syntax-ns#"
   xmlns:svg="http://www.w3.org/2000/svg"
   xmlns="http://www.w3.org/2000/svg"
   xmlns:sodipodi="http://sodipodi.sourceforge.net/DTD/sodipodi-0.dtd"
   xmlns:inkscape="http://www.inkscape.org/namespaces/inkscape"
   width="16"
   height="16"
   viewBox="0 0 16 16"
   id="PrintImageHigher"
   version="1.1"
   sodipodi:docname="PrintImageHigher.icon.svg"
   inkscape:version="1.0.1 (3bc2e813f5, 2020-09-07)">
  <metadata
     id="metadata9">
    <rdf:RDF>
      <cc:Work
         rdf:about="">
        <dc:format>image/svg+xml</dc:format>
        <dc:type
           rdf:resource="http://purl.org/dc/dcmitype/StillImage" />
      </cc:Work>
    </rdf:RDF>
  </metadata>
  <defs
     id="defs7" />
  <sodipodi:namedview
     pagecolor="#ffffff"
     bordercolor="#666666"
     borderopacity="1"
     objecttolerance="10"
     gridtolerance="10"
     guidetolerance="10"
     inkscape:pageopacity="0"
     inkscape:pageshadow="2"
     inkscape:window-width="840"
     inkscape:window-height="480"
     id="namedview5"
     showgrid="false"
     inkscape:zoom="45.9375"
     inkscape:cx="8"
     inkscape:cy="8"
     inkscape:window-x="0"
     inkscape:window-y="0"
     inkscape:window-maximized="0"
     inkscape:current-layer="PrintImageHigher" />
  <path
     class="iconStroke"
     d="M 0,0 C 0,0 1.02,3.34 1.02,5.01 1.02,6.62 0.06,9.8 0,10 H 0 L 0,10.01 0,10.01 H 0 C 0.06,10.21 1.02,13.39 1.02,15 c 0,0.29 -0.03,0.63 -0.08,1 h 1.01 c 0.05,-0.37 0.07,-0.71 0.07,-1 0,-0.59 -0.1,-1.34 -0.28,-2.24 -0.07,-0.36 -0.16,-0.74 -0.25,-1.12 C 1.43,11.42 1.37,11.21 1.32,11 h 5.36 C 6.52,11.58 6.38,12.17 6.26,12.76 6.24,12.84 6.23,12.92 6.21,13 H 3 v 1 h 3.04 c -0.05,0.37 -0.07,0.71 -0.07,1 0,0.33 0.03,0.67 0.07,1 h 1.01 c -0.05,-0.37 -0.08,-0.71 -0.08,-1 0,-1.61 0.97,-4.79 1.03,-4.99 H 8 L 8,10.01 8,10 H 8 C 7.93,9.8 6.97,6.62 6.97,5.01 6.97,3.34 8,0 8,0 Z m 8,10 v 0.01 z M 1.32,1 h 5.36 C 6.52,1.58 6.38,2.17 6.26,2.76 6.24,2.84 6.23,2.92 6.21,3 H 3 V 4 H 6.04 C 5.99,4.37 5.97,4.71 5.97,5 c 0,0.59 0.1,1.34 0.29,2.24 C 6.38,7.83 6.52,8.42 6.68,9 H 1.32 C 1.47,8.42 1.61,7.83 1.73,7.24 1.92,6.34 2.02,5.59 2.02,5 2.02,4.41 1.92,3.66 1.73,2.76 1.66,2.4 1.58,2.03 1.48,1.64 1.43,1.42 1.37,1.21 1.32,1 Z M 9,3 v 1 h 1 V 3 Z m 1.99,0 v 1 h 1 V 3 Z M 13,3 v 1 h 1 V 3 Z m 2,0 v 1 h 1 V 3 Z m -2.5,1.5 -2.5,4 h 5 z m -1.5,5 v 1 h 1 v -1 z m 2,0 v 1 h 1 v -1 z m 2,0 v 1 h 1 v -1 z m -1.02,1.5 -2,2 0.64,0.76 L 13.98,12.47 14.02,16 h 1 l -0.03,-5 z M 8.5,14 v 1 h 3 V 14 Z M 8.99,9.52 v 1 h 1 v -1 z"
     id="path2"
     style="fill:#000000;fill-opacity:1" />
</svg>
