<?xml version="1.0" encoding="UTF-8" standalone="no"?>
<svg
   xmlns:dc="http://purl.org/dc/elements/1.1/"
   xmlns:cc="http://creativecommons.org/ns#"
   xmlns:rdf="http://www.w3.org/1999/02/22-rdf-syntax-ns#"
   xmlns:svg="http://www.w3.org/2000/svg"
   xmlns="http://www.w3.org/2000/svg"
   xmlns:sodipodi="http://sodipodi.sourceforge.net/DTD/sodipodi-0.dtd"
   xmlns:inkscape="http://www.inkscape.org/namespaces/inkscape"
   width="21"
   height="21"
   viewBox="0 0 21 21"
   version="1.1"
   id="svg4"
   sodipodi:docname="qrCode.icon.svg"
   inkscape:version="1.0.1 (3bc2e813f5, 2020-09-07)">
  <metadata
     id="metadata10">
    <rdf:RDF>
      <cc:Work
         rdf:about="">
        <dc:format>image/svg+xml</dc:format>
        <dc:type
           rdf:resource="http://purl.org/dc/dcmitype/StillImage" />
      </cc:Work>
    </rdf:RDF>
  </metadata>
  <defs
     id="defs8" />
  <sodipodi:namedview
     pagecolor="#ffffff"
     bordercolor="#666666"
     borderopacity="1"
     objecttolerance="10"
     gridtolerance="10"
     guidetolerance="10"
     inkscape:pageopacity="0"
     inkscape:pageshadow="2"
     inkscape:window-width="840"
     inkscape:window-height="480"
     id="namedview6"
     showgrid="false"
     inkscape:zoom="35"
     inkscape:cx="10.5"
     inkscape:cy="10.5"
     inkscape:window-x="0"
     inkscape:window-y="0"
     inkscape:window-maximized="0"
     inkscape:current-layer="svg4" />
  <path
     class="iconStroke"
     d="m0 0h0.84v0.84h-0.84zm0.84 0h0.84v0.84h-0.84zm0.84 0h0.84v0.84h-0.84zm0.84 0h0.84v0.84h-0.84zm0.84 0h0.84v0.84h-0.84zm0.84 0h0.84v0.84h-0.84zm0.84 0h0.84v0.84h-0.84zm3.36 0h0.84v0.84h-0.84zm1.68 0h0.84v0.84h-0.84zm3.36 0h0.84v0.84h-0.84zm1.68 0h0.84v0.84h-0.84zm0.84 0h0.84v0.84h-0.84zm0.84 0h0.84v0.84h-0.84zm0.84 0h0.84v0.84h-0.84zm0.84 0h0.84v0.84h-0.84zm0.84 0h0.84v0.84h-0.84zm0.84 0h0.84v0.84h-0.84zm-20.16 0.84h0.84v0.84h-0.84zm5.04 0h0.84v0.84h-0.84zm1.68 0h0.84v0.84h-0.84zm1.68 0h0.84v0.84h-0.84zm4.2 0h0.84v0.84h-0.84zm0.84 0h0.84v0.84h-0.84zm1.68 0h0.84v0.84h-0.84zm5.04 0h0.84v0.84h-0.84zm-20.16 0.84h0.84v0.84h-0.84zm1.68 0h0.84v0.84h-0.84zm0.84 0h0.84v0.84h-0.84zm0.84 0h0.84v0.84h-0.84zm1.68 0h0.84v0.84h-0.84zm5.04 0h0.84v0.84h-0.84zm1.68 0h0.84v0.84h-0.84zm0.84 0h0.84v0.84h-0.84zm0.84 0h0.84v0.84h-0.84zm1.68 0h0.84v0.84h-0.84zm1.68 0h0.84v0.84h-0.84zm0.84 0h0.84v0.84h-0.84zm0.84 0h0.84v0.84h-0.84zm1.68 0h0.84v0.84h-0.84zm-20.16 0.84h0.84v0.84h-0.84zm1.68 0h0.84v0.84h-0.84zm0.84 0h0.84v0.84h-0.84zm0.84 0h0.84v0.84h-0.84zm1.68 0h0.84v0.84h-0.84zm1.68 0h0.84v0.84h-0.84zm0.84 0h0.84v0.84h-0.84zm0.84 0h0.84v0.84h-0.84zm1.68 0h0.84v0.84h-0.84zm0.84 0h0.84v0.84h-0.84zm4.2 0h0.84v0.84h-0.84zm1.68 0h0.84v0.84h-0.84zm0.84 0h0.84v0.84h-0.84zm0.84 0h0.84v0.84h-0.84zm1.68 0h0.84v0.84h-0.84zm-20.16 0.84h0.84v0.84h-0.84zm1.68 0h0.84v0.84h-0.84zm0.84 0h0.84v0.84h-0.84zm0.84 0h0.84v0.84h-0.84zm1.68 0h0.84v0.84h-0.84zm2.52 0h0.84v0.84h-0.84zm3.36 0h0.84v0.84h-0.84zm2.52 0h0.84v0.84h-0.84zm1.68 0h0.84v0.84h-0.84zm1.68 0h0.84v0.84h-0.84zm0.84 0h0.84v0.84h-0.84zm0.84 0h0.84v0.84h-0.84zm1.68 0h0.84v0.84h-0.84zm-20.16 0.84h0.84v0.84h-0.84zm5.04 0h0.84v0.84h-0.84zm1.68 0h0.84v0.84h-0.84zm0.84 0h0.84v0.84h-0.84zm1.68 0h0.84v0.84h-0.84zm0.84 0h0.84v0.84h-0.84zm0.84 0h0.84v0.84h-0.84zm0.84 0h0.84v0.84h-0.84zm0.84 0h0.84v0.84h-0.84zm0.84 0h0.84v0.84h-0.84zm1.68 0h0.84v0.84h-0.84zm5.04 0h0.84v0.84h-0.84zm-20.16 0.84h0.84v0.84h-0.84zm0.84 0h0.84v0.84h-0.84zm0.84 0h0.84v0.84h-0.84zm0.84 0h0.84v0.84h-0.84zm0.84 0h0.84v0.84h-0.84zm0.84 0h0.84v0.84h-0.84zm0.84 0h0.84v0.84h-0.84zm1.68 0h0.84v0.84h-0.84zm1.68 0h0.84v0.84h-0.84zm1.68 0h0.84v0.84h-0.84zm1.68 0h0.84v0.84h-0.84zm1.68 0h0.84v0.84h-0.84zm1.68 0h0.84v0.84h-0.84zm0.84 0h0.84v0.84h-0.84zm0.84 0h0.84v0.84h-0.84zm0.84 0h0.84v0.84h-0.84zm0.84 0h0.84v0.84h-0.84zm0.84 0h0.84v0.84h-0.84zm0.84 0h0.84v0.84h-0.84zm-12.6 0.84h0.84v0.84h-0.84zm0.84 0h0.84v0.84h-0.84zm0.84 0h0.84v0.84h-0.84zm3.36 0h0.84v0.84h-0.84zm0.84 0h0.84v0.84h-0.84zm-13.44 0.84h0.84v0.84h-0.84zm0.84 0h0.84v0.84h-0.84zm0.84 0h0.84v0.84h-0.84zm0.84 0h0.84v0.84h-0.84zm0.84 0h0.84v0.84h-0.84zm1.68 0h0.84v0.84h-0.84zm0.84 0h0.84v0.84h-0.84zm0.84 0h0.84v0.84h-0.84zm0.84 0h0.84v0.84h-0.84zm1.68 0h0.84v0.84h-0.84zm1.68 0h0.84v0.84h-0.84zm0.84 0h0.84v0.84h-0.84zm0.84 0h0.84v0.84h-0.84zm1.68 0h0.84v0.84h-0.84zm1.68 0h0.84v0.84h-0.84zm1.68 0h0.84v0.84h-0.84zm1.68 0h0.84v0.84h-0.84zm-19.32 0.84h0.84v0.84h-0.84zm1.68 0h0.84v0.84h-0.84zm2.52 0h0.84v0.84h-0.84zm2.52 0h0.84v0.84h-0.84zm1.68 0h0.84v0.84h-0.84zm1.68 0h0.84v0.84h-0.84zm3.36 0h0.84v0.84h-0.84zm0.84 0h0.84v0.84h-0.84zm1.68 0h0.84v0.84h-0.84zm3.36 0h0.84v0.84h-0.84zm-19.32 0.84h0.84v0.84h-0.84zm0.84 0h0.84v0.84h-0.84zm2.52 0h0.84v0.84h-0.84zm1.68 0h0.84v0.84h-0.84zm1.68 0h0.84v0.84h-0.84zm1.68 0h0.84v0.84h-0.84zm2.52 0h0.84v0.84h-0.84zm1.68 0h0.84v0.84h-0.84zm1.68 0h0.84v0.84h-0.84zm0.84 0h0.84v0.84h-0.84zm0.84 0h0.84v0.84h-0.84zm0.84 0h0.84v0.84h-0.84zm0.84 0h0.84v0.84h-0.84zm1.68 0h0.84v0.84h-0.84zm0.84 0h0.84v0.84h-0.84zm-17.64 0.84h0.84v0.84h-0.84zm3.36 0h0.84v0.84h-0.84zm0.84 0h0.84v0.84h-0.84zm3.36 0h0.84v0.84h-0.84zm1.68 0h0.84v0.84h-0.84zm1.68 0h0.84v0.84h-0.84zm0.84 0h0.84v0.84h-0.84zm1.68 0h0.84v0.84h-0.84zm4.2 0h0.84v0.84h-0.84zm-20.16 0.84h0.84v0.84h-0.84zm1.68 0h0.84v0.84h-0.84zm1.68 0h0.84v0.84h-0.84zm1.68 0h0.84v0.84h-0.84zm1.68 0h0.84v0.84h-0.84zm0.84 0h0.84v0.84h-0.84zm0.84 0h0.84v0.84h-0.84zm1.68 0h0.84v0.84h-0.84zm0.84 0h0.84v0.84h-0.84zm0.84 0h0.84v0.84h-0.84zm0.84 0h0.84v0.84h-0.84zm0.84 0h0.84v0.84h-0.84zm0.84 0h0.84v0.84h-0.84zm0.84 0h0.84v0.84h-0.84zm0.84 0h0.84v0.84h-0.84zm0.84 0h0.84v0.84h-0.84zm1.68 0h0.84v0.84h-0.84zm0.84 0h0.84v0.84h-0.84zm0.84 0h0.84v0.84h-0.84zm-20.16 0.84h0.84v0.84h-0.84zm0.84 0h0.84v0.84h-0.84zm0.84 0h0.84v0.84h-0.84zm0.84 0h0.84v0.84h-0.84zm1.68 0h0.84v0.84h-0.84zm1.68 0h0.84v0.84h-0.84zm5.04 0h0.84v0.84h-0.84zm2.52 0h0.84v0.84h-0.84zm0.84 0h0.84v0.84h-0.84zm1.68 0h0.84v0.84h-0.84zm1.68 0h0.84v0.84h-0.84zm1.68 0h0.84v0.84h-0.84zm-19.32 0.84h0.84v0.84h-0.84zm1.68 0h0.84v0.84h-0.84zm2.52 0h0.84v0.84h-0.84zm0.84 0h0.84v0.84h-0.84zm0.84 0h0.84v0.84h-0.84zm2.52 0h0.84v0.84h-0.84zm0.84 0h0.84v0.84h-0.84zm0.84 0h0.84v0.84h-0.84zm0.84 0h0.84v0.84h-0.84zm0.84 0h0.84v0.84h-0.84zm0.84 0h0.84v0.84h-0.84zm0.84 0h0.84v0.84h-0.84zm0.84 0h0.84v0.84h-0.84zm0.84 0h0.84v0.84h-0.84zm0.84 0h0.84v0.84h-0.84zm0.84 0h0.84v0.84h-0.84zm0.84 0h0.84v0.84h-0.84zm1.68 0h0.84v0.84h-0.84zm0.84 0h0.84v0.84h-0.84zm-20.16 0.84h0.84v0.84h-0.84zm2.52 0h0.84v0.84h-0.84zm0.84 0h0.84v0.84h-0.84zm5.88 0h0.84v0.84h-0.84zm2.52 0h0.84v0.84h-0.84zm1.68 0h0.84v0.84h-0.84zm0.84 0h0.84v0.84h-0.84zm1.68 0h0.84v0.84h-0.84zm0.84 0h0.84v0.84h-0.84zm3.36 0h0.84v0.84h-0.84zm-20.16 0.84h0.84v0.84h-0.84zm2.52 0h0.84v0.84h-0.84zm1.68 0h0.84v0.84h-0.84zm0.84 0h0.84v0.84h-0.84zm0.84 0h0.84v0.84h-0.84zm2.52 0h0.84v0.84h-0.84zm0.84 0h0.84v0.84h-0.84zm1.68 0h0.84v0.84h-0.84zm0.84 0h0.84v0.84h-0.84zm1.68 0h0.84v0.84h-0.84zm0.84 0h0.84v0.84h-0.84zm0.84 0h0.84v0.84h-0.84zm0.84 0h0.84v0.84h-0.84zm0.84 0h0.84v0.84h-0.84zm1.68 0h0.84v0.84h-0.84zm-11.76 0.84h0.84v0.84h-0.84zm0.84 0h0.84v0.84h-0.84zm0.84 0h0.84v0.84h-0.84zm1.68 0h0.84v0.84h-0.84zm0.84 0h0.84v0.84h-0.84zm1.68 0h0.84v0.84h-0.84zm0.84 0h0.84v0.84h-0.84zm3.36 0h0.84v0.84h-0.84zm0.84 0h0.84v0.84h-0.84zm-17.64 0.84h0.84v0.84h-0.84zm0.84 0h0.84v0.84h-0.84zm0.84 0h0.84v0.84h-0.84zm0.84 0h0.84v0.84h-0.84zm0.84 0h0.84v0.84h-0.84zm0.84 0h0.84v0.84h-0.84zm0.84 0h0.84v0.84h-0.84zm1.68 0h0.84v0.84h-0.84zm1.68 0h0.84v0.84h-0.84zm3.36 0h0.84v0.84h-0.84zm1.68 0h0.84v0.84h-0.84zm1.68 0h0.84v0.84h-0.84zm1.68 0h0.84v0.84h-0.84zm1.68 0h0.84v0.84h-0.84zm0.84 0h0.84v0.84h-0.84zm0.84 0h0.84v0.84h-0.84zm-20.16 0.84h0.84v0.84h-0.84zm5.04 0h0.84v0.84h-0.84zm5.04 0h0.84v0.84h-0.84zm1.68 0h0.84v0.84h-0.84zm1.68 0h0.84v0.84h-0.84zm3.36 0h0.84v0.84h-0.84zm0.84 0h0.84v0.84h-0.84zm1.68 0h0.84v0.84h-0.84zm-19.32 0.84h0.84v0.84h-0.84zm1.68 0h0.84v0.84h-0.84zm0.84 0h0.84v0.84h-0.84zm0.84 0h0.84v0.84h-0.84zm1.68 0h0.84v0.84h-0.84zm1.68 0h0.84v0.84h-0.84zm3.36 0h0.84v0.84h-0.84zm0.84 0h0.84v0.84h-0.84zm1.68 0h0.84v0.84h-0.84zm0.84 0h0.84v0.84h-0.84zm0.84 0h0.84v0.84h-0.84zm0.84 0h0.84v0.84h-0.84zm0.84 0h0.84v0.84h-0.84zm0.84 0h0.84v0.84h-0.84zm1.68 0h0.84v0.84h-0.84zm0.84 0h0.84v0.84h-0.84zm0.84 0h0.84v0.84h-0.84zm-20.16 0.84h0.84v0.84h-0.84zm1.68 0h0.84v0.84h-0.84zm0.84 0h0.84v0.84h-0.84zm0.84 0h0.84v0.84h-0.84zm1.68 0h0.84v0.84h-0.84zm1.68 0h0.84v0.84h-0.84zm1.68 0h0.84v0.84h-0.84zm2.52 0h0.84v0.84h-0.84zm1.68 0h0.84v0.84h-0.84zm0.84 0h0.84v0.84h-0.84zm1.68 0h0.84v0.84h-0.84zm1.68 0h0.84v0.84h-0.84zm0.84 0h0.84v0.84h-0.84zm0.84 0h0.84v0.84h-0.84zm0.84 0h0.84v0.84h-0.84zm0.84 0h0.84v0.84h-0.84zm-20.16 0.84h0.84v0.84h-0.84zm1.68 0h0.84v0.84h-0.84zm0.84 0h0.84v0.84h-0.84zm0.84 0h0.84v0.84h-0.84zm1.68 0h0.84v0.84h-0.84zm1.68 0h0.84v0.84h-0.84zm2.52 0h0.84v0.84h-0.84zm0.84 0h0.84v0.84h-0.84zm0.84 0h0.84v0.84h-0.84zm0.84 0h0.84v0.84h-0.84zm0.84 0h0.84v0.84h-0.84zm5.04 0h0.84v0.84h-0.84zm0.84 0h0.84v0.84h-0.84zm1.68 0h0.84v0.84h-0.84zm-20.16 0.84h0.84v0.84h-0.84zm5.04 0h0.84v0.84h-0.84zm1.68 0h0.84v0.84h-0.84zm2.52 0h0.84v0.84h-0.84zm2.52 0h0.84v0.84h-0.84zm1.68 0h0.84v0.84h-0.84zm0.84 0h0.84v0.84h-0.84zm1.68 0h0.84v0.84h-0.84zm0.84 0h0.84v0.84h-0.84zm0.84 0h0.84v0.84h-0.84zm2.52 0h0.84v0.84h-0.84zm-20.16 0.84h0.84v0.84h-0.84zm0.84 0h0.84v0.84h-0.84zm0.84 0h0.84v0.84h-0.84zm0.84 0h0.84v0.84h-0.84zm0.84 0h0.84v0.84h-0.84zm0.84 0h0.84v0.84h-0.84zm0.84 0h0.84v0.84h-0.84zm1.68 0h0.84v0.84h-0.84zm2.52 0h0.84v0.84h-0.84zm0.84 0h0.84v0.84h-0.84zm5.88 0h0.84v0.84h-0.84zm0.84 0h0.84v0.84h-0.84zm0.84 0h0.84v0.84h-0.84zm0.84 0h0.84v0.84h-0.84zm0.84 0h0.84v0.84h-0.84zm0.84 0h0.84v0.84h-0.84z"
     id="path2"
     style="fill:#000000;fill-opacity:1" />
</svg>
