<?xml version="1.0" encoding="UTF-8" standalone="no"?>
<svg
   xmlns:dc="http://purl.org/dc/elements/1.1/"
   xmlns:cc="http://creativecommons.org/ns#"
   xmlns:rdf="http://www.w3.org/1999/02/22-rdf-syntax-ns#"
   xmlns:svg="http://www.w3.org/2000/svg"
   xmlns="http://www.w3.org/2000/svg"
   xmlns:sodipodi="http://sodipodi.sourceforge.net/DTD/sodipodi-0.dtd"
   xmlns:inkscape="http://www.inkscape.org/namespaces/inkscape"
   width="16"
   height="16"
   viewBox="0 0 16 16"
   id="ReferenceRun"
   version="1.1"
   sodipodi:docname="ReferenceRun.icon.svg"
   inkscape:version="1.0.1 (3bc2e813f5, 2020-09-07)">
  <metadata
     id="metadata9">
    <rdf:RDF>
      <cc:Work
         rdf:about="">
        <dc:format>image/svg+xml</dc:format>
        <dc:type
           rdf:resource="http://purl.org/dc/dcmitype/StillImage" />
      </cc:Work>
    </rdf:RDF>
  </metadata>
  <defs
     id="defs7" />
  <sodipodi:namedview
     pagecolor="#ffffff"
     bordercolor="#666666"
     borderopacity="1"
     objecttolerance="10"
     gridtolerance="10"
     guidetolerance="10"
     inkscape:pageopacity="0"
     inkscape:pageshadow="2"
     inkscape:window-width="840"
     inkscape:window-height="480"
     id="namedview5"
     showgrid="false"
     inkscape:zoom="45.9375"
     inkscape:cx="8"
     inkscape:cy="8"
     inkscape:window-x="0"
     inkscape:window-y="0"
     inkscape:window-maximized="0"
     inkscape:current-layer="ReferenceRun" />
  <path
     class="iconStroke"
     d="M 12 1 A 3 3 0 0 0 9 4 A 3 3 0 0 0 9.3769531 5.4394531 L 9.3671875 5.4394531 L 12 9.890625 L 12 9.7910156 L 12.878906 8.2929688 L 14.490234 5.6660156 A 3 3 0 0 0 14.572266 5.53125 L 14.650391 5.4042969 L 14.642578 5.4042969 A 3 3 0 0 0 15 4 A 3 3 0 0 0 12 1 z M 12 1.8574219 A 2 2 0 0 1 14 3.8574219 A 2 2 0 0 1 12 5.8574219 A 2 2 0 0 1 10 3.8574219 A 2 2 0 0 1 12 1.8574219 z M 4 3 L 4 5 L 0 5 L 0 6 L 4 6 L 4 8 L 8 5.5 L 4 3 z M 0 10.5 L 0 11.5 L 0.5 11.5 L 0.5 15 L 1.5 15 L 1.5 11.5 L 3 11.5 L 3 14 L 4 14 L 4 11.5 L 5.5 11.5 L 5.5 15 L 6.5 15 L 6.5 11.5 L 8 11.5 L 8 14 L 9 14 L 9 11.5 L 10.5 11.5 L 10.5 15 L 11.5 15 L 11.5 11.5 L 12.732422 11.5 L 13 11.662109 L 13 14 L 14 14 L 14 12.269531 L 16 13.488281 L 16 12.351562 L 13.013672 10.5 L 9 10.5 L 8 10.5 L 4 10.5 L 3 10.5 L 0 10.5 z "
     id="path2"
     style="fill:#000000;fill-opacity:1" />
</svg>
