<?xml version="1.0" encoding="UTF-8" standalone="no"?>
<svg
   xmlns:dc="http://purl.org/dc/elements/1.1/"
   xmlns:cc="http://creativecommons.org/ns#"
   xmlns:rdf="http://www.w3.org/1999/02/22-rdf-syntax-ns#"
   xmlns:svg="http://www.w3.org/2000/svg"
   xmlns="http://www.w3.org/2000/svg"
   xmlns:sodipodi="http://sodipodi.sourceforge.net/DTD/sodipodi-0.dtd"
   xmlns:inkscape="http://www.inkscape.org/namespaces/inkscape"
   width="16"
   height="16"
   viewBox="0 0 16 16"
   id="ResetFillingLevel"
   version="1.1"
   sodipodi:docname="ResetFillingLevel.icon.svg"
   inkscape:version="1.0.1 (3bc2e813f5, 2020-09-07)">
  <metadata
     id="metadata9">
    <rdf:RDF>
      <cc:Work
         rdf:about="">
        <dc:format>image/svg+xml</dc:format>
        <dc:type
           rdf:resource="http://purl.org/dc/dcmitype/StillImage" />
      </cc:Work>
    </rdf:RDF>
  </metadata>
  <defs
     id="defs7" />
  <sodipodi:namedview
     pagecolor="#ffffff"
     bordercolor="#666666"
     borderopacity="1"
     objecttolerance="10"
     gridtolerance="10"
     guidetolerance="10"
     inkscape:pageopacity="0"
     inkscape:pageshadow="2"
     inkscape:window-width="840"
     inkscape:window-height="480"
     id="namedview5"
     showgrid="false"
     inkscape:zoom="45.9375"
     inkscape:cx="8"
     inkscape:cy="8"
     inkscape:window-x="0"
     inkscape:window-y="0"
     inkscape:window-maximized="0"
     inkscape:current-layer="ResetFillingLevel" />
  <path
     class="iconStroke"
     d="M 7.5 0 L 5 4 L 7 4 L 7.03 6 L 8.03 6 L 8 4 L 10 4 L 7.5 0 z M 0.95 2.66 L 0.05 3.11 L 2 7 L 2 16 L 13 16 L 13 7 L 14.95 3.11 L 14.05 2.66 L 12 6.76 L 12 15 L 3 15 L 3 6.76 L 0.95 2.66 z M 10.88 6.41 L 9.65 7.66 L 8.4 6.43 L 7.7 7.14 L 8.94 8.37 L 7.71 9.61 L 8.43 10.31 L 9.66 9.07 L 10.9 10.3 L 11.6 9.59 L 10.36 8.36 L 11.59 7.11 L 10.88 6.41 z M 6.6 10.73 L 5.37 11.97 L 4.12 10.74 L 3.42 11.46 L 4.67 12.68 L 3.44 13.93 L 4.15 14.63 L 5.38 13.38 L 6.62 14.62 L 7.33 13.9 L 6.08 12.67 L 7.31 11.43 L 6.6 10.73 z M 10.88 10.73 L 9.65 11.97 L 8.4 10.74 L 7.7 11.46 L 8.94 12.68 L 7.71 13.93 L 8.43 14.63 L 9.66 13.38 L 10.9 14.62 L 11.6 13.9 L 10.36 12.67 L 11.59 11.43 L 10.88 10.73 z"
     id="path2"
     style="fill:#000000;fill-opacity:1" />
</svg>
