<?xml version="1.0" encoding="UTF-8" standalone="no"?>
<svg
   xmlns:dc="http://purl.org/dc/elements/1.1/"
   xmlns:cc="http://creativecommons.org/ns#"
   xmlns:rdf="http://www.w3.org/1999/02/22-rdf-syntax-ns#"
   xmlns:svg="http://www.w3.org/2000/svg"
   xmlns="http://www.w3.org/2000/svg"
   xmlns:sodipodi="http://sodipodi.sourceforge.net/DTD/sodipodi-0.dtd"
   xmlns:inkscape="http://www.inkscape.org/namespaces/inkscape"
   width="16"
   height="16"
   viewBox="0 0 16 16"
   id="RunEmptyCarton"
   version="1.1"
   sodipodi:docname="RunEmptyCarton.icon.svg"
   inkscape:version="1.0.1 (3bc2e813f5, 2020-09-07)">
  <metadata
     id="metadata9">
    <rdf:RDF>
      <cc:Work
         rdf:about="">
        <dc:format>image/svg+xml</dc:format>
        <dc:type
           rdf:resource="http://purl.org/dc/dcmitype/StillImage" />
      </cc:Work>
    </rdf:RDF>
  </metadata>
  <defs
     id="defs7" />
  <sodipodi:namedview
     pagecolor="#ffffff"
     bordercolor="#666666"
     borderopacity="1"
     objecttolerance="10"
     gridtolerance="10"
     guidetolerance="10"
     inkscape:pageopacity="0"
     inkscape:pageshadow="2"
     inkscape:window-width="840"
     inkscape:window-height="480"
     id="namedview5"
     showgrid="false"
     inkscape:zoom="45.9375"
     inkscape:cx="8"
     inkscape:cy="8"
     inkscape:window-x="0"
     inkscape:window-y="0"
     inkscape:window-maximized="0"
     inkscape:current-layer="RunEmptyCarton" />
  <path
     class="iconStroke"
     d="M 10.63,-0 9.73,0.46 11,3 v 7 c 0,0 3.89,-0 2.51,0 H 16 v -1 H 12 V 2.76 Z M 13,1 v 3 h 3 v -3 z m -7,0.5 v 2 L 4,3.47 v 1 L 6,4.5 v 2 l 4,-2.5 z m 8,0.5 h 1 v 1 H 14 Z M 0,2.12 v 3.75 L 3,4 Z m 13,2.88 v 3 h 3 v -3 z m 1,1 h 1 v 1 h -1 z m -12.04,2 v 3 H 0 v 1 H 13.51 V 12 C 14.33,12 15,12.67 15,13.5 15,14.32 14.33,15 13.51,15 V 15 H 0 v 1 H 13.51 V 16 C 14.87,16 16,14.88 16,13.5 16.01,12.12 14.89,11 13.51,11 V 11 H 10 v -3 H 9 v 3 H 2.96 v -3 z M 13.5,13 c -0.25,0 -0.5,0.17 -0.5,0.5 0,0.67 1,0.67 1,0 0,-0.33 -0.25,-0.5 -0.5,-0.5 z"
     id="path2"
     style="fill:#000000;fill-opacity:1" />
</svg>
