<?xml version="1.0" encoding="UTF-8" standalone="no"?>
<svg
   xmlns:dc="http://purl.org/dc/elements/1.1/"
   xmlns:cc="http://creativecommons.org/ns#"
   xmlns:rdf="http://www.w3.org/1999/02/22-rdf-syntax-ns#"
   xmlns:svg="http://www.w3.org/2000/svg"
   xmlns="http://www.w3.org/2000/svg"
   xmlns:sodipodi="http://sodipodi.sourceforge.net/DTD/sodipodi-0.dtd"
   xmlns:inkscape="http://www.inkscape.org/namespaces/inkscape"
   viewBox="0 0 16 16"
   width="16"
   height="16"
   version="1.1"
   id="svg4"
   sodipodi:docname="sealtime.icon.svg"
   inkscape:version="1.0.1 (3bc2e813f5, 2020-09-07)">
  <metadata
     id="metadata10">
    <rdf:RDF>
      <cc:Work
         rdf:about="">
        <dc:format>image/svg+xml</dc:format>
        <dc:type
           rdf:resource="http://purl.org/dc/dcmitype/StillImage" />
      </cc:Work>
    </rdf:RDF>
  </metadata>
  <defs
     id="defs8" />
  <sodipodi:namedview
     pagecolor="#ffffff"
     bordercolor="#666666"
     borderopacity="1"
     objecttolerance="10"
     gridtolerance="10"
     guidetolerance="10"
     inkscape:pageopacity="0"
     inkscape:pageshadow="2"
     inkscape:window-width="840"
     inkscape:window-height="480"
     id="namedview6"
     showgrid="false"
     inkscape:zoom="45.9375"
     inkscape:cx="8"
     inkscape:cy="8"
     inkscape:window-x="0"
     inkscape:window-y="0"
     inkscape:window-maximized="0"
     inkscape:current-layer="svg4" />
  <path
     class="iconStroke"
     fill-rule="evenodd"
     d="M10 10.5V6h1v4h3v1h-4v-.5zm-4.994 1.445h1.06c.706 1.806 2.367 3.065 4.287 3.065 2.552 0 4.647-2.225 4.647-5 0-2.774-2.095-5-4.647-5-.43 0-.847.063-1.243.181V4.156c.4-.096.816-.146 1.243-.146 3.119 0 5.647 2.686 5.647 6s-2.528 6-5.647 6c-2.482 0-4.59-1.7-5.347-4.065zM6.031.515L6.844.01a10.236 10.236 0 0 1 .788 1.132c.294.494.524.979.662 1.442.094.314.143.612.143.893 0 .655-.211 1.128-.745 1.936l-.07.107c-.515.776-.684 1.148-.684 1.672 0 1.238.587 2.479 1.352 3.137l-.705.612c-.955-.82-1.647-2.283-1.647-3.749 0-.72.22-1.201.816-2.102l.07-.105c.452-.686.614-1.046.614-1.508a2.4 2.4 0 0 0-.112-.677 5.716 5.716 0 0 0-.583-1.26A9.4 9.4 0 0 0 6.031.513zm-2.937 0L3.906.01a10.236 10.236 0 0 1 .788 1.132c.295.494.524.979.662 1.442.094.314.144.612.144.893 0 .655-.212 1.128-.745 1.936l-.071.107C4.17 6.296 4 6.668 4 7.192c0 1.238.588 2.479 1.353 3.137l-.706.612C3.692 10.121 3 8.658 3 7.192c0-.72.22-1.201.816-2.102l.07-.105c.453-.686.614-1.046.614-1.508a2.4 2.4 0 0 0-.112-.677 5.716 5.716 0 0 0-.582-1.26A9.4 9.4 0 0 0 3.094.513zm-3 0L.906.01a10.236 10.236 0 0 1 .788 1.132c.295.494.524.979.662 1.442.094.314.144.612.144.893 0 .655-.212 1.128-.745 1.936l-.071.107C1.17 6.296 1 6.668 1 7.192c0 1.238.588 2.479 1.353 3.137l-.706.612C.692 10.121 0 8.658 0 7.192c0-.72.22-1.201.816-2.102l.07-.105c.453-.686.614-1.046.614-1.508a2.4 2.4 0 0 0-.112-.677 5.716 5.716 0 0 0-.582-1.26A9.4 9.4 0 0 0 .094.513z"
     id="path2"
     style="fill:#000000;fill-opacity:1" />
</svg>
