<?xml version="1.0" encoding="UTF-8" standalone="no"?>
<svg
   xmlns:dc="http://purl.org/dc/elements/1.1/"
   xmlns:cc="http://creativecommons.org/ns#"
   xmlns:rdf="http://www.w3.org/1999/02/22-rdf-syntax-ns#"
   xmlns:svg="http://www.w3.org/2000/svg"
   xmlns="http://www.w3.org/2000/svg"
   xmlns:sodipodi="http://sodipodi.sourceforge.net/DTD/sodipodi-0.dtd"
   xmlns:inkscape="http://www.inkscape.org/namespaces/inkscape"
   width="16"
   height="16"
   viewBox="0 0 16 16"
   id="SingleCycleCarton"
   version="1.1"
   sodipodi:docname="SingleCycleCarton.icon.svg"
   inkscape:version="1.0.1 (3bc2e813f5, 2020-09-07)">
  <metadata
     id="metadata9">
    <rdf:RDF>
      <cc:Work
         rdf:about="">
        <dc:format>image/svg+xml</dc:format>
        <dc:type
           rdf:resource="http://purl.org/dc/dcmitype/StillImage" />
      </cc:Work>
    </rdf:RDF>
  </metadata>
  <defs
     id="defs7" />
  <sodipodi:namedview
     pagecolor="#ffffff"
     bordercolor="#666666"
     borderopacity="1"
     objecttolerance="10"
     gridtolerance="10"
     guidetolerance="10"
     inkscape:pageopacity="0"
     inkscape:pageshadow="2"
     inkscape:window-width="840"
     inkscape:window-height="480"
     id="namedview5"
     showgrid="false"
     inkscape:zoom="45.9375"
     inkscape:cx="8"
     inkscape:cy="8"
     inkscape:window-x="0"
     inkscape:window-y="0"
     inkscape:window-maximized="0"
     inkscape:current-layer="SingleCycleCarton" />
  <path
     class="iconStroke"
     d="M 11.03,0 10.14,0.45 11.02,2 v 8 c 0,0 3.89,-0 2.51,0 h 2.49 V 9 h -4 V 1.76 Z M 2,1 0,3 0.64,3.76 2,2.47 2.03,7 h 1 L 3,1 Z M 13.02,1 v 3 h 3 V 1 Z m -7.03,0.5 v 2 l -2,-0.03 v 1 l 2,0.03 v 2 l 4,-2.5 z M 14.02,2 h 1 v 1 h -1 z m -1,3 v 3 h 3 V 5 Z m 1,1 h 1 v 1 h -1 z m -12,2 v 3.05 c -1.14,0.23 -2,1.24 -2,2.45 0,1.38 1.13,2.5 2.49,2.5 h 3.51 4 3.51 c 1.37,0 2.49,-1.12 2.49,-2.5 0.01,-1.38 -1.11,-2.5 -2.49,-2.5 H 10.02 V 8 h -1 v 3 h -3 -3 V 8 Z m 0.49,4 h 3.51 4 3.51 c 0.83,0 1.49,0.67 1.49,1.5 0,0.82 -0.68,1.5 -1.49,1.5 h -3.51 -4 -3.51 c -0.82,0 -1.49,-0.68 -1.49,-1.5 0,-0.83 0.67,-1.5 1.49,-1.5 z m 0.01,1 c -0.25,0 -0.5,0.17 -0.5,0.5 0,0.67 1,0.67 1,0 0,-0.33 -0.25,-0.5 -0.5,-0.5 z m 11,0 c -0.25,0 -0.5,0.17 -0.5,0.5 0,0.67 1,0.67 1,0 0,-0.33 -0.25,-0.5 -0.5,-0.5 z"
     id="path2"
     style="fill:#000000;fill-opacity:1" />
</svg>
