<?xml version="1.0" encoding="UTF-8" standalone="no"?>
<svg
   xmlns:dc="http://purl.org/dc/elements/1.1/"
   xmlns:cc="http://creativecommons.org/ns#"
   xmlns:rdf="http://www.w3.org/1999/02/22-rdf-syntax-ns#"
   xmlns:svg="http://www.w3.org/2000/svg"
   xmlns="http://www.w3.org/2000/svg"
   xmlns:sodipodi="http://sodipodi.sourceforge.net/DTD/sodipodi-0.dtd"
   xmlns:inkscape="http://www.inkscape.org/namespaces/inkscape"
   width="16"
   height="12"
   viewBox="0 0 16 12"
   version="1.1"
   id="svg4"
   sodipodi:docname="single-shot.icon.svg"
   inkscape:version="1.0.1 (3bc2e813f5, 2020-09-07)">
  <metadata
     id="metadata10">
    <rdf:RDF>
      <cc:Work
         rdf:about="">
        <dc:format>image/svg+xml</dc:format>
        <dc:type
           rdf:resource="http://purl.org/dc/dcmitype/StillImage" />
      </cc:Work>
    </rdf:RDF>
  </metadata>
  <defs
     id="defs8" />
  <sodipodi:namedview
     pagecolor="#ffffff"
     bordercolor="#666666"
     borderopacity="1"
     objecttolerance="10"
     gridtolerance="10"
     guidetolerance="10"
     inkscape:pageopacity="0"
     inkscape:pageshadow="2"
     inkscape:window-width="840"
     inkscape:window-height="480"
     id="namedview6"
     showgrid="false"
     inkscape:zoom="61.25"
     inkscape:cx="8"
     inkscape:cy="6"
     inkscape:window-x="0"
     inkscape:window-y="0"
     inkscape:window-maximized="0"
     inkscape:current-layer="svg4" />
  <path
     d="M5 4H1.994A.997.997 0 0 0 1 4.997v5.006c0 .55.446.997.994.997h12.012a.997.997 0 0 0 .994-.997V4.997A.997.997 0 0 0 14.006 4H11V2c0-.557-.444-1-.998-1H5.998A.994.994 0 0 0 5 2v2zM4 3V2c0-1.105.887-2 1.998-2h4.004C11.105 0 12 .888 12 2v1h2.006C15.107 3 16 3.896 16 4.997v5.006A1.997 1.997 0 0 1 14.006 12H1.994A1.997 1.997 0 0 1 0 10.003V4.997C0 3.894.895 3 1.994 3H4zm4 7.5a3.5 3.5 0 1 0 0-7 3.5 3.5 0 0 0 0 7zm0-1a2.5 2.5 0 1 1 0-5 2.5 2.5 0 0 1 0 5z"
     class="iconStroke"
     id="path2"
     style="fill:#000000;fill-opacity:1" />
</svg>
