<?xml version="1.0" encoding="UTF-8" standalone="no"?>
<svg
   xmlns:dc="http://purl.org/dc/elements/1.1/"
   xmlns:cc="http://creativecommons.org/ns#"
   xmlns:rdf="http://www.w3.org/1999/02/22-rdf-syntax-ns#"
   xmlns:svg="http://www.w3.org/2000/svg"
   xmlns="http://www.w3.org/2000/svg"
   xmlns:sodipodi="http://sodipodi.sourceforge.net/DTD/sodipodi-0.dtd"
   xmlns:inkscape="http://www.inkscape.org/namespaces/inkscape"
   viewBox="0 0 16 16"
   width="16"
   height="16"
   version="1.1"
   id="svg4"
   sodipodi:docname="slidercyclechain.icon.svg"
   inkscape:version="1.0.1 (3bc2e813f5, 2020-09-07)">
  <metadata
     id="metadata10">
    <rdf:RDF>
      <cc:Work
         rdf:about="">
        <dc:format>image/svg+xml</dc:format>
        <dc:type
           rdf:resource="http://purl.org/dc/dcmitype/StillImage" />
      </cc:Work>
    </rdf:RDF>
  </metadata>
  <defs
     id="defs8" />
  <sodipodi:namedview
     pagecolor="#ffffff"
     bordercolor="#666666"
     borderopacity="1"
     objecttolerance="10"
     gridtolerance="10"
     guidetolerance="10"
     inkscape:pageopacity="0"
     inkscape:pageshadow="2"
     inkscape:window-width="840"
     inkscape:window-height="480"
     id="namedview6"
     showgrid="false"
     inkscape:zoom="45.9375"
     inkscape:cx="8"
     inkscape:cy="8"
     inkscape:window-x="0"
     inkscape:window-y="0"
     inkscape:window-maximized="0"
     inkscape:current-layer="svg4" />
  <path
     class="iconStroke"
     fill-rule="evenodd"
     d="M16 2H4v1h12v1h-5v4h-1V4H7v4H6V4H3V1h13v1zm-4 8V6h1v4c.344 0 .674.058.982.164L15.232 8l.767.443.006.216-1.146 1.986A3 3 0 0 1 13 16H5a3.001 3.001 0 0 1-2.83-2H0v-1h2c0-.648.205-1.248.555-1.738L.5 9.207l.707-.707 2.055 2.055c.225-.16.473-.29.738-.384V6h1v4h3V6h1v4H8h4zm-7 1a2 2 0 1 0 0 4h8a2 2 0 1 0 0-4H5zm8 3a1 1 0 1 1 0-2 1 1 0 0 1 0 2zm-8 0a1 1 0 1 1 0-2 1 1 0 0 1 0 2z"
     id="path2"
     style="fill:#000000;fill-opacity:1" />
</svg>
