<?xml version="1.0" encoding="UTF-8" standalone="no"?>
<svg
   xmlns:dc="http://purl.org/dc/elements/1.1/"
   xmlns:cc="http://creativecommons.org/ns#"
   xmlns:rdf="http://www.w3.org/1999/02/22-rdf-syntax-ns#"
   xmlns:svg="http://www.w3.org/2000/svg"
   xmlns="http://www.w3.org/2000/svg"
   xmlns:sodipodi="http://sodipodi.sourceforge.net/DTD/sodipodi-0.dtd"
   xmlns:inkscape="http://www.inkscape.org/namespaces/inkscape"
   viewBox="0 0 16 16"
   width="16"
   height="16"
   version="1.1"
   id="svg4"
   sodipodi:docname="start_extern.icon.svg"
   inkscape:version="1.0.1 (3bc2e813f5, 2020-09-07)">
  <metadata
     id="metadata10">
    <rdf:RDF>
      <cc:Work
         rdf:about="">
        <dc:format>image/svg+xml</dc:format>
        <dc:type
           rdf:resource="http://purl.org/dc/dcmitype/StillImage" />
      </cc:Work>
    </rdf:RDF>
  </metadata>
  <defs
     id="defs8" />
  <sodipodi:namedview
     pagecolor="#ffffff"
     bordercolor="#666666"
     borderopacity="1"
     objecttolerance="10"
     gridtolerance="10"
     guidetolerance="10"
     inkscape:pageopacity="0"
     inkscape:pageshadow="2"
     inkscape:window-width="840"
     inkscape:window-height="480"
     id="namedview6"
     showgrid="false"
     inkscape:zoom="45.9375"
     inkscape:cx="8"
     inkscape:cy="8"
     inkscape:window-x="0"
     inkscape:window-y="0"
     inkscape:window-maximized="0"
     inkscape:current-layer="svg4" />
  <path
     class="iconStroke"
     fill-rule="evenodd"
     d="M5 11.5a3.5 3.5 0 1 0 7 0 3.5 3.5 0 0 0-7 0zm6 0c0 1.379-1.121 2.5-2.5 2.5A2.503 2.503 0 0 1 6 11.5C6 10.121 7.122 9 8.5 9c1.379 0 2.5 1.121 2.5 2.5zM4.486 7.384l-.64-.769A6.975 6.975 0 0 1 8.32 5c1.658 0 3.228.579 4.475 1.617l-.64.769A5.97 5.97 0 0 0 8.32 6c-1.42 0-2.763.495-3.833 1.384zM2.639 6.035L2 5.266A9.788 9.788 0 0 1 8.28 3c2.327 0 4.531.812 6.282 2.27l-.64.768A8.787 8.787 0 0 0 8.28 4c-2.09 0-4.068.728-5.64 2.036zm-2-1.262L0 4.003A12.967 12.967 0 0 1 8.318 1C11.4 1 13.679 1.665 16 3.596v1.18A11.966 11.966 0 0 0 8.318 2C5.473 2 2.782 2.991.639 4.773z"
     id="path2"
     style="fill:#000000;fill-opacity:1" />
</svg>
