<?xml version="1.0" encoding="UTF-8" standalone="no"?>
<svg
   xmlns:dc="http://purl.org/dc/elements/1.1/"
   xmlns:cc="http://creativecommons.org/ns#"
   xmlns:rdf="http://www.w3.org/1999/02/22-rdf-syntax-ns#"
   xmlns:svg="http://www.w3.org/2000/svg"
   xmlns="http://www.w3.org/2000/svg"
   xmlns:sodipodi="http://sodipodi.sourceforge.net/DTD/sodipodi-0.dtd"
   xmlns:inkscape="http://www.inkscape.org/namespaces/inkscape"
   viewBox="0 0 16 16"
   width="16"
   height="16"
   version="1.1"
   id="svg4"
   sodipodi:docname="startup.icon.svg"
   inkscape:version="1.0.1 (3bc2e813f5, 2020-09-07)">
  <metadata
     id="metadata10">
    <rdf:RDF>
      <cc:Work
         rdf:about="">
        <dc:format>image/svg+xml</dc:format>
        <dc:type
           rdf:resource="http://purl.org/dc/dcmitype/StillImage" />
      </cc:Work>
    </rdf:RDF>
  </metadata>
  <defs
     id="defs8" />
  <sodipodi:namedview
     pagecolor="#ffffff"
     bordercolor="#666666"
     borderopacity="1"
     objecttolerance="10"
     gridtolerance="10"
     guidetolerance="10"
     inkscape:pageopacity="0"
     inkscape:pageshadow="2"
     inkscape:window-width="840"
     inkscape:window-height="480"
     id="namedview6"
     showgrid="false"
     inkscape:zoom="45.9375"
     inkscape:cx="8"
     inkscape:cy="8"
     inkscape:window-x="0"
     inkscape:window-y="0"
     inkscape:window-maximized="0"
     inkscape:current-layer="svg4" />
  <path
     class="iconStroke"
     d="M3.993 13.74A7 7 0 1 0 1 8c0 .999.146 1.822.476 2.6l1.747-1.747a4.5 4.5 0 0 1 4.804-5.825l.76.087-1.668 2.88 1.958 1.881 2.846-1.565.072.757a4.5 4.5 0 0 1-5.999 4.668l-2.003 2.005zm-1.385-.013l-.008-.008.224-.224c.076-.08.157-.161.227-.227l2.716-2.716.315.142a3.5 3.5 0 0 0 4.903-2.725l-2.07 1.137-3.054-2.932 1.244-2.15a3.5 3.5 0 0 0-2.84 4.774l.122.306-3.18 3.18-.143-.336-.012.007C.32 10.752 0 9.537 0 8a8 8 0 1 1 8 8c-2.138 0-3.968-.727-5.456-2.203l.064-.07z"
     id="path2"
     style="fill:#000000;fill-opacity:1" />
</svg>
