<?xml version="1.0" encoding="UTF-8" standalone="no"?>
<svg
   xmlns:dc="http://purl.org/dc/elements/1.1/"
   xmlns:cc="http://creativecommons.org/ns#"
   xmlns:rdf="http://www.w3.org/1999/02/22-rdf-syntax-ns#"
   xmlns:svg="http://www.w3.org/2000/svg"
   xmlns="http://www.w3.org/2000/svg"
   xmlns:sodipodi="http://sodipodi.sourceforge.net/DTD/sodipodi-0.dtd"
   xmlns:inkscape="http://www.inkscape.org/namespaces/inkscape"
   width="54.999744mm"
   height="30.000237mm"
   viewBox="0 0 54.999744 30.000237"
   version="1.1"
   id="svg3642"
   inkscape:version="1.0.1 (3bc2e813f5, 2020-09-07)"
   sodipodi:docname="switch_off.svg">
  <defs
     id="defs3636" />
  <sodipodi:namedview
     id="base"
     pagecolor="#ffffff"
     bordercolor="#666666"
     borderopacity="1.0"
     inkscape:pageopacity="0.0"
     inkscape:pageshadow="2"
     inkscape:zoom="0.35"
     inkscape:cx="312.50795"
     inkscape:cy="239.55051"
     inkscape:document-units="mm"
     inkscape:current-layer="layer1"
     inkscape:document-rotation="0"
     showgrid="false"
     fit-margin-top="0"
     fit-margin-left="0"
     fit-margin-right="0"
     fit-margin-bottom="0"
     inkscape:window-width="1313"
     inkscape:window-height="977"
     inkscape:window-x="6656"
     inkscape:window-y="1069"
     inkscape:window-maximized="0" />
  <metadata
     id="metadata3639">
    <rdf:RDF>
      <cc:Work
         rdf:about="">
        <dc:format>image/svg+xml</dc:format>
        <dc:type
           rdf:resource="http://purl.org/dc/dcmitype/StillImage" />
        <dc:title></dc:title>
      </cc:Work>
    </rdf:RDF>
  </metadata>
  <g
     inkscape:label="Ebene 1"
     inkscape:groupmode="layer"
     id="layer1"
     transform="translate(-23.148937,-84.785595)">
    <g
       id="g920"
       transform="translate(-15.789817,-11.140075)">
      <g
         id="g879"
         transform="translate(0,0.3271885)">
        <path
           id="path833-9"
           style="fill:#000000;stroke-width:0.193161"
           d="m 46.938782,102.59857 a 7.9999999,7.9999999 0 0 0 -8.000028,8.00003 7.9999999,7.9999999 0 0 0 8.000028,8.00003 h 39.000205 a 7.9999999,7.9999999 0 0 0 7.999513,-8.00003 7.9999999,7.9999999 0 0 0 -7.999513,-8.00003 z m -0.499711,0.49971 h 0.445968 0.05374 38.499979 v 0.017 a 7.5000001,7.5000001 0 0 1 0.500223,-0.017 7.5000001,7.5000001 0 0 1 7.499806,7.49981 7.5000001,7.5000001 0 0 1 -7.499806,7.50031 7.5000001,7.5000001 0 0 1 -0.500223,-0.017 v 0.017 H 46.938782 46.439071 v -0.017 a 7.5000001,7.5000001 0 0 1 -7.000089,-7.48326 7.5000001,7.5000001 0 0 1 7.000089,-7.48275 z" />
        <path
           id="path890-9"
           style="fill:#ffffff;fill-opacity:1;stroke-width:0.435142"
           d="m 46.438818,103.09864 v 0.017 a 7.5000001,7.5000001 0 0 0 -7.00009,7.48275 7.5000001,7.5000001 0 0 0 7.00009,7.48327 v 0.017 h 0.49971 38.499967 v -0.017 a 7.5000001,7.5000001 0 0 0 0.50024,0.017 7.5000001,7.5000001 0 0 0 7.49979,-7.50032 7.5000001,7.5000001 0 0 0 -7.49979,-7.4998 7.5000001,7.5000001 0 0 0 -0.50024,0.017 v -0.017 h -38.499967 -0.05374 z" />
      </g>
      <g
         id="g883"
         transform="translate(10.035289,31.372024)">
        <path
           id="path919"
           style="fill:#000000;stroke-width:0.435142"
           d="M 43.903066,64.553646 A 15,15 0 0 0 28.903465,79.553764 15,15 0 0 0 43.903066,94.553883 15,15 0 0 0 58.903184,79.553764 15,15 0 0 0 43.903066,64.553646 Z m -0.04702,0.500227 a 14.5,14.5 0 0 1 0.04702,0 A 14.5,14.5 0 0 1 58.403473,79.553764 14.5,14.5 0 0 1 43.903066,94.053653 14.5,14.5 0 0 1 29.403176,79.553764 14.5,14.5 0 0 1 43.856041,65.053873 Z" />
        <circle
           style="fill:#edf0f1;fill-opacity:1;stroke-width:0.420637"
           id="path919-1"
           cx="43.903324"
           cy="79.553764"
           r="14.5" />
      </g>
    </g>
  </g>
</svg>
