<?xml version="1.0" encoding="UTF-8" standalone="no"?>
<svg
   xmlns:dc="http://purl.org/dc/elements/1.1/"
   xmlns:cc="http://creativecommons.org/ns#"
   xmlns:rdf="http://www.w3.org/1999/02/22-rdf-syntax-ns#"
   xmlns:svg="http://www.w3.org/2000/svg"
   xmlns="http://www.w3.org/2000/svg"
   xmlns:sodipodi="http://sodipodi.sourceforge.net/DTD/sodipodi-0.dtd"
   xmlns:inkscape="http://www.inkscape.org/namespaces/inkscape"
   viewBox="0 0 16 16"
   width="16"
   height="16"
   version="1.1"
   id="svg4"
   sodipodi:docname="tintie.icon.svg"
   inkscape:version="1.0.1 (3bc2e813f5, 2020-09-07)">
  <metadata
     id="metadata10">
    <rdf:RDF>
      <cc:Work
         rdf:about="">
        <dc:format>image/svg+xml</dc:format>
        <dc:type
           rdf:resource="http://purl.org/dc/dcmitype/StillImage" />
      </cc:Work>
    </rdf:RDF>
  </metadata>
  <defs
     id="defs8" />
  <sodipodi:namedview
     pagecolor="#ffffff"
     bordercolor="#666666"
     borderopacity="1"
     objecttolerance="10"
     gridtolerance="10"
     guidetolerance="10"
     inkscape:pageopacity="0"
     inkscape:pageshadow="2"
     inkscape:window-width="840"
     inkscape:window-height="480"
     id="namedview6"
     showgrid="false"
     inkscape:zoom="11.484375"
     inkscape:cx="5.2466951"
     inkscape:cy="7.5930288"
     inkscape:window-x="0"
     inkscape:window-y="0"
     inkscape:window-maximized="0"
     inkscape:current-layer="svg4" />
  <path
     class="iconStroke"
     fill-rule="evenodd"
     d="M2.195 0H16v2.955l-2.627.053c-.238 1.428-.452 3.21-.452 4.992 0 4 1.079 8 1.079 8H2s1.144-4 1.144-8c0-1.777-.225-3.553-.476-4.98H0V0h2.195zm1.332 2h8.946a32.2 32.2 0 0 1 .256-1H3.27c.087.318.173.652.256 1zm8.73 1H3.742c.316 1.7.383 3.392.383 5 0 1.842-.088 3.794-.537 5.743-.102.44-.208.861-.317 1.257h9.458a32.433 32.433 0 0 1-.317-1.257c-.45-1.949-.553-3.9-.553-5.743 0-1.608.079-3.3.398-5z"
     id="path2"
     style="fill:#000000;fill-opacity:1" />
</svg>
