<?xml version="1.0" encoding="UTF-8" standalone="no"?>
<svg
   xmlns:dc="http://purl.org/dc/elements/1.1/"
   xmlns:cc="http://creativecommons.org/ns#"
   xmlns:rdf="http://www.w3.org/1999/02/22-rdf-syntax-ns#"
   xmlns:svg="http://www.w3.org/2000/svg"
   xmlns="http://www.w3.org/2000/svg"
   xmlns:sodipodi="http://sodipodi.sourceforge.net/DTD/sodipodi-0.dtd"
   xmlns:inkscape="http://www.inkscape.org/namespaces/inkscape"
   viewBox="0 0 16 16"
   width="16"
   height="16"
   version="1.1"
   id="svg4"
   sodipodi:docname="transportbelt_liftoff.icon.svg"
   inkscape:version="1.0.1 (3bc2e813f5, 2020-09-07)">
  <metadata
     id="metadata10">
    <rdf:RDF>
      <cc:Work
         rdf:about="">
        <dc:format>image/svg+xml</dc:format>
        <dc:type
           rdf:resource="http://purl.org/dc/dcmitype/StillImage" />
      </cc:Work>
    </rdf:RDF>
  </metadata>
  <defs
     id="defs8" />
  <sodipodi:namedview
     pagecolor="#ffffff"
     bordercolor="#666666"
     borderopacity="1"
     objecttolerance="10"
     gridtolerance="10"
     guidetolerance="10"
     inkscape:pageopacity="0"
     inkscape:pageshadow="2"
     inkscape:window-width="840"
     inkscape:window-height="480"
     id="namedview6"
     showgrid="false"
     inkscape:zoom="45.9375"
     inkscape:cx="8"
     inkscape:cy="8"
     inkscape:window-x="0"
     inkscape:window-y="0"
     inkscape:window-maximized="0"
     inkscape:current-layer="svg4" />
  <path
     class="iconStroke"
     d="M11 3.494A2.49 2.49 0 0 1 13.5 1C14.88 1 16 2.127 16 3.494v10.012A2.49 2.49 0 0 1 13.5 16c-1.38 0-2.5-1.127-2.5-2.494V3.494zm1 0v10.012c0 .818.675 1.494 1.5 1.494.835 0 1.5-.665 1.5-1.494V3.494C15 2.676 14.325 2 13.5 2c-.835 0-1.5.665-1.5 1.494zm-12 0A2.49 2.49 0 0 1 2.5 1C3.88 1 5 2.127 5 3.494v10.012A2.49 2.49 0 0 1 2.5 16C1.12 16 0 14.873 0 13.506V3.494zm1 0v10.012C1 14.324 1.675 15 2.5 15c.835 0 1.5-.665 1.5-1.494V3.494C4 2.676 3.325 2 2.5 2 1.665 2 1 2.665 1 3.494zM2.5 4a.5.5 0 1 1 0-1 .5.5 0 0 1 0 1zm0 10a.5.5 0 1 1 0-1 .5.5 0 0 1 0 1zm11 0a.5.5 0 1 1 0-1 .5.5 0 0 1 0 1zm0-10a.5.5 0 1 1 0-1 .5.5 0 0 1 0 1zM6 0h1v16H6V0zm3 0h1v16H9V0z"
     id="path2"
     style="fill:#000000;fill-opacity:1" />
</svg>
