<?xml version="1.0" encoding="UTF-8" standalone="no"?>
<svg
   xmlns:dc="http://purl.org/dc/elements/1.1/"
   xmlns:cc="http://creativecommons.org/ns#"
   xmlns:rdf="http://www.w3.org/1999/02/22-rdf-syntax-ns#"
   xmlns:svg="http://www.w3.org/2000/svg"
   xmlns="http://www.w3.org/2000/svg"
   xmlns:sodipodi="http://sodipodi.sourceforge.net/DTD/sodipodi-0.dtd"
   xmlns:inkscape="http://www.inkscape.org/namespaces/inkscape"
   width="30"
   height="60"
   viewBox="0 0 30 60"
   version="1.1"
   id="svg4"
   sodipodi:docname="tree-flow-end-check.icon.svg"
   inkscape:version="1.0.1 (3bc2e813f5, 2020-09-07)">
  <metadata
     id="metadata10">
    <rdf:RDF>
      <cc:Work
         rdf:about="">
        <dc:format>image/svg+xml</dc:format>
        <dc:type
           rdf:resource="http://purl.org/dc/dcmitype/StillImage" />
      </cc:Work>
    </rdf:RDF>
  </metadata>
  <defs
     id="defs8" />
  <sodipodi:namedview
     pagecolor="#ffffff"
     bordercolor="#666666"
     borderopacity="1"
     objecttolerance="10"
     gridtolerance="10"
     guidetolerance="10"
     inkscape:pageopacity="0"
     inkscape:pageshadow="2"
     inkscape:window-width="840"
     inkscape:window-height="480"
     id="namedview6"
     showgrid="false"
     inkscape:zoom="12.25"
     inkscape:cx="15"
     inkscape:cy="30"
     inkscape:window-x="0"
     inkscape:window-y="0"
     inkscape:window-maximized="0"
     inkscape:current-layer="svg4" />
  <path
     class="iconStroke"
     d="M23.4 27.7c.2.7.3 1.5.3 2.3 0 4.8-3.9 8.8-8.8 8.8-4.8 0-8.8-3.9-8.8-8.8 0-4.6 3.5-8.3 8-8.7v-21.3h1.5v21.3c1.7.1 3.2.8 4.5 1.7l-1.1 1.1c-1.2-.8-2.6-1.3-4.1-1.3-4 0-7.2 3.2-7.2 7.2s3.2 7.2 7.2 7.2 7.2-3.2 7.2-7.2c0-.3 0-.7-.1-1l1.4-1.3zm-11.4.8l-1.2 1.2 3.9 3.9 9.7-9.6-1.2-1.2-8.5 8.4-2.7-2.7z"
     id="path2"
     style="fill:#000000;fill-opacity:1" />
</svg>
