<?xml version="1.0" encoding="UTF-8" standalone="no"?>
<svg
   xmlns:dc="http://purl.org/dc/elements/1.1/"
   xmlns:cc="http://creativecommons.org/ns#"
   xmlns:rdf="http://www.w3.org/1999/02/22-rdf-syntax-ns#"
   xmlns:svg="http://www.w3.org/2000/svg"
   xmlns="http://www.w3.org/2000/svg"
   xmlns:sodipodi="http://sodipodi.sourceforge.net/DTD/sodipodi-0.dtd"
   xmlns:inkscape="http://www.inkscape.org/namespaces/inkscape"
   viewBox="0 0 16 16"
   width="16"
   height="16"
   version="1.1"
   id="svg4"
   sodipodi:docname="vibrationlength.icon.svg"
   inkscape:version="1.0.1 (3bc2e813f5, 2020-09-07)">
  <metadata
     id="metadata10">
    <rdf:RDF>
      <cc:Work
         rdf:about="">
        <dc:format>image/svg+xml</dc:format>
        <dc:type
           rdf:resource="http://purl.org/dc/dcmitype/StillImage" />
      </cc:Work>
    </rdf:RDF>
  </metadata>
  <defs
     id="defs8" />
  <sodipodi:namedview
     pagecolor="#ffffff"
     bordercolor="#666666"
     borderopacity="1"
     objecttolerance="10"
     gridtolerance="10"
     guidetolerance="10"
     inkscape:pageopacity="0"
     inkscape:pageshadow="2"
     inkscape:window-width="840"
     inkscape:window-height="480"
     id="namedview6"
     showgrid="false"
     inkscape:zoom="45.9375"
     inkscape:cx="8"
     inkscape:cy="8"
     inkscape:window-x="0"
     inkscape:window-y="0"
     inkscape:window-maximized="0"
     inkscape:current-layer="svg4" />
  <path
     class="iconStroke"
     d="M1 9h14V7H1v2zM0 6h16v4H0V6zm0 6.17c1.694-1.56 1.902-1.56 3.596 0 1.406 1.297 1.198 1.297 2.604 0C7.265 11.19 7.52 11 7.998 11c.477 0 .733.189 1.798 1.17.872.804 1.1.973 1.302.973.201 0 .43-.169 1.302-.972 1.064-.98 1.32-1.17 1.796-1.171.478-.001.734.187 1.804 1.17l-.495.66c-.876-.805-1.105-.973-1.307-.973-.202 0-.43.17-1.302.972-1.065.982-1.321 1.171-1.798 1.171-.477 0-.733-.189-1.798-1.17-.872-.804-1.1-.973-1.302-.973-.202 0-.43.169-1.302.972-1.694 1.561-1.902 1.561-3.596 0-1.406-1.296-1.198-1.296-2.604 0L0 12.171zm0-8.34l.496-.66c1.406 1.297 1.198 1.297 2.604 0 1.694-1.56 1.902-1.56 3.596 0 .872.804 1.1.973 1.302.973.202 0 .43-.169 1.302-.972C10.365 2.189 10.62 2 11.098 2c.477 0 .733.189 1.798 1.17.871.804 1.1.972 1.302.973.202 0 .431-.168 1.307-.973l.495.66C14.93 4.813 14.674 5 14.196 5c-.476-.001-.732-.19-1.796-1.17-.872-.804-1.1-.973-1.302-.973-.202 0-.43.169-1.302.972C8.731 4.811 8.475 5 7.998 5c-.477 0-.733-.189-1.798-1.17-1.406-1.297-1.198-1.297-2.604 0C1.902 5.39 1.694 5.39 0 3.83z"
     id="path2"
     style="fill:#000000;fill-opacity:1" />
</svg>
