<svg xmlns="http://www.w3.org/2000/svg" viewBox="0 0 16 16" width="16" height="16">
  <path class="iconStroke" fill-rule="evenodd" d="M11 11.542c.391.256.814.458 1.176.458C13.736 12 15 10.657 15 9c0-.713-.12-1.378-.745-2.042l.02-.01c.6-.81.725-1.585.725-2.448C15 2.567 13.657 1 12 1c-.7 0-1.345.28-1.855.75l-.013-.015-.046.067A4.487 4.487 0 0 0 7.53 1a4.78 4.78 0 0 0-2.832.951l-.118-.184-.003.002A2 2 0 1 0 2.54 4.947l.364.044A6.01 6.01 0 0 0 2.823 6c0 1.268.445 2.426 1.177 3.307v1.409C2.672 9.615 1.824 7.908 1.824 6c0-.08.001-.159.004-.238A3.002 3.002 0 0 1 3 0c.705 0 1.37.245 1.897.675a5.465 5.465 0 0 1 5.112-.08A3.658 3.658 0 0 1 12 0c2.246 0 4 2.046 4 4.5a4.92 4.92 0 0 1-.592 2.36C15.792 7.495 16 8.233 16 9c0 2.196-1.698 4-3.824 4-.407 0-.803-.067-1.176-.193v-1.265zM6 16H5V4h1v12zm4 0H9V4h1v12z"/>
</svg>
