<svg xmlns="http://www.w3.org/2000/svg" viewBox="0 0 16 16" width="16" height="16">
  <path class="iconStroke" d="M6.662 2.279c.445 1.944.712 3.892.712 5.728 0 1.836-.267 3.781-.712 5.721-.103.447-.21.872-.32 1.272h8.314c-.109-.4-.216-.826-.319-1.273-.445-1.94-.713-3.883-.713-5.716v-.07c.008-1.813.274-3.736.713-5.656.103-.451.211-.88.321-1.285H6.342c.11.402.217.83.32 1.279zm-.288 5.728C6.374 4.003 5 0 5 0h11s-1.375 4.017-1.375 8.011C14.624 12.006 16 16 16 16H5s1.375-3.99 1.375-7.993zM5 4H3v8h2l-2.476 3.996L0 12h2V4H0l2.524-4L5 4z"/>
</svg>
