<?xml version="1.0" encoding="UTF-8" standalone="no"?>
<svg xmlns:dc="http://purl.org/dc/elements/1.1/" xmlns:cc="http://creativecommons.org/ns#" xmlns:rdf="http://www.w3.org/1999/02/22-rdf-syntax-ns#" xmlns:svg="http://www.w3.org/2000/svg" xmlns="http://www.w3.org/2000/svg" width="16" height="16" viewBox="0 0 16 16" version="1.1" id="svg8">
  <style id="style833"></style>
  <defs id="defs2" />
  <metadata id="metadata5">
    <rdf:RDF>
      <cc:Work rdf:about="">
        <dc:format>image/svg+xml</dc:format>
        <dc:type rdf:resource="http://purl.org/dc/dcmitype/StillImage" />
        <dc:title></dc:title>
      </cc:Work>
    </rdf:RDF>
  </metadata>
  <g id="layer1" transform="matrix(1,0.16666667,-0.14285714,1,1.1428571,-1.3333333)" style="stroke-width:0.988304">
    <path class="iconStroke" d="M 4.5,1 C 3.75,1 3.0976688,1.1952999 2.6464844,1.6464844 2.1952999,2.0976688 2,2.75 2,3.5 v 9.5 0.5 c 0.1166667,0.522917 0.4034696,0.793056 0.6992188,1.025391 C 3.1605521,14.871391 3.7708333,15 4.5,15 h 9 0.5 V 14 H 13.5 C 13.083333,14 12.860664,13.903633 12.728516,13.771484 12.596367,13.639336 12.5,13.416667 12.5,13 c 0,-0.416667 0.09637,-0.639336 0.228516,-0.771484 C 12.860664,12.096367 13.083333,12 13.5,12 H 14 V 2.5 C 14,2.0833333 13.888033,1.6810022 13.603516,1.3964844 13.318998,1.1119666 12.916667,1 12.5,1 Z m 0,1 h 8 c 0.25,0 0.347669,0.0547 0.396484,0.1035156 C 12.9453,2.1523312 13,2.25 13,2.5 V 11 H 4.5 C 3.8927051,11 3.4248143,11.164728 3,11.394531 V 3.5 C 3,2.9166667 3.1380334,2.5689978 3.3535156,2.3535156 3.5689978,2.1380334 3.9166667,2 4.5,2 Z m 0,10 h 7.353516 C 11.694136,12.311348 11.5,12.60536 11.5,13 c 0,0.39464 0.194136,0.688652 0.353516,1 H 4.5 C 3.8958333,14 3.5061146,13.878609 3.3007812,13.724609 3.0954479,13.570609 3,13.388889 3,13 3,12.611111 3.0954479,12.429391 3.3007812,12.275391 3.5061146,12.121391 3.8958333,12 4.5,12 Z" id="path841" />
    <path class="iconStroke" d="m 5.3535156,4.2617188 a 0.5,0.5 0 0 0 -0.5,0.5 0.5,0.5 0 0 0 0.5,0.5 h 5.2929684 a 0.5,0.5 0 0 0 0.5,-0.5 0.5,0.5 0 0 0 -0.5,-0.5 z" id="path837" />
  </g>
</svg>
