<svg xmlns="http://www.w3.org/2000/svg" viewBox="0 0 16 16" width="16" height="16">
  <path class="iconStroke" d="M13.955 8.253v4.806l-4.91 1.705v.149l-.245-.064-.032.011-.007-.02-6.716-1.736V6.29L.38 6.81l-.5-.833 2.166-2.132v-.116l.09.027.164-.161.08.08-.034-.092 4.572-1.657.294-.015 6.494 1.658.007.114.082-.05 2.247 3.773-2.086.847zm-1 .406l-2.367.96-1.543-1.94v6.026l3.91-1.358V8.66zM9.267 6.35l1.638 2.06 3.68-1.494-1.313-2.205-2.67 1.048-1.335.59zm-.875-.706l1.826-.808 1.738-.683-4.843-1.236L3.59 4.195l4.802 1.45zM3.045 12.33l5 1.292V6.585l-5-1.51v7.255z"/>
</svg>
