<svg xmlns="http://www.w3.org/2000/svg" viewBox="0 0 16 16" width="16" height="16">
  <path class="iconStroke" d="M11.043 16a7.85 7.85 0 0 1-.074-1c0-.592.103-1.345.288-2.239a29.587 29.587 0 0 1 .42-1.761H5.319c.055.21.109.423.161.638.095.388.18.765.254 1.125.182.894.284 1.646.284 2.237 0 .294-.026.628-.073 1h-1.01c.052-.366.083-.709.083-1 0-1.614-.954-4.79-1.015-4.99H4l.002-.005L4 10h.003c.06-.2 1.015-3.38 1.015-4.995C5.018 3.337 4 0 4 0h9s-1.031 3.337-1.031 5.005c0 1.615.966 4.794 1.028 4.995H13l-.002.005.002.005h-.003c-.062.2-1.028 3.376-1.028 4.99 0 .291.031.634.083 1h-1.01zM5.48 1.638c.095.388.18.765.254 1.125.182.894.284 1.646.284 2.237 0 .59-.102 1.343-.284 2.237A29.91 29.91 0 0 1 5.319 9h6.358a29.587 29.587 0 0 1-.42-1.761c-.185-.894-.288-1.647-.288-2.239 0-.592.103-1.345.288-2.239A29.587 29.587 0 0 1 11.677 1H5.319c.055.21.109.423.161.638z"/>
</svg>
