<svg xmlns="http://www.w3.org/2000/svg" viewBox="0 0 16 16" width="16" height="16">
  <path class="iconStroke" fill-rule="evenodd" d="M6.018 16h-1c0-1.496-.82-4.333-.988-4.9H4V9.9h.03c.168-.567.988-3.404.988-4.9C5.018 3.333 4 0 4 0h9s-1.031 3.333-1.031 5c0 1.496.83 4.333 1 4.9H13v1.2h-.03c-.17.567-1.001 3.404-1.001 4.9h-1c0-.592.103-1.345.288-2.239a29.587 29.587 0 0 1 .42-1.761H5.319c.055.21.109.423.161.638.095.388.18.765.254 1.125.182.894.284 1.646.284 2.237zM5 11h1v-1H5v1zm7 0v-1h-1v1h1zm-2 0v-1H9v1h1zm-2 0v-1H7v1h1zM5.48 1.638c.095.388.18.765.254 1.125.182.894.284 1.646.284 2.237 0 .59-.102 1.343-.284 2.237A29.91 29.91 0 0 1 5.319 9h6.358a29.587 29.587 0 0 1-.42-1.761c-.185-.894-.288-1.647-.288-2.239 0-.592.103-1.345.288-2.239A29.587 29.587 0 0 1 11.677 1H5.319c.055.21.109.423.161.638z"/>
</svg>
