<svg xmlns="http://www.w3.org/2000/svg" width="10" height="13" viewBox="0 0 10 13">
  <path class="iconStroke" d="M3.823 10.688h2.4V13h-2.4v-2.312zm-1.3-5.967H.482c.023-.503.085-.913.185-1.23.28-.873.832-1.564 1.652-2.074.697-.434 1.532-.65 2.505-.65 1.254 0 2.276.343 3.067 1.028.81.703 1.213 1.58 1.213 2.628 0 .697-.208 1.318-.624 1.863-.25.322-.634.674-1.15 1.055-.51.37-.817.618-.923.747-.21.246-.337.536-.378.87-.012.088-.018.255-.018.5H4.017c0-.825.062-1.39.185-1.695s.316-.583.58-.835c.105-.106.368-.314.79-.624.47-.34.794-.633.976-.88.223-.298.334-.644.334-1.036 0-.48-.158-.882-.475-1.204-.392-.393-.928-.59-1.608-.59-.856 0-1.48.303-1.873.906-.223.34-.358.746-.405 1.22z"/>
</svg>
