<svg xmlns="http://www.w3.org/2000/svg" width="49" height="49" viewBox="0 0 49 49">
  <path class="iconStroke" d="M24.5 0C10.97 0 0 10.97 0 24.5S10.97 49 24.5 49 49 38.03 49 24.5 38.03 0 24.5 0zm0 47.47c-12.686 0-22.97-10.284-22.97-22.97S11.815 1.53 24.5 1.53 47.47 11.815 47.47 24.5 37.185 47.47 24.5 47.47zm-.306-20.77c3.37 0 6.125-2.583 6.125-5.74v-1.437c0-3.158-2.757-5.742-6.126-5.742s-6.125 2.585-6.125 5.743v1.436c0 3.157 2.755 5.74 6.124 5.74zm6.43 0C29.095 28.138 26.95 29 24.5 29s-4.594-.86-6.125-2.297c-2.756.862-4.594 2.73-4.594 5.17v4.306h21.44V31.87c0-2.44-1.84-4.308-4.595-5.17z"/>
</svg>
