<svg xmlns="http://www.w3.org/2000/svg" width="49" height="49" viewBox="0 0 49 49">
  <path class="iconStroke" d="M24.5 0C10.97 0 0 10.97 0 24.5S10.97 49 24.5 49 49 38.03 49 24.5 38.03 0 24.5 0zm0 47.47c-12.686 0-22.97-10.284-22.97-22.97S11.815 1.53 24.5 1.53 47.47 11.815 47.47 24.5 37.185 47.47 24.5 47.47zM23.22 36h2.874v-2.875H23.22V36zm6.39-20.266c-1.167-.99-2.667-1.484-4.5-1.484-2.532 0-4.428.88-5.69 2.64-.843 1.178-1.296 2.673-1.358 4.485h2.47c.082-1.333.364-2.344.843-3.03.77-1.136 1.958-1.704 3.562-1.704 1.156 0 2.088.313 2.797.94.73.645 1.094 1.43 1.094 2.358 0 .646-.21 1.292-.625 1.938-.26.427-.86 1.088-1.797 1.984-1.135 1.083-1.906 2.084-2.312 3-.417.98-.65 2.25-.703 3.812h2.5v-.297c0-1.53.36-2.76 1.08-3.688.27-.344.78-.85 1.53-1.516.938-.832 1.604-1.53 2-2.093.697-1.01 1.047-2.088 1.047-3.234 0-1.655-.647-3.025-1.938-4.11z"/>
</svg>
