<svg xmlns="http://www.w3.org/2000/svg" viewBox="0 0 16 16" width="16" height="16">
  <path class="iconStroke" d="M8 2.732l1.723-1.148.554.832L8.08 3.882 8 4v3H7V4l-.079-.118-2.198-1.466.554-.832L7 2.732V0h1v2.732zM2.924 5.787l-.56-1.993.963-.27.715 2.544.088.11 2.853.928-.31.95-2.852-.926-.137.038-2.073 1.638-.62-.784 1.625-1.284-2.6-.844.31-.951 2.598.844zm1.337 5.772l-2.069-.084.04-.999 2.642.106.132-.048 1.763-2.428.81.588-1.763 2.426-.006.142.917 2.479-.938.347-.718-1.942-1.607 2.21-.809-.587 1.606-2.21zm5.902.511l-.718 1.942-.938-.348.917-2.476-.006-.144-1.763-2.426.81-.588 1.763 2.427.132.05L13 10.4l.04.999-2.068.083 1.606 2.211-.809.588-1.606-2.21zm2.31-5.454l1.625 1.283-.62.785-2.073-1.639-.136-.038-2.854.927-.309-.95 2.853-.928.088-.111.715-2.544.963.27-.56 1.993 2.598-.844.31.951-2.6.845zM0 15h15v1H0v-1z"/>
</svg>
