<svg xmlns="http://www.w3.org/2000/svg" viewBox="0 0 16 16" width="16" height="16">
  <path class="iconStroke" d="M6.983 3.232l1.723-1.148.555.832-2.199 1.466-.079.118v3h-1v-3l-.079-.118-2.198-1.466.555-.832 1.722 1.148V.5h1v2.732zM1.908 6.287l-.56-1.993.963-.27.714 2.544.088.11 2.853.928-.309.95-2.853-.926-.137.038L.594 9.306l-.62-.784L1.6 7.238 0 6.718l.309-.95 1.599.52zm1.337 5.772l-2.07-.084.04-.999 2.642.106.133-.048 1.764-2.428.809.588-1.764 2.427-.006.141.917 2.479-.938.347-.718-1.942-1.606 2.21-.81-.587 1.607-2.21zm5.901.512l-.718 1.94-.938-.347.917-2.476-.006-.143-1.763-2.427.808-.588 1.764 2.427.133.05 2.64-.107.041.999-2.069.083 1.606 2.211-.808.588-1.607-2.21zm2.31-5.455l1.625 1.283-.62.785-2.073-1.639-.136-.038-2.853.927-.31-.95 2.853-.928.089-.111.714-2.544.963.27-.56 1.993 2.599-.844.309.951-2.6.845zM15 0h1v15h-1V0z"/>
</svg>
