<svg
   width="16"
   height="16"
   viewBox="0 0 16 16"
   id="CuttingknifeAsScissors"
   xmlns="http://www.w3.org/2000/svg">
  <path
     class="iconStroke"
     d="M 5.0794067,0.0023695 C 4.5907009,-0.0049562 4.0938474,0.1290623 3.6540058,0.4167071 2.4810943,1.1837602 2.1534366,2.7567452 2.9204895,3.929656 L 4.8871064,6.9350908 1.5882651,8.2911049 C 0.29196983,8.8237489 -0.32814737,10.305547 0.20449622,11.601843 0.73713982,12.898137 2.2209198,13.518254 3.517215,12.985611 4.8135081,12.452968 5.4316449,10.969188 4.8990013,9.6728909 4.8322483,9.5157999 4.7500382,9.3653889 4.6531741,9.2248519 l 1.3639441,-0.561041 4.3812738,6.7027551 c 0.255245,0.390297 0.777944,0.749528 1.348084,0.37667 L 12.674277,15.136599 7.9282258,7.8787498 15.973117,4.573961 15.552831,3.5490205 C 15.293917,2.9189027 14.65989,2.919774 14.228538,3.0970158 L 6.7982141,6.15003 5.9754862,4.8931398 C 6.1348952,4.8321244 6.2874956,4.7568562 6.4314559,4.6651549 7.6043664,3.8981019 7.9340077,2.3251169 7.1669547,1.1522061 6.6875467,0.4191366 5.8939163,0.014579 5.0794067,0.0023695 Z M 5.0120027,1.0530822 C 5.5007085,1.0604079 5.9772831,1.3031427 6.2649278,1.7429841 6.7251594,2.4467305 6.5265822,3.3901253 5.8228355,3.850357 5.1190888,4.3105888 4.1756942,4.112011 3.7154626,3.4082646 3.2552311,2.7045182 3.4538093,1.7611235 4.157555,1.3008918 4.42146,1.1283049 4.7187789,1.0486868 5.0120027,1.0530822 Z M 2.5438188,9.0563409 C 3.1371209,9.0624409 3.6978103,9.4166679 3.9375,10 4.2570864,10.777777 3.884619,11.666856 3.1068422,11.986443 2.3290656,12.306028 1.4399869,11.935543 1.1204005,11.157768 0.80081514,10.37999 1.1712995,9.4909109 1.9490758,9.1713249 c 0.1944443,-0.0799 0.3969758,-0.117017 0.594743,-0.114984 z" />
</svg>
