<svg xmlns="http://www.w3.org/2000/svg" width="18" height="18" viewBox="0 0 18 18">
  <path class="iconStroke" d="M9 .5C4.313.5.5 4.313.5 9c0 4.687 3.813 8.5 8.5 8.5 4.687 0 8.5-3.813 8.5-8.5C17.5 4.313 13.687.5 9 .5zm0 16c-4.136 0-7.5-3.364-7.5-7.5S4.864 1.5 9 1.5s7.5 3.364 7.5 7.5-3.364 7.5-7.5 7.5zm2.177-10.46L9.2 1.823l-1.977 4.22H2.828l3.22 3.355-1.273 5.027 4.425-2.55 4.427 2.55-1.274-5.027 3.22-3.356h-4.396zm.9 6.337L9.2 10.72l-2.876 1.657.83-3.272-1.98-2.064h2.685L9.2 4.18l1.342 2.862h2.686l-1.98 2.064.828 3.273z"/>
</svg>
