<svg xmlns="http://www.w3.org/2000/svg" viewBox="0 0 18 18" width="18" height="18">
  <path fill="#4B4B53" d="M9.11.5C9.506.51 9.9.54 10.293.6c.794.12 1.57.357 2.298.697 1.705.796 3.12 2.162 3.98 3.836.364.713.627 1.477.778 2.262.176.92.2 1.868.07 2.796-.122.864-.378 1.71-.757 2.496-.444.922-1.056 1.76-1.797 2.468-.767.73-1.67 1.318-2.65 1.72-1.018.415-2.114.628-3.213.628-1.1 0-2.195-.213-3.212-.63-.98-.4-1.884-.987-2.65-1.718-.742-.706-1.354-1.546-1.8-2.468-.378-.787-.634-1.632-.756-2.496-.13-.928-.106-1.876.07-2.796.15-.785.414-1.55.78-2.26.857-1.675 2.273-3.04 3.977-3.837C6.136.955 6.912.72 7.706.598 8.1.538 8.494.508 8.89.5h.22zm-.207 1c-.35.007-.7.034-1.045.087-.7.107-1.384.314-2.026.614-1.504.704-2.754 1.91-3.51 3.387-.323.628-.555 1.3-.688 1.994-.155.812-.176 1.65-.06 2.47.106.76.33 1.506.666 2.2.392.814.933 1.555 1.587 2.178.677.645 1.474 1.163 2.34 1.518.897.366 1.864.554 2.833.554.97 0 1.936-.188 2.833-.554.866-.355 1.663-.873 2.34-1.518.654-.623 1.195-1.364 1.587-2.178.335-.694.56-1.44.667-2.2.115-.82.094-1.658-.06-2.47-.134-.692-.366-1.365-.688-1.993C14.92 4.11 13.67 2.904 12.167 2.2c-.642-.3-1.326-.506-2.026-.613-.346-.053-.695-.08-1.045-.086h-.194zM9.445 13h-.89V7.158h.89V13zm0-6.926h-.89V5.002h.89v1.072z"/>
</svg>
