<svg xmlns="http://www.w3.org/2000/svg" width="15.030303" height="16" viewBox="0 0 15.030303 16">
   <path 
      class="iconStroke" 
      d="M 7.4218691,0.03976066 C 5.2028921,0.02669783 3.1841675,0.80719751 1.5619114,2.8656859 0.65100487,3.8837394 0.11526824,5.3664826 0.00120937,6.9122078 -0.10429923,8.342059 0.16081184,9.833886 0.91731607,11.052471 0.8164277,11.138241 0.72553824,11.203311 0.62431819,11.312215 0.41722366,11.53503 0.21138892,11.8446 0.19654128,12.239868 c -0.030822,0.82053 0.50710348,1.496393 0.97861292,2.058414 0.4715098,0.562021 0.9454065,0.980384 0.9454065,0.980384 l 0.3437842,0.30466 0.4609832,-0.441367 0.6426422,0.728452 c 0.1831652,0.207557 0.500144,0.226818 0.7071014,0.04297 0.2063146,-0.182954 0.2255403,-0.498368 0.042973,-0.705016 L 3.6480563,14.452572 4.3551578,13.77685 5.0095197,14.515066 c 0.1829874,0.206277 0.4984609,0.2255 0.7051483,0.04297 0.2063146,-0.182955 0.2255402,-0.498369 0.042973,-0.705017 L 5.0798398,13.085501 5.4880835,12.694909 5.2693117,12.349236 c 0,0 -0.3211362,-0.508307 -0.7793743,-1.037018 -0.458239,-0.528718 -1.0134183,-1.142284 -1.8029141,-1.238176 -0.3727348,-0.04527 -0.6868016,0.106446 -0.9161066,0.261696 -0.03521,0.02384 -0.051133,0.04393 -0.083993,0.06835 C 1.1269602,9.4268695 0.90853604,8.1907329 0.99740216,6.9864199 1.0980613,5.622288 1.5973822,4.3147235 2.3139392,3.5199256 l 0.01172,-0.011718 0.00977,-0.013671 C 4.2801857,1.0169657 6.5836405,0.66887111 9.5002006,1.2779339 9.7704248,1.3344937 10.035365,1.1613971 10.092057,0.89124885 10.148627,0.6210752 9.9754979,0.35618489 9.7052992,0.29950361 8.926935,0.13695856 8.1632262,0.04412493 7.4218691,0.03976066 Z m 6.5494799,0.13865978 c -0.165478,0.002393 -0.319055,0.0864789 -0.410197,0.22458977 -0.441331,0.37618721 -0.349715,0.33840451 -0.666082,0.42183819 -0.519787,0.13708031 -1.512282,0.3377238 -3.3968226,0.8944532 -0.00853,0.00238 -0.016999,0.00498 -0.025394,0.00781 C 8.6636232,2.016708 7.2720487,2.4328117 6.1404917,3.4027484 5.0089345,4.3726851 4.1789029,5.9572304 4.5094701,8.3066173 c 0.00238,0.017083 0.00564,0.034031 0.00977,0.050777 0.3725076,1.5091039 1.0185395,2.9507387 1.7443143,4.0777697 0.7257745,1.12703 1.4714275,1.976743 2.3693761,2.193167 0.00778,0.0015 0.015597,0.0028 0.023439,0.0039 1.7198615,0.33132 3.5391425,-0.851449 4.8286055,-2.566182 1.279613,-1.701636 1.720564,-3.4998769 1.386857,-6.1186067 -0.03452,-0.2739649 -0.284635,-0.4680821 -0.55865,-0.4335559 -0.274017,0.034507 -0.468167,0.2845814 -0.433636,0.558545 0.314071,2.4646311 -0.04076,3.8592037 -1.193478,5.3921076 -1.138741,1.514301 -2.7151812,2.387376 -3.8285065,2.18145 C 8.5238235,13.56039 7.7627002,12.914846 7.1054314,11.894195 6.577158,10.971582 6.678283,11.343218 6.5545953,10.443149 6.1697886,7.3970395 7.0041113,5.9716787 8.1074842,5.1467369 8.5363102,4.826123 9.0330561,4.6601145 9.5197338,4.49445 8.2834119,5.5944157 7.1870842,6.8851421 7.0331585,8.578078 7.0084746,8.8602497 7.2229284,9.1065596 7.5058618,9.1209995 10.535802,9.2705343 12.120432,8.027651 13.211508,6.4024867 14.533966,4.4326729 14.532007,2.0646795 14.477258,0.65884726 14.466668,0.38810972 14.242322,0.17506591 13.971349,0.17842044 Z M 13.438092,1.6001713 C 13.426933,2.9061273 13.288974,4.4939752 12.381347,5.8458946 11.496425,7.1639931 10.37843,7.9270188 8.2266366,8.0078152 8.7076538,6.3393369 10.265415,4.8600046 11.809024,3.8714576 12.271401,3.5718906 11.980305,2.854294 11.439847,2.9613806 10.565444,3.1372112 8.8867583,3.3165124 7.5097684,4.3460255 6.4704084,5.1231079 5.8234949,6.8424641 5.6638817,8.8339151 5.6107904,8.6565642 5.5464626,8.3235593 5.5017563,8.144522 5.2199308,6.0871122 5.8689997,4.9507603 6.7909469,4.1604948 7.716546,3.3670991 8.9526946,2.9779409 9.8068718,2.6723433 l 0.00195,-0.00195 C 11.634124,2.1326266 12.09971,2.0406701 12.684111,1.8853027 12.819163,1.8493982 13.324064,1.6477004 13.438092,1.6001713 Z M 2.5659175,11.066142 c 0.2095156,0.02545 0.7659734,0.436359 1.1680849,0.900313 0.2601014,0.300102 0.3294583,0.422114 0.44731,0.593698 L 2.6401436,14.03268 c -0.00262,0.0019 -0.00523,0.0039 -0.00781,0.0059 -0.00329,0.0026 -0.00655,0.0052 -0.00977,0.0078 -0.015183,0.01344 -0.029532,0.02779 -0.042973,0.04297 -0.00131,0.0013 -0.00261,0.0026 -0.00391,0.0039 L 2.4662923,14.198705 C 2.3051306,14.04445 2.2020686,13.964788 1.9428086,13.65576 1.5263696,13.15938 1.1857764,12.514198 1.1946874,12.276974 c 0.00249,-0.06623 0.039347,-0.151079 0.1621256,-0.283178 0.122778,-0.132099 0.315676,-0.280599 0.5117696,-0.445274 0.176519,-0.148236 0.332968,-0.296736 0.4629365,-0.384732 0.1299688,-0.08799 0.1991734,-0.101918 0.2343984,-0.09765 z" />
</svg>
