<svg xmlns="http://www.w3.org/2000/svg" width="15.030303" height="16" viewBox="0 0 15.030303 16">
   <path
      class="iconStroke"
      d="M 9.5507812,0.08984375 A 0.50005,0.50005 0 0 0 9.140625,0.31445312 C 8.9180883,0.6516107 8.9960236,0.59819966 8.4765625,0.73632812 7.9571014,0.87445659 6.9644309,1.0740813 5.0800781,1.6308594 a 0.50005,0.50005 0 0 0 -0.027344,0.00781 C 4.2435838,1.9282918 2.8521477,2.3424787 1.7207031,3.3125 0.5892586,4.2825213 -0.24069052,5.869158 0.08984375,8.21875 a 0.50005,0.50005 0 0 0 0.0097656,0.046875 c 0.51843858,2.163257 1.52753335,4.170012 2.87500005,5.626953 1.345469,1.454782 3.0641874,2.370557 4.9296875,2.214844 1.4526839,-0.01758 2.6918561,-0.297062 3.6230471,-0.90625 0.898363,-0.587712 1.467831,-1.513314 1.595703,-2.644531 0.03544,-0.0019 0.0595,0.0033 0.0957,0 0.30296,-0.02739 0.662286,-0.118191 0.9375,-0.402344 0.571311,-0.589865 0.623551,-1.454301 0.648438,-2.1875001 0.02488,-0.7331989 -0.04883,-1.359375 -0.04883,-1.359375 l -0.05273,-0.4570313 -0.636719,0.019531 0.0078,-0.9707031 a 0.5,0.5 0 0 0 -0.496081,-0.503906 0.5,0.5 0 0 0 -0.503906,0.4960937 l -0.0078,1.0097657 -0.976562,0.029297 0.0078,-0.984375 A 0.5,0.5 0 0 0 11.601562,6.7421875 0.5,0.5 0 0 0 11.097656,7.2382812 l -0.0078,1.0234376 -0.564453,0.017578 -0.06836,0.4042969 c 0,0 -0.100786,0.5934195 -0.113281,1.2929687 -0.01249,0.6995496 -0.0095,1.5261146 0.513672,2.1249996 0.247003,0.282743 0.581144,0.378296 0.855469,0.416016 0.158066,0.02173 0.272983,0.01744 0.40625,0.01953 -0.111861,0.816807 -0.485349,1.397489 -1.140625,1.826172 -0.710725,0.464959 -1.7727265,0.735429 -3.1132816,0.748047 a 0.50005,0.50005 0 0 0 -0.037109,0 C 6.3342138,15.23855 4.9130077,14.514735 3.7089844,13.212891 3.0740946,12.526419 2.5250884,11.67164 2.0625,10.732422 a 0.5,0.5 0 0 0 0.00586,-0.15625 C 1.6838971,7.5322198 2.5373794,6.0430553 3.6640625,5.1621094 4.063137,4.8500757 4.5224566,4.6928076 4.9707031,4.515625 3.7917376,5.5976858 2.7618042,6.8544614 2.6132812,8.4882812 A 0.50005,0.50005 0 0 0 3.0878906,9.0332031 C 6.11753,9.1827513 7.7000491,7.9397594 8.7910156,6.3144531 10.113343,4.3444675 10.111384,1.9762676 10.056641,0.5703125 A 0.50005,0.50005 0 0 0 9.5507812,0.08984375 Z M 9.0175781,1.5097656 C 9.0065872,2.8161077 8.8689081,4.4031773 7.9609375,5.7558594 7.076103,7.074073 5.9582197,7.8391184 3.8066406,7.9199219 4.28761,6.2512978 5.8452161,4.7718366 7.3886719,3.7832031 A 0.50005,0.50005 0 0 0 7.0195312,2.8730469 C 6.1274859,3.0524585 4.4354067,3.2908436 3.0488281,4.375 2.0851178,5.1285186 1.3408741,6.3439035 1.0957031,8.09375 1.0925038,8.0806997 1.0851912,8.0697034 1.0820312,8.0566406 0.79939447,5.9975271 1.4488792,4.8629077 2.3710938,4.0722656 3.293234,3.281687 4.5212515,2.8910803 5.375,2.5859375 7.2171345,2.0422759 8.1453583,1.8592295 8.7324219,1.703125 8.8678894,1.6671032 8.9032611,1.5574892 9.0175781,1.5097656 Z m 4.7617189,7.6699219 c 0.01683,0.2224234 0.03907,0.3507479 0.02539,0.7539063 -0.02198,0.6475642 -0.200063,1.3548552 -0.365235,1.5253902 -0.04612,0.04762 -0.130933,0.08533 -0.310547,0.101563 -0.179613,0.01624 -0.421811,6.88e-4 -0.677734,-0.0078 -0.230374,-0.0077 -0.446077,-0.004 -0.601563,-0.02539 -0.155485,-0.02138 -0.214939,-0.05725 -0.238281,-0.08399 -0.13884,-0.158932 -0.278543,-0.835353 -0.267578,-1.4492184 0.0071,-0.3980635 0.03744,-0.5360488 0.06445,-0.7421875 L 13.525391,9.1875 a 0.5,0.5 0 0 0 0.0332,0.00195 0.5,0.5 0 0 0 0.06445,-0.00586 z" />
</svg>
