<svg
    viewBox="0 0 32 23"
    width="32"
    height="23"
    xmlns="http://www.w3.org/2000/svg">
    <path class="iconStroke"
        d="M 15.628906,0.07226562 0.62890625,6.0722656 a 1.0001,1.0001 0 0 0 0,1.8554688 L 15.628906,13.927734 a 1.0001,1.0001 0 0 0 0.742188,0 L 30,8.4765625 V 16 a 1,1 0 0 0 1,1 1,1 0 0 0 1,-1 V 7 a 1.0001,1.0001 0 0 0 -0.002,-0.00391 1,1 0 0 0 -0.417969,-0.7890625 1.0001,1.0001 0 0 0 -0.0625,-0.039063 1,1 0 0 0 -0.146484,-0.095703 l -15,-5.99999998 a 1.0001,1.0001 0 0 0 -0.742188,0 z M 16,2.0761719 28.308594,7 16,11.923828 3.6914063,7 Z"
    />
    <path class="iconStroke"
        d="m 7,8.4003906 a 1,1 0 0 0 -1,1 V 17.5 c 0,1.78449 1.3785563,3.173372 3.1894531,4.078125 C 11.00035,22.482878 13.380194,23 16,23 18.619806,23 20.99965,22.482878 22.810547,21.578125 24.621444,20.673372 26,19.28449 26,17.5 V 9.4003906 a 1,1 0 0 0 -1,-1 1,1 0 0 0 -1,1 V 17.5 c 0,0.705508 -0.637384,1.566318 -2.083984,2.289062 C 20.469416,20.511807 18.350189,21 16,21 13.649811,21 11.530584,20.511807 10.083984,19.789062 8.6373844,19.066318 8,18.205508 8,17.5 V 9.4003906 a 1,1 0 0 0 -1,-1 z"
    />
</svg>