<svg
   width="16"
   height="16"
   viewBox="0 0 16 16"
   id="EmptyChainBag"
   xmlns="http://www.w3.org/2000/svg">
  <path
     class="iconStroke"
     d="M 8,0 C 8,0 8.02,0.14 8.05,0.36 8.14,1.17 8.36,3.17 8.36,4.29 8.35,5.56 8.01,9 8.01,9 h -0.01 c 0,0 0.02,0.14 0.05,0.36 0.1,0.81 0.32,2.81 0.31,3.93 C 8.36,13.9 8.27,15.01 8.19,16 H 9.14 C 9.24,15.15 9.36,14 9.36,13.25 9.35,12.13 9,9.92 9,9.92 l 4.97,-0 c 0,0 -0.36,2.36 -0.36,3.54 -0,0.69 0.12,1.74 0.22,2.53 h 0.89 c -0.1,-0.88 -0.19,-1.86 -0.19,-2.54 0,-1.49 0.43,-4.46 0.43,-4.46 h 0.01 c 0,0 -0.44,-3.02 -0.44,-4.54 C 14.54,2.97 14.97,-0 14.97,-0 Z m -4.98,0.52 -0.03,3 h -2 l 2.5,4 2.5,-4 h -2 l 0.03,-3 z M 13.97,0.92 c 0,0 -0.36,2.36 -0.36,3.54 -0,1.22 0.37,3.61 0.37,3.61 l -4.97,0 c 0,0 0.36,-2.55 0.35,-3.83 C 9.35,3.13 9,0.92 9,0.92 Z M 10.32,3.4 9.61,4.1 10.79,5.29 9.61,6.48 10.32,7.19 11.5,6 12.68,7.19 13.39,6.48 12.21,5.29 13.41,4.12 12.7,3.42 11.5,4.58 Z M 3.02,8.5 2.98,11.5 h -2 l 2.5,4 2.5,-4 h -2 L 4.02,8.5 Z m 7.3,3.9 -0.71,0.71 1.18,1.19 L 9.61,15.48 10.13,16 h 0.37 L 11.5,15 12.49,16 h 0.37 l 0.52,-0.52 -1.18,-1.19 1.2,-1.17 -0.71,-0.71 -1.2,1.17 z" />
</svg>
