<svg xmlns="http://www.w3.org/2000/svg" viewBox="0 0 16 16" width="16" height="16">
  <path class="iconStroke" d="M7.996 10.345l-3.33-4.643L.773 11 0 10.417l4.676-6.362 3.326 4.638L11.422 4 16 10.345l-.778.576-3.804-5.272-3.422 4.696zm-3.032-.393A.97.97 0 0 1 4 8.976.97.97 0 0 1 4.964 8a.97.97 0 0 1 .963.976.97.97 0 0 1-.963.976zm3.038-2.993a.97.97 0 0 1-.964-.976.97.97 0 0 1 .964-.976.97.97 0 0 1 .963.976.97.97 0 0 1-.963.976zm2.962 2.993A.97.97 0 0 1 10 8.976.97.97 0 0 1 10.964 8a.97.97 0 0 1 .963.976.97.97 0 0 1-.963.976z"/>
</svg>
