<svg xmlns="http://www.w3.org/2000/svg" viewBox="0 0 16 16" width="16" height="16">
  <path class="iconStroke" fill-rule="evenodd" d="M0 0h10S8.71 3.333 8.71 5c0 1.667 1.29 5 1.29 5H0s1.272-3.333 1.272-5C1.272 3.333 0 0 0 0zm11 7h5l-2.469 2.5L11 7zm-3.957 9.021v-5l2.5 2.469-2.5 2.531zm-4.043 0L.5 13.49 3 11.02v5zM11 3L13.531.5 16 3h-5zM4 13h2v1H4v-1zm10-9v2h-1V4h1zM1.593 1.583c.119.39.226.77.319 1.133.23.908.36 1.673.36 2.284 0 .61-.13 1.376-.36 2.284-.093.363-.2.743-.32 1.133-.06.196-.121.391-.184.583h7.178a24.829 24.829 0 0 1-.509-1.713C7.843 6.379 7.71 5.612 7.71 5c0-.612.132-1.379.366-2.287.094-.363.202-.743.323-1.134.06-.195.122-.388.186-.579H1.408c.063.192.125.387.185.583z"/>
</svg>
