<svg xmlns="http://www.w3.org/2000/svg" viewBox="0 0 16 16" width="16" height="16">
  <path class="iconStroke" fill-rule="evenodd" d="M5 4.458C4.609 4.202 4.186 4 3.824 4 2.264 4 1 5.343 1 7c0 .713.12 1.378.745 2.042l-.02.01C1.125 9.861 1 10.636 1 11.5 1 13.433 2.343 15 4 15c.7 0 1.345-.28 1.855-.75l.013.015.046-.067A4.487 4.487 0 0 0 8.47 15a4.78 4.78 0 0 0 2.832-.951l.118.184.003-.002a2 2 0 1 0 2.037-3.178l-.364-.044a6.01 6.01 0 0 0 .08-1.009A5.163 5.163 0 0 0 12 6.693V5.284c1.328 1.101 2.176 2.808 2.176 4.716 0 .08-.001.159-.004.238A3.002 3.002 0 0 1 13 16c-.705 0-1.37-.245-1.897-.675a5.465 5.465 0 0 1-5.112.08A3.658 3.658 0 0 1 4 16c-2.246 0-4-2.046-4-4.5 0-.845.208-1.658.592-2.36A4.124 4.124 0 0 1 0 7c0-2.196 1.698-4 3.824-4 .407 0 .803.067 1.176.193v1.265zM10 0h1v12h-1V0zM6 0h1v12H6V0z"/>
</svg>
