<svg xmlns="http://www.w3.org/2000/svg" viewBox="0 0 16 16" width="16" height="16">
  <path class="iconStroke" d="M7.618 9h1.764l1-2H6.618l1 2zm1.518 1a.506.506 0 0 1 .002.049c0 1.3-.759 1.664-2.746 1.977-1.475.232-1.876.423-1.876.965 0 .05-.001.048.073.076.158.06.44.08.83.05.685-.052 1.41-.2 3.111-.603 1.758-.417 2.48-.566 3.233-.626 1.204-.097 1.974.187 1.974 1.103 0 1.223-.89 1.997-2.28 2.424-.452.14-.932.233-1.41.29-.288.035-.514.05-.65.053a.5.5 0 0 1-.025-1c.105-.002.3-.015.555-.046.424-.05.847-.133 1.237-.253 1.018-.313 1.573-.795 1.573-1.468 0-.086-.204-.162-.894-.106-.68.054-1.382.199-3.101.606-1.741.412-2.488.565-3.247.623-1.207.092-1.979-.2-1.979-1.123 0-1.286.748-1.642 2.733-1.955 1.481-.233 1.889-.429 1.889-.987 0-.017 0-.033.002-.049H7L5.5 7H4V2h9v5h-1.5L10 10h-.864zM5 0h1v2H5V0zm6 0h1v2h-1V0zM5 3v3h7V3H5z"/>
</svg>
