<svg xmlns="http://www.w3.org/2000/svg" viewBox="0 0 16 16" width="16" height="16">
  <path class="iconStroke" d="M4 6h8s-1.031 3.333-1.031 5c0 1.667 1.031 5 1.031 5H4s1.018-3.333 1.018-5C5.018 9.333 4 6 4 6zM3 8l1 3-1 3H0V8h3zm10 0h3v6h-3l-1-3 1-3zM4 0h8v3H4V0zm0 5V4h8v1H4zm1-3h6V1H5v1zm8.054 9l.667 2H15V9h-1.28l-.666 2zM1 9v4h1.28l.666-2-.667-2H1zm4.48-1.362c.095.388.18.765.254 1.125.182.894.284 1.646.284 2.237 0 .59-.102 1.343-.284 2.237A29.91 29.91 0 0 1 5.319 15h5.358a29.587 29.587 0 0 1-.42-1.761c-.185-.894-.288-1.647-.288-2.239 0-.592.103-1.345.288-2.239A29.587 29.587 0 0 1 10.677 7H5.319c.055.21.109.423.161.638z"/>
</svg>
