<svg xmlns="http://www.w3.org/2000/svg" viewBox="0 0 16 16" width="16" height="16">
  <path class="iconStroke" d="M10.094 2.583L10.906 2a12.134 12.134 0 0 1 .788 1.31c.295.57.524 1.132.662 1.668.094.363.144.708.144 1.033 0 .757-.212 1.304-.745 2.24l-.071.123C11.17 9.272 11 9.703 11 10.309c0 1.431.588 2.867 1.353 3.628l-.706.71c-.955-.95-1.647-2.642-1.647-4.338 0-.833.22-1.39.816-2.432l.07-.122c.453-.794.614-1.21.614-1.744 0-.234-.038-.497-.112-.784a7.145 7.145 0 0 0-.582-1.458 11.143 11.143 0 0 0-.712-1.186zm-3 0L7.906 2a12.134 12.134 0 0 1 .788 1.31c.295.57.524 1.132.662 1.668.094.363.144.708.144 1.033 0 .757-.212 1.304-.745 2.24l-.071.123C8.17 9.272 8 9.703 8 10.309c0 1.431.588 2.867 1.353 3.628l-.706.71C7.692 13.696 7 12.004 7 10.308c0-.833.22-1.39.816-2.432l.07-.122c.453-.794.614-1.21.614-1.744 0-.234-.038-.497-.112-.784a7.145 7.145 0 0 0-.582-1.458 11.143 11.143 0 0 0-.712-1.186zm-3 0L4.906 2a12.134 12.134 0 0 1 .788 1.31c.295.57.524 1.132.662 1.668.094.363.144.708.144 1.033 0 .757-.212 1.304-.745 2.24l-.071.123C5.17 9.272 5 9.703 5 10.309c0 1.431.588 2.867 1.353 3.628l-.706.71C4.692 13.696 4 12.004 4 10.308c0-.833.22-1.39.816-2.432l.07-.122c.453-.794.614-1.21.614-1.744 0-.234-.038-.497-.112-.784a7.145 7.145 0 0 0-.582-1.458 11.143 11.143 0 0 0-.712-1.186z"/>
</svg>
