<svg xmlns="http://www.w3.org/2000/svg" viewBox="0 0 16 16" width="16" height="16">
  <path class="iconStroke" fill-rule="evenodd" d="M10.767 7c.405-1.467 1.191-4 1.79-4 .6 0 1.328 2.533 1.7 4H16v1h-1.504l.004.02h-3.267c-.405 1.466-1.191 4-1.79 4-.6 0-1.328-2.534-1.7-4h-2.51c-.405 1.466-1.191 4-1.79 4-.602 0-1.334-2.556-1.704-4.02H0V7h4.767c.405-1.467 1.191-4 1.79-4 .6 0 1.328 2.533 1.7 4h2.51zm-6.88 2.22c.119-.39.233-.802.342-1.22h-1.43c.117.411.24.816.364 1.2.13.398.257.754.378 1.057.112-.297.228-.647.347-1.037zm6 0c.119-.39.233-.802.342-1.22h-1.43c.117.411.24.816.364 1.2.13.398.257.754.378 1.057.112-.297.228-.647.347-1.037zm3-3.42c-.118-.39-.234-.74-.346-1.038-.12.303-.248.66-.378 1.057a32.16 32.16 0 0 0-.363 1.2h1.429c-.109-.418-.223-.83-.341-1.22zm-6 0c-.118-.39-.234-.74-.346-1.038-.12.303-.248.66-.378 1.057a32.16 32.16 0 0 0-.363 1.2h1.429c-.109-.418-.223-.83-.341-1.22z"/>
</svg>
