<svg xmlns="http://www.w3.org/2000/svg" viewBox="0 0 16 16" width="16" height="16">
  <path class="iconStroke" fill-rule="evenodd" d="M0 11h2.5c.83 0 1.5.669 1.5 1.5 0 .83-.669 1.5-1.5 1.5H0v-3zm0-6v1h2.5C3.331 6 4 5.33 4 4.5 4 3.669 3.33 3 2.5 3H0v1h2c.867 0 1 .238 1 .492S3 5 2 5H0zm0 2h2.5C3.33 7 4 7.669 4 8.5c0 .83-.669 1.5-1.5 1.5H0V7zm13.722 3H13V9h.65a20.012 20.012 0 0 1-.025-.989v-.07c.003-.635.037-1.284.1-1.941H13V5h.84c.12-.898.29-1.807.498-2.715.103-.451.21-.88.32-1.285H6.343c.11.402.217.83.32 1.279.209.91.378 1.821.5 2.721H8v1h-.723a20.087 20.087 0 0 1 .073 3H8v1h-.722c-.093.987-.25 1.992-.457 3H8v1H6.599c-.083.348-.169.682-.256 1h8.314a32.193 32.193 0 0 1-.255-1H13v-1h1.18a27.886 27.886 0 0 1-.458-3zM6.375 8.007C6.375 4.003 5 0 5 0h11s-1.375 4.017-1.375 8.011C14.625 12.006 16 16 16 16H5s1.375-3.99 1.375-7.993zM9 6V5h1v1H9zm2 0h1V5h-1v1zM8 8V7h1v1H8zm2 0V7h1v1h-1zm2 0V7h1v1h-1zm-3 2V9h1v1H9zm2 0V9h1v1h-1zm-3 2v-1h1v1H8zm2 0v-1h1v1h-1zm2 0v-1h1v1h-1zm-3 2v-1h1v1H9zm2 0v-1h1v1h-1z"/>
</svg>
