<svg xmlns="http://www.w3.org/2000/svg" width="7" height="9" viewBox="0 0 7 9">
  <path fill="#53535C" d="M2.79534406,7 C2.76556165,6.83786188 2.75,6.67074825 2.75,6.5 C2.75,4.98121694 3.98121694,3.75 5.5,3.75 C7.01878306,3.75 8.25,4.98121694 8.25,6.5 C8.25,6.67074825 8.23443835,6.83786188 8.20465594,7 L9,7 L9,12 L2,12 L2,7 L2.79534406,7 Z M3.82246967,7 L7.17753033,7 C7.22468062,6.84157265 7.25,6.67374315 7.25,6.5 C7.25,5.53350169 6.46649831,4.75 5.5,4.75 C4.53350169,4.75 3.75,5.53350169 3.75,6.5 C3.75,6.67374315 3.77531938,6.84157265 3.82246967,7 Z" transform="translate(-2 -3)"/>
</svg>
