<svg xmlns="http://www.w3.org/2000/svg" viewBox="0 0 17 17" width="17" height="17">
  <path fill="#F5A623" d="M8.5 17c4.694 0 8.5-3.806 8.5-8.5S13.194 0 8.5 0 0 3.806 0 8.5 3.806 17 8.5 17z"/>
  <path fill="#fff" d="M5.795 7l-.002-.014c-.05-.275-.056-.558-.02-.836.107-.846.62-1.61 1.358-2.035.357-.205.75-.32 1.16-.357.093-.006.186-.008.28-.007.39.016.77.102 1.122.272.766.37 1.33 1.09 1.502 1.924.06.297.072.603.034.904-.006.05-.014.1-.023.15H12v5H5V7h.795zm4.382 0c.02-.062.034-.126.046-.19.034-.19.036-.386.007-.577-.08-.522-.403-.988-.86-1.25-.226-.13-.476-.205-.735-.228-.06-.004-.12-.005-.18-.004-.262.01-.517.072-.75.19-.47.24-.814.69-.92 1.207-.038.19-.045.385-.02.576.01.094.03.187.058.277h3.354z"/>
</svg>
