<svg xmlns="http://www.w3.org/2000/svg" width="37" height="31" viewBox="0 0 37 31">
  <g fill="none" fill-rule="evenodd">
    <path fill="#DB4263" d="M16.7949188,9.32745726 L31.0392223,9.32745726 L33.0127836,1.88264504 C33.2589583,0.952503851 32.8066838,0.331708259 31.7194556,0.331708259 L8.01902475,0.331708259 C7.32890285,0.331708259 6.19743602,0.910416014 5.90077728,2.03153077 L0.222624963,23.4500309 C0.010279762,24.2533825 0.554674567,25.099348 1.43320079,25.099348 L10.4063469,25.099348 C11.7735794,19.9409575 14.0000813,11.5407514 14.0000813,11.5407514 C14.3675217,10.1555355 15.7097724,9.32745726 16.7949188,9.32745726 Z"/>
    <path fill="#FFF" d="M31.797393,28.7398289 C31.561107,29.4563744 30.8064488,29.8988228 30.0450247,29.8988228 L11.6266807,29.9067142 C11.8442305,29.1370329 16.0765618,13.0657924 16.0765618,13.0657924 C16.3128479,12.349247 17.0680265,11.9067986 17.8294506,11.9067986 C17.8315324,11.9067986 36.2405082,11.9046943 36.2405082,11.9067986 L31.797393,28.7398289 Z"/>
  </g>
</svg>
