<svg xmlns="http://www.w3.org/2000/svg" viewBox="0 0 16 16" width="16" height="16">
  <path class="iconStroke" fill-rule="evenodd" d="M6.951 1.09L7.372.074 9.22.839l-.421 1.017c.54.364.993.823 1.345 1.345l1.017-.421.765 1.848-1.017.42c.12.619.125 1.264 0 1.903l1.017.421-.765 1.848-1.017-.421c-.364.54-.823.993-1.345 1.345l.421 1.017-1.848.765-.42-1.017a4.972 4.972 0 0 1-1.903 0l-.421 1.017-1.848-.765.421-1.017A4.972 4.972 0 0 1 1.856 8.8L.84 9.22.074 7.372l1.017-.42a4.972 4.972 0 0 1 0-1.903L.073 4.628.839 2.78l1.017.421c.364-.54.823-.993 1.345-1.345L2.78.84 4.628.074l.42 1.017a4.972 4.972 0 0 1 1.903 0zM14.95 12H16v1h-1.05c-.065.32-.19.616-.364.879l.742.742-.707.707-.742-.742c-.263.174-.56.3-.879.364V16h-1v-1.05a2.486 2.486 0 0 1-.879-.364l-.742.742-.707-.707.742-.742c-.174-.263-.3-.56-.364-.879H9v-1h1.05c.065-.32.19-.616.364-.879l-.742-.742.707-.707.742.742c.263-.174.56-.3.879-.364V9h1v1.05c.32.065.616.19.879.364l.742-.742.707.707-.742.742c.174.263.3.56.364.879zm-2.45 2a1.5 1.5 0 1 0 0-3 1.5 1.5 0 0 0 0 3zM4.47 9.696a4 4 0 1 0 3.06-7.392 4 4 0 0 0-3.06 7.392zm.765-1.848a2 2 0 1 1 1.53-3.696 2 2 0 0 1-1.53 3.696zm1.689-1.465a1 1 0 1 0-1.848-.766 1 1 0 0 0 1.848.766z"/>
</svg>
