<svg xmlns="http://www.w3.org/2000/svg" viewBox="0 0 16 16" width="16" height="16">
  <path class="iconStroke" fill-rule="evenodd" d="M4.103 12.997l7.473.002c.869 0 1.78-.711 1.99-1.557l1.616-6.415s.762-.06.858 0c.097.06 0 .537 0 .537l-1.503 6.12C14.214 12.976 12.903 14 11.576 14l-7.473-.002v1.865L.889 13.37l3.214-2.491v2.117zM12 3.003L4.492 3c-.869 0-1.78.71-1.991 1.557L.885 10.972s-.76.06-.857 0c-.097-.06 0-.536 0-.536l1.503-6.12C1.854 3.023 3.164 2 4.492 2L12 2.003V0l3.436 2.491L12 4.981V3.004z"/>
</svg>
