<svg xmlns="http://www.w3.org/2000/svg" viewBox="0 0 16 16" width="16" height="16">
  <path class="iconStroke" fill-rule="evenodd" d="M9 2v2.603L8.5 8.5h-1L7 4.603V2h2zm4 8.5V10a2 2 0 1 1 0-4V5a2 2 0 1 1 0-4V0a3 3 0 0 0-1.659 5.5A2.997 2.997 0 0 0 10 8c0 1.043.533 1.963 1.341 2.5A3 3 0 0 0 13 16v-1a2 2 0 1 1 0-4v-.5zm-8.341 0A2.997 2.997 0 0 0 6 8a2.997 2.997 0 0 0-1.341-2.5A3 3 0 0 0 3 0v1a2 2 0 1 1 0 4v1a2 2 0 1 1 0 4v1a2 2 0 1 1 0 4v1a3 3 0 0 0 1.659-5.5zM9 10v2H7v-2h2zM1 0h2v1H1V0zm0 5h2v1H1V5zm0 5h2v1H1v-1zm0 5h2v1H1v-1zM15 0v1h-2V0h2zm0 5v1h-2V5h2zm0 5v1h-2v-1h2zm0 5v1h-2v-1h2z"/>
</svg>
