<svg xmlns="http://www.w3.org/2000/svg" width="16" height="16" viewBox="0 0 16 16">
  <path
     class="iconStroke"
     d="M 0,0 V 16 H 16 V 15 H 1 V 0 Z M 6.875,0.41015625 4.4472656,6.171875 5.3710938,6.5605469 7.7988281,0.79882812 Z M 4.4296875,0.421875 c -0.7768435,10e-9 -1.4160157,0.6411253 -1.4160156,1.4179688 0,0.7768434 0.6391721,1.4179687 1.4160156,1.4179687 0.7768435,0 1.4179687,-0.6411254 1.4179687,-1.4179687 C 5.8476563,1.0630002 5.206531,0.42187501 4.4296875,0.421875 Z m 0,1 c 0.2364033,0 0.4179688,0.1815642 0.4179687,0.4179688 0,0.2364043 -0.1815654,0.4179687 -0.4179687,0.4179687 -0.2364033,0 -0.4160156,-0.1815643 -0.4160156,-0.4179687 0,-0.2364045 0.1796123,-0.4179688 0.4160156,-0.4179688 z M 12,3 v 11 h 2 V 3 Z M 7.8164062,3.7128906 c -0.7768433,0 -1.4179687,0.6411254 -1.4179687,1.4179688 -1e-7,0.7768435 0.6411253,1.4179687 1.4179687,1.4179687 0.7768436,0 1.4160157,-0.6411252 1.4160157,-1.4179687 -1e-7,-0.7768434 -0.6391721,-1.4179688 -1.4160157,-1.4179688 z m 0,1 c 0.2364035,0 0.4160157,0.1815643 0.4160157,0.4179688 0,0.2364045 -0.1796122,0.4179687 -0.4160157,0.4179687 -0.2364033,0 -0.4179687,-0.1815642 -0.4179687,-0.4179687 0,-0.2364045 0.1815655,-0.4179688 0.4179687,-0.4179688 z M 9,7 v 7 h 2 V 7 Z M 6,9 v 5 H 8 V 9 Z m -3,1 v 4 h 2 v -4 z" />
</svg>
