<svg xmlns="http://www.w3.org/2000/svg" viewBox="0 0 16 16" width="16" height="16">
  <path class="iconStroke" d="M1 15.004h8.995V9.019h1v6.985H0V0h10.995v5.028L10 5V1H1v14.004zM15.978 5.01v4l-6-2 6-2zm-9.5 9a.5.5 0 1 1 0-1 .5.5 0 0 1 0 1zm-4-6a.5.5 0 1 1 0-1 .5.5 0 0 1 0 1zm2 0a.5.5 0 1 1 0-1 .5.5 0 0 1 0 1zm2 0a.5.5 0 1 1 0-1 .5.5 0 0 1 0 1zm1 1a.5.5 0 1 1 0-1 .5.5 0 0 1 0 1zm-2 0a.5.5 0 1 1 0-1 .5.5 0 0 1 0 1zm-2 0a.5.5 0 1 1 0-1 .5.5 0 0 1 0 1zm-1 1a.5.5 0 1 1 0-1 .5.5 0 0 1 0 1zm2 0a.5.5 0 1 1 0-1 .5.5 0 0 1 0 1zm2 0a.5.5 0 1 1 0-1 .5.5 0 0 1 0 1zm2 0a.5.5 0 1 1 0-1 .5.5 0 0 1 0 1zm-6 2a.5.5 0 1 1 0-1 .5.5 0 0 1 0 1zm2 0a.5.5 0 1 1 0-1 .5.5 0 0 1 0 1zm2 0a.5.5 0 1 1 0-1 .5.5 0 0 1 0 1zm2 0a.5.5 0 1 1 0-1 .5.5 0 0 1 0 1zm-6 2a.5.5 0 1 1 0-1 .5.5 0 0 1 0 1zm2 0a.5.5 0 1 1 0-1 .5.5 0 0 1 0 1zm4 0a.5.5 0 1 1 0-1 .5.5 0 0 1 0 1zm-1-3a.5.5 0 1 1 0-1 .5.5 0 0 1 0 1zm-2 0a.5.5 0 1 1 0-1 .5.5 0 0 1 0 1zm-2 0a.5.5 0 1 1 0-1 .5.5 0 0 1 0 1zm4 2a.5.5 0 1 1 0-1 .5.5 0 0 1 0 1zm-2 0a.5.5 0 1 1 0-1 .5.5 0 0 1 0 1zm-2 0a.5.5 0 1 1 0-1 .5.5 0 0 1 0 1z"/>
</svg>
