<svg
   width="16"
   height="16"
   viewBox="0 0 16 16"
   id="PhotoCell"
   xmlns="http://www.w3.org/2000/svg">
  <path
     class="iconStroke"
     d="M 4 0 L 4 4 L 5.5 4 L 5.5 7 L 11.5 7 L 11.5 4 L 15 4 L 15 0 L 4 0 z M 5 1 L 14 1 L 14 3 L 5 3 L 5 1 z M 6.5 4 L 10.5 4 L 10.5 6 L 6.5 6 L 6.5 4 z M 7.64 7.65 L 7 8.42 C 7.93 9.19 9.29 9.19 10.21 8.42 L 9.57 7.65 C 9.01 8.12 8.2 8.12 7.64 7.65 z M 6.36 9.18 L 5.71 9.95 C 7.39 11.35 9.83 11.35 11.5 9.95 L 10.86 9.18 C 9.55 10.28 7.66 10.28 6.36 9.18 z M 5.07 10.71 L 4.43 11.48 C 6.84 13.51 10.37 13.51 12.79 11.48 L 12.14 10.71 C 10.1 12.43 7.12 12.43 5.07 10.71 z M 0 14 L 0 15 L 3 15 L 3 16 L 6 16 L 6 15 L 16 15 L 16 14 L 0 14 z" />
</svg>
