<svg xmlns="http://www.w3.org/2000/svg" width="16" height="16" viewBox="0 0 16 16">
  <path class="iconStroke" d="M3.977 6.032c1.052.104 1.808.58 2.958 1.605l.18.16c1.011.9 1.563 1.213 2.385 1.213.323 0 .423-.101.638-.613l.119-.287c.051-.12.097-.223.146-.322C10.985 6.613 12.01 6.01 14 6.01h2v1h-2c-1.62 0-2.292.396-2.7 1.222-.04.08-.078.164-.122.268l-.118.283c-.353.843-.734 1.227-1.56 1.227-.965 0-1.637-.298-2.538-1.029a3.5 3.5 0 1 1-2.985-2.949zM3.5 7a2.5 2.5 0 1 0 .39.03 3.548 3.548 0 0 0-.39-.02V7zm0 4a1.5 1.5 0 1 1 0-3 1.5 1.5 0 0 1 0 3zM14 5a2 2 0 1 1 0-4 2 2 0 0 1 0 4zm0-1a1 1 0 1 0 0-2 1 1 0 0 0 0 2zm0 8a2 2 0 1 1 0-4 2 2 0 0 1 0 4zm0-1a1 1 0 1 0 0-2 1 1 0 0 0 0 2z"/>
</svg>
