<svg xmlns="http://www.w3.org/2000/svg" viewBox="0 0 16 16" width="16" height="16">
  <path class="iconStroke" fill-rule="evenodd" d="M9 3v2.603L8.5 9.5h-1L7 5.603V3h2zm6 4v2h1v1h-3.924a37.47 37.47 0 0 0 .417 3.418c.108.648.224 1.25.34 1.79.069.322.122.672.152.792H12c-.033-.13-.074-.249-.145-.583a40.86 40.86 0 0 1-.348-1.835C11.19 11.682 11 9.781 11 8c0-1.781.19-3.682.507-5.582.11-.664.23-1.281.348-1.835.071-.334.105-.453.138-.583h.992c-.03.12-.083.47-.152.792-.116.54-.232 1.142-.34 1.79A37.47 37.47 0 0 0 12.076 6H16v1h-1zm-1 0h-1.98a25.794 25.794 0 0 0 0 2H14V7zM2 7v2h1.98a25.793 25.793 0 0 0 0-2H2zM1 7H0V6h3.924a37.47 37.47 0 0 0-.417-3.418 39.863 39.863 0 0 0-.34-1.79C3.098.47 3.045.12 3.015 0h.992c.033.13.067.249.138.583.119.554.237 1.17.348 1.835C4.81 4.318 5 6.219 5 8c0 1.78-.19 3.682-.507 5.582-.11.664-.23 1.281-.348 1.835-.071.334-.112.453-.145.583h-.985c.03-.12.083-.47.152-.792.116-.54.232-1.142.34-1.79.191-1.15.335-2.3.417-3.418H0V9h1V7zm8 4v2H7v-2h2z"/>
</svg>
