<?xml version="1.0" encoding="UTF-8"?>
<svg width="21" height="21" viewBox="0 0 21 21" version="1.1" xmlns="http://www.w3.org/2000/svg">
	<path class="iconStroke"
		d="m0 0h0.84v0.84h-0.84zm0.84 0h0.84v0.84h-0.84zm0.84 0h0.84v0.84h-0.84zm0.84 0h0.84v0.84h-0.84zm0.84 0h0.84v0.84h-0.84zm0.84 0h0.84v0.84h-0.84zm0.84 0h0.84v0.84h-0.84zm3.36 0h0.84v0.84h-0.84zm1.68 0h0.84v0.84h-0.84zm3.36 0h0.84v0.84h-0.84zm1.68 0h0.84v0.84h-0.84zm0.84 0h0.84v0.84h-0.84zm0.84 0h0.84v0.84h-0.84zm0.84 0h0.84v0.84h-0.84zm0.84 0h0.84v0.84h-0.84zm0.84 0h0.84v0.84h-0.84zm0.84 0h0.84v0.84h-0.84zm-20.16 0.84h0.84v0.84h-0.84zm5.04 0h0.84v0.84h-0.84zm1.68 0h0.84v0.84h-0.84zm1.68 0h0.84v0.84h-0.84zm4.2 0h0.84v0.84h-0.84zm0.84 0h0.84v0.84h-0.84zm1.68 0h0.84v0.84h-0.84zm5.04 0h0.84v0.84h-0.84zm-20.16 0.84h0.84v0.84h-0.84zm1.68 0h0.84v0.84h-0.84zm0.84 0h0.84v0.84h-0.84zm0.84 0h0.84v0.84h-0.84zm1.68 0h0.84v0.84h-0.84zm5.04 0h0.84v0.84h-0.84zm1.68 0h0.84v0.84h-0.84zm0.84 0h0.84v0.84h-0.84zm0.84 0h0.84v0.84h-0.84zm1.68 0h0.84v0.84h-0.84zm1.68 0h0.84v0.84h-0.84zm0.84 0h0.84v0.84h-0.84zm0.84 0h0.84v0.84h-0.84zm1.68 0h0.84v0.84h-0.84zm-20.16 0.84h0.84v0.84h-0.84zm1.68 0h0.84v0.84h-0.84zm0.84 0h0.84v0.84h-0.84zm0.84 0h0.84v0.84h-0.84zm1.68 0h0.84v0.84h-0.84zm1.68 0h0.84v0.84h-0.84zm0.84 0h0.84v0.84h-0.84zm0.84 0h0.84v0.84h-0.84zm1.68 0h0.84v0.84h-0.84zm0.84 0h0.84v0.84h-0.84zm4.2 0h0.84v0.84h-0.84zm1.68 0h0.84v0.84h-0.84zm0.84 0h0.84v0.84h-0.84zm0.84 0h0.84v0.84h-0.84zm1.68 0h0.84v0.84h-0.84zm-20.16 0.84h0.84v0.84h-0.84zm1.68 0h0.84v0.84h-0.84zm0.84 0h0.84v0.84h-0.84zm0.84 0h0.84v0.84h-0.84zm1.68 0h0.84v0.84h-0.84zm2.52 0h0.84v0.84h-0.84zm3.36 0h0.84v0.84h-0.84zm2.52 0h0.84v0.84h-0.84zm1.68 0h0.84v0.84h-0.84zm1.68 0h0.84v0.84h-0.84zm0.84 0h0.84v0.84h-0.84zm0.84 0h0.84v0.84h-0.84zm1.68 0h0.84v0.84h-0.84zm-20.16 0.84h0.84v0.84h-0.84zm5.04 0h0.84v0.84h-0.84zm1.68 0h0.84v0.84h-0.84zm0.84 0h0.84v0.84h-0.84zm1.68 0h0.84v0.84h-0.84zm0.84 0h0.84v0.84h-0.84zm0.84 0h0.84v0.84h-0.84zm0.84 0h0.84v0.84h-0.84zm0.84 0h0.84v0.84h-0.84zm0.84 0h0.84v0.84h-0.84zm1.68 0h0.84v0.84h-0.84zm5.04 0h0.84v0.84h-0.84zm-20.16 0.84h0.84v0.84h-0.84zm0.84 0h0.84v0.84h-0.84zm0.84 0h0.84v0.84h-0.84zm0.84 0h0.84v0.84h-0.84zm0.84 0h0.84v0.84h-0.84zm0.84 0h0.84v0.84h-0.84zm0.84 0h0.84v0.84h-0.84zm1.68 0h0.84v0.84h-0.84zm1.68 0h0.84v0.84h-0.84zm1.68 0h0.84v0.84h-0.84zm1.68 0h0.84v0.84h-0.84zm1.68 0h0.84v0.84h-0.84zm1.68 0h0.84v0.84h-0.84zm0.84 0h0.84v0.84h-0.84zm0.84 0h0.84v0.84h-0.84zm0.84 0h0.84v0.84h-0.84zm0.84 0h0.84v0.84h-0.84zm0.84 0h0.84v0.84h-0.84zm0.84 0h0.84v0.84h-0.84zm-12.6 0.84h0.84v0.84h-0.84zm0.84 0h0.84v0.84h-0.84zm0.84 0h0.84v0.84h-0.84zm3.36 0h0.84v0.84h-0.84zm0.84 0h0.84v0.84h-0.84zm-13.44 0.84h0.84v0.84h-0.84zm0.84 0h0.84v0.84h-0.84zm0.84 0h0.84v0.84h-0.84zm0.84 0h0.84v0.84h-0.84zm0.84 0h0.84v0.84h-0.84zm1.68 0h0.84v0.84h-0.84zm0.84 0h0.84v0.84h-0.84zm0.84 0h0.84v0.84h-0.84zm0.84 0h0.84v0.84h-0.84zm1.68 0h0.84v0.84h-0.84zm1.68 0h0.84v0.84h-0.84zm0.84 0h0.84v0.84h-0.84zm0.84 0h0.84v0.84h-0.84zm1.68 0h0.84v0.84h-0.84zm1.68 0h0.84v0.84h-0.84zm1.68 0h0.84v0.84h-0.84zm1.68 0h0.84v0.84h-0.84zm-19.32 0.84h0.84v0.84h-0.84zm1.68 0h0.84v0.84h-0.84zm2.52 0h0.84v0.84h-0.84zm2.52 0h0.84v0.84h-0.84zm1.68 0h0.84v0.84h-0.84zm1.68 0h0.84v0.84h-0.84zm3.36 0h0.84v0.84h-0.84zm0.84 0h0.84v0.84h-0.84zm1.68 0h0.84v0.84h-0.84zm3.36 0h0.84v0.84h-0.84zm-19.32 0.84h0.84v0.84h-0.84zm0.84 0h0.84v0.84h-0.84zm2.52 0h0.84v0.84h-0.84zm1.68 0h0.84v0.84h-0.84zm1.68 0h0.84v0.84h-0.84zm1.68 0h0.84v0.84h-0.84zm2.52 0h0.84v0.84h-0.84zm1.68 0h0.84v0.84h-0.84zm1.68 0h0.84v0.84h-0.84zm0.84 0h0.84v0.84h-0.84zm0.84 0h0.84v0.84h-0.84zm0.84 0h0.84v0.84h-0.84zm0.84 0h0.84v0.84h-0.84zm1.68 0h0.84v0.84h-0.84zm0.84 0h0.84v0.84h-0.84zm-17.64 0.84h0.84v0.84h-0.84zm3.36 0h0.84v0.84h-0.84zm0.84 0h0.84v0.84h-0.84zm3.36 0h0.84v0.84h-0.84zm1.68 0h0.84v0.84h-0.84zm1.68 0h0.84v0.84h-0.84zm0.84 0h0.84v0.84h-0.84zm1.68 0h0.84v0.84h-0.84zm4.2 0h0.84v0.84h-0.84zm-20.16 0.84h0.84v0.84h-0.84zm1.68 0h0.84v0.84h-0.84zm1.68 0h0.84v0.84h-0.84zm1.68 0h0.84v0.84h-0.84zm1.68 0h0.84v0.84h-0.84zm0.84 0h0.84v0.84h-0.84zm0.84 0h0.84v0.84h-0.84zm1.68 0h0.84v0.84h-0.84zm0.84 0h0.84v0.84h-0.84zm0.84 0h0.84v0.84h-0.84zm0.84 0h0.84v0.84h-0.84zm0.84 0h0.84v0.84h-0.84zm0.84 0h0.84v0.84h-0.84zm0.84 0h0.84v0.84h-0.84zm0.84 0h0.84v0.84h-0.84zm0.84 0h0.84v0.84h-0.84zm1.68 0h0.84v0.84h-0.84zm0.84 0h0.84v0.84h-0.84zm0.84 0h0.84v0.84h-0.84zm-20.16 0.84h0.84v0.84h-0.84zm0.84 0h0.84v0.84h-0.84zm0.84 0h0.84v0.84h-0.84zm0.84 0h0.84v0.84h-0.84zm1.68 0h0.84v0.84h-0.84zm1.68 0h0.84v0.84h-0.84zm5.04 0h0.84v0.84h-0.84zm2.52 0h0.84v0.84h-0.84zm0.84 0h0.84v0.84h-0.84zm1.68 0h0.84v0.84h-0.84zm1.68 0h0.84v0.84h-0.84zm1.68 0h0.84v0.84h-0.84zm-19.32 0.84h0.84v0.84h-0.84zm1.68 0h0.84v0.84h-0.84zm2.52 0h0.84v0.84h-0.84zm0.84 0h0.84v0.84h-0.84zm0.84 0h0.84v0.84h-0.84zm2.52 0h0.84v0.84h-0.84zm0.84 0h0.84v0.84h-0.84zm0.84 0h0.84v0.84h-0.84zm0.84 0h0.84v0.84h-0.84zm0.84 0h0.84v0.84h-0.84zm0.84 0h0.84v0.84h-0.84zm0.84 0h0.84v0.84h-0.84zm0.84 0h0.84v0.84h-0.84zm0.84 0h0.84v0.84h-0.84zm0.84 0h0.84v0.84h-0.84zm0.84 0h0.84v0.84h-0.84zm0.84 0h0.84v0.84h-0.84zm1.68 0h0.84v0.84h-0.84zm0.84 0h0.84v0.84h-0.84zm-20.16 0.84h0.84v0.84h-0.84zm2.52 0h0.84v0.84h-0.84zm0.84 0h0.84v0.84h-0.84zm5.88 0h0.84v0.84h-0.84zm2.52 0h0.84v0.84h-0.84zm1.68 0h0.84v0.84h-0.84zm0.84 0h0.84v0.84h-0.84zm1.68 0h0.84v0.84h-0.84zm0.84 0h0.84v0.84h-0.84zm3.36 0h0.84v0.84h-0.84zm-20.16 0.84h0.84v0.84h-0.84zm2.52 0h0.84v0.84h-0.84zm1.68 0h0.84v0.84h-0.84zm0.84 0h0.84v0.84h-0.84zm0.84 0h0.84v0.84h-0.84zm2.52 0h0.84v0.84h-0.84zm0.84 0h0.84v0.84h-0.84zm1.68 0h0.84v0.84h-0.84zm0.84 0h0.84v0.84h-0.84zm1.68 0h0.84v0.84h-0.84zm0.84 0h0.84v0.84h-0.84zm0.84 0h0.84v0.84h-0.84zm0.84 0h0.84v0.84h-0.84zm0.84 0h0.84v0.84h-0.84zm1.68 0h0.84v0.84h-0.84zm-11.76 0.84h0.84v0.84h-0.84zm0.84 0h0.84v0.84h-0.84zm0.84 0h0.84v0.84h-0.84zm1.68 0h0.84v0.84h-0.84zm0.84 0h0.84v0.84h-0.84zm1.68 0h0.84v0.84h-0.84zm0.84 0h0.84v0.84h-0.84zm3.36 0h0.84v0.84h-0.84zm0.84 0h0.84v0.84h-0.84zm-17.64 0.84h0.84v0.84h-0.84zm0.84 0h0.84v0.84h-0.84zm0.84 0h0.84v0.84h-0.84zm0.84 0h0.84v0.84h-0.84zm0.84 0h0.84v0.84h-0.84zm0.84 0h0.84v0.84h-0.84zm0.84 0h0.84v0.84h-0.84zm1.68 0h0.84v0.84h-0.84zm1.68 0h0.84v0.84h-0.84zm3.36 0h0.84v0.84h-0.84zm1.68 0h0.84v0.84h-0.84zm1.68 0h0.84v0.84h-0.84zm1.68 0h0.84v0.84h-0.84zm1.68 0h0.84v0.84h-0.84zm0.84 0h0.84v0.84h-0.84zm0.84 0h0.84v0.84h-0.84zm-20.16 0.84h0.84v0.84h-0.84zm5.04 0h0.84v0.84h-0.84zm5.04 0h0.84v0.84h-0.84zm1.68 0h0.84v0.84h-0.84zm1.68 0h0.84v0.84h-0.84zm3.36 0h0.84v0.84h-0.84zm0.84 0h0.84v0.84h-0.84zm1.68 0h0.84v0.84h-0.84zm-19.32 0.84h0.84v0.84h-0.84zm1.68 0h0.84v0.84h-0.84zm0.84 0h0.84v0.84h-0.84zm0.84 0h0.84v0.84h-0.84zm1.68 0h0.84v0.84h-0.84zm1.68 0h0.84v0.84h-0.84zm3.36 0h0.84v0.84h-0.84zm0.84 0h0.84v0.84h-0.84zm1.68 0h0.84v0.84h-0.84zm0.84 0h0.84v0.84h-0.84zm0.84 0h0.84v0.84h-0.84zm0.84 0h0.84v0.84h-0.84zm0.84 0h0.84v0.84h-0.84zm0.84 0h0.84v0.84h-0.84zm1.68 0h0.84v0.84h-0.84zm0.84 0h0.84v0.84h-0.84zm0.84 0h0.84v0.84h-0.84zm-20.16 0.84h0.84v0.84h-0.84zm1.68 0h0.84v0.84h-0.84zm0.84 0h0.84v0.84h-0.84zm0.84 0h0.84v0.84h-0.84zm1.68 0h0.84v0.84h-0.84zm1.68 0h0.84v0.84h-0.84zm1.68 0h0.84v0.84h-0.84zm2.52 0h0.84v0.84h-0.84zm1.68 0h0.84v0.84h-0.84zm0.84 0h0.84v0.84h-0.84zm1.68 0h0.84v0.84h-0.84zm1.68 0h0.84v0.84h-0.84zm0.84 0h0.84v0.84h-0.84zm0.84 0h0.84v0.84h-0.84zm0.84 0h0.84v0.84h-0.84zm0.84 0h0.84v0.84h-0.84zm-20.16 0.84h0.84v0.84h-0.84zm1.68 0h0.84v0.84h-0.84zm0.84 0h0.84v0.84h-0.84zm0.84 0h0.84v0.84h-0.84zm1.68 0h0.84v0.84h-0.84zm1.68 0h0.84v0.84h-0.84zm2.52 0h0.84v0.84h-0.84zm0.84 0h0.84v0.84h-0.84zm0.84 0h0.84v0.84h-0.84zm0.84 0h0.84v0.84h-0.84zm0.84 0h0.84v0.84h-0.84zm5.04 0h0.84v0.84h-0.84zm0.84 0h0.84v0.84h-0.84zm1.68 0h0.84v0.84h-0.84zm-20.16 0.84h0.84v0.84h-0.84zm5.04 0h0.84v0.84h-0.84zm1.68 0h0.84v0.84h-0.84zm2.52 0h0.84v0.84h-0.84zm2.52 0h0.84v0.84h-0.84zm1.68 0h0.84v0.84h-0.84zm0.84 0h0.84v0.84h-0.84zm1.68 0h0.84v0.84h-0.84zm0.84 0h0.84v0.84h-0.84zm0.84 0h0.84v0.84h-0.84zm2.52 0h0.84v0.84h-0.84zm-20.16 0.84h0.84v0.84h-0.84zm0.84 0h0.84v0.84h-0.84zm0.84 0h0.84v0.84h-0.84zm0.84 0h0.84v0.84h-0.84zm0.84 0h0.84v0.84h-0.84zm0.84 0h0.84v0.84h-0.84zm0.84 0h0.84v0.84h-0.84zm1.68 0h0.84v0.84h-0.84zm2.52 0h0.84v0.84h-0.84zm0.84 0h0.84v0.84h-0.84zm5.88 0h0.84v0.84h-0.84zm0.84 0h0.84v0.84h-0.84zm0.84 0h0.84v0.84h-0.84zm0.84 0h0.84v0.84h-0.84zm0.84 0h0.84v0.84h-0.84zm0.84 0h0.84v0.84h-0.84z" />
</svg>