<svg
   width="16"
   height="16"
   viewBox="0 0 16 16"
   id="ReferenceRun"
   xmlns="http://www.w3.org/2000/svg">
  <path
     class="iconStroke"
     d="M 12 1 A 3 3 0 0 0 9 4 A 3 3 0 0 0 9.3769531 5.4394531 L 9.3671875 5.4394531 L 12 9.890625 L 12 9.7910156 L 12.878906 8.2929688 L 14.490234 5.6660156 A 3 3 0 0 0 14.572266 5.53125 L 14.650391 5.4042969 L 14.642578 5.4042969 A 3 3 0 0 0 15 4 A 3 3 0 0 0 12 1 z M 12 1.8574219 A 2 2 0 0 1 14 3.8574219 A 2 2 0 0 1 12 5.8574219 A 2 2 0 0 1 10 3.8574219 A 2 2 0 0 1 12 1.8574219 z M 4 3 L 4 5 L 0 5 L 0 6 L 4 6 L 4 8 L 8 5.5 L 4 3 z M 0 10.5 L 0 11.5 L 0.5 11.5 L 0.5 15 L 1.5 15 L 1.5 11.5 L 3 11.5 L 3 14 L 4 14 L 4 11.5 L 5.5 11.5 L 5.5 15 L 6.5 15 L 6.5 11.5 L 8 11.5 L 8 14 L 9 14 L 9 11.5 L 10.5 11.5 L 10.5 15 L 11.5 15 L 11.5 11.5 L 12.732422 11.5 L 13 11.662109 L 13 14 L 14 14 L 14 12.269531 L 16 13.488281 L 16 12.351562 L 13.013672 10.5 L 9 10.5 L 8 10.5 L 4 10.5 L 3 10.5 L 0 10.5 z " />
</svg>
