<svg xmlns="http://www.w3.org/2000/svg" viewBox="0 0 16 16" width="16" height="16">
  <path class="iconStroke" fill-rule="evenodd" d="M15.643.102L16 .994a9.257 9.257 0 0 1-.933.993c-.406.372-.805.66-1.185.834-.256.117-.499.179-.727.179-.531 0-.917-.264-1.58-.934l-.088-.09c-.652-.66-.967-.88-1.414-.88-1.04 0-2.084.756-2.639 1.744L7 2.064C7.671.869 8.871 0 10.073 0c.585 0 .978.274 1.717 1.023l.088.09c.576.582.882.79 1.277.79.173 0 .366-.049.575-.144.33-.151.688-.41 1.057-.747a8.607 8.607 0 0 0 .856-.91zm0 4l.357.892a9.257 9.257 0 0 1-.933.993c-.406.372-.805.66-1.185.834-.256.117-.499.179-.727.179-.531 0-.917-.264-1.58-.934l-.088-.09c-.652-.66-.967-.88-1.414-.88-1.04 0-2.084.756-2.639 1.744L7 6.064C7.671 4.869 8.871 4 10.073 4c.585 0 .978.274 1.717 1.023l.088.09c.576.582.882.79 1.277.79.173 0 .366-.049.575-.144.33-.151.688-.41 1.057-.747a8.607 8.607 0 0 0 .856-.91zm0 4l.357.892a9.257 9.257 0 0 1-.933.993c-.406.372-.805.66-1.185.834-.256.117-.499.179-.727.179-.531 0-.917-.264-1.58-.934l-.088-.09c-.652-.66-.967-.88-1.414-.88-1.04 0-2.084.756-2.639 1.744L7 10.064C7.671 8.869 8.871 8 10.073 8c.585 0 .978.274 1.717 1.023l.088.09c.576.582.882.79 1.277.79.173 0 .366-.049.575-.144.33-.151.688-.41 1.057-.747a8.607 8.607 0 0 0 .856-.91zm0 4l.357.892a9.257 9.257 0 0 1-.933.993c-.406.372-.805.66-1.185.834-.256.117-.499.179-.727.179-.531 0-.917-.264-1.58-.934l-.088-.09c-.652-.66-.967-.88-1.414-.88-1.04 0-2.084.756-2.639 1.744L7 14.064C7.671 12.869 8.871 12 10.073 12c.585 0 .978.274 1.717 1.023l.088.09c.576.582.882.79 1.277.79.173 0 .366-.049.575-.144.33-.151.688-.41 1.057-.747a8.607 8.607 0 0 0 .856-.91zM0 0h6v16H0V0zm1 15h4V1H1v14z"/>
</svg>
