<svg xmlns="http://www.w3.org/2000/svg" viewBox="0 0 16 16" width="16" height="16">
  <path class="iconStroke" fill-rule="evenodd" d="M1 5.362V6H0V0h16v6h-1v-.626c-.474-.417-.646-.517-.802-.517-.202 0-.43.17-1.302.972C11.831 6.811 11.575 7 11.098 7c-.477 0-.733-.189-1.798-1.17-.872-.804-1.1-.973-1.302-.973-.202 0-.43.169-1.302.972C5.002 7.39 4.794 7.39 3.1 5.83 1.89 4.714 1.876 4.56 1 5.362zm0-1.043c.878-.62 1.307-.336 2.596.852 1.406 1.296 1.198 1.296 2.604 0C7.265 4.189 7.52 4 7.998 4c.477 0 .733.189 1.798 1.17.872.804 1.1.973 1.302.973.201 0 .43-.169 1.302-.972C13.464 4.19 13.72 4 14.196 4c.275 0 .477.062.804.303V3H1v1.32zM1 11v2h14v-2h1v5H0v-5h1zM1 1v1h14V1H1zm0 14h14v-1H1v1zm-1-4.83c1.694-1.56 1.902-1.56 3.596 0 1.406 1.297 1.198 1.297 2.604 0C7.265 9.19 7.52 9 7.998 9c.477 0 .733.189 1.798 1.17.872.804 1.1.973 1.302.973.201 0 .43-.169 1.302-.972C13.464 9.19 13.72 9 14.196 9c.478-.001.734.187 1.804 1.17l-.495.66c-.876-.805-1.105-.973-1.307-.973-.202 0-.43.17-1.302.972-1.065.982-1.321 1.171-1.798 1.171-.477 0-.733-.189-1.798-1.17-.872-.804-1.1-.973-1.302-.973-.202 0-.43.169-1.302.972-1.694 1.561-1.902 1.561-3.596 0-1.406-1.296-1.198-1.296-2.604 0L0 10.171z"/>
</svg>
