<svg
   width="16"
   height="16"
   viewBox="0 0 16 16"
   id="SingleCycleCarton"
   xmlns="http://www.w3.org/2000/svg">
  <path
     class="iconStroke"
     d="M 11.03,0 10.14,0.45 11.02,2 v 8 c 0,0 3.89,-0 2.51,0 h 2.49 V 9 h -4 V 1.76 Z M 2,1 0,3 0.64,3.76 2,2.47 2.03,7 h 1 L 3,1 Z M 13.02,1 v 3 h 3 V 1 Z m -7.03,0.5 v 2 l -2,-0.03 v 1 l 2,0.03 v 2 l 4,-2.5 z M 14.02,2 h 1 v 1 h -1 z m -1,3 v 3 h 3 V 5 Z m 1,1 h 1 v 1 h -1 z m -12,2 v 3.05 c -1.14,0.23 -2,1.24 -2,2.45 0,1.38 1.13,2.5 2.49,2.5 h 3.51 4 3.51 c 1.37,0 2.49,-1.12 2.49,-2.5 0.01,-1.38 -1.11,-2.5 -2.49,-2.5 H 10.02 V 8 h -1 v 3 h -3 -3 V 8 Z m 0.49,4 h 3.51 4 3.51 c 0.83,0 1.49,0.67 1.49,1.5 0,0.82 -0.68,1.5 -1.49,1.5 h -3.51 -4 -3.51 c -0.82,0 -1.49,-0.68 -1.49,-1.5 0,-0.83 0.67,-1.5 1.49,-1.5 z m 0.01,1 c -0.25,0 -0.5,0.17 -0.5,0.5 0,0.67 1,0.67 1,0 0,-0.33 -0.25,-0.5 -0.5,-0.5 z m 11,0 c -0.25,0 -0.5,0.17 -0.5,0.5 0,0.67 1,0.67 1,0 0,-0.33 -0.25,-0.5 -0.5,-0.5 z" />
</svg>
