<svg width="16" height="12" viewBox="0 0 16 12">
  <path d="M5 4H1.994A.997.997 0 0 0 1 4.997v5.006c0 .55.446.997.994.997h12.012a.997.997 0 0 0 .994-.997V4.997A.997.997 0 0 0 14.006 4H11V2c0-.557-.444-1-.998-1H5.998A.994.994 0 0 0 5 2v2zM4 3V2c0-1.105.887-2 1.998-2h4.004C11.105 0 12 .888 12 2v1h2.006C15.107 3 16 3.896 16 4.997v5.006A1.997 1.997 0 0 1 14.006 12H1.994A1.997 1.997 0 0 1 0 10.003V4.997C0 3.894.895 3 1.994 3H4zm4 7.5a3.5 3.5 0 1 0 0-7 3.5 3.5 0 0 0 0 7zm0-1a2.5 2.5 0 1 1 0-5 2.5 2.5 0 0 1 0 5z" class="iconStroke"/>
</svg>
