<svg xmlns="http://www.w3.org/2000/svg" viewBox="0 0 16 16" width="16" height="16">
  <path class="iconStroke" d="M14.846 9.464A7.006 7.006 0 0 0 8 1a7.006 7.006 0 0 0-6.842 8.484c1.429-.047 2.18-.752 3.227-2.575l.221-.386C5.716 4.587 6.498 3.83 8.042 3.83c1.524 0 2.326.746 3.467 2.631l.264.438c1.027 1.694 1.788 2.432 3.073 2.565zm-.284.975c-1.558-.212-2.507-1.146-3.644-3.021l-.265-.439C9.681 5.372 9.098 4.83 8.043 4.83c-1.064 0-1.626.544-2.57 2.19l-.22.387c-1.15 2-2.101 2.93-3.804 3.063A7.01 7.01 0 0 0 8 15a7.01 7.01 0 0 0 6.562-4.56zM0 8c0-4.418 3.59-8 8-8 4.418 0 8 3.59 8 8 0 4.418-3.59 8-8 8-4.418 0-8-3.59-8-8z"/>
</svg>
