<svg xmlns="http://www.w3.org/2000/svg" viewBox="0 0 16 16" width="16" height="16">
  <path class="iconStroke" fill-rule="evenodd" d="M16 2H4v1h12v1h-5v4h-1V4H7v4H6V4H3V1h13v1zm-4 8V6h1v4c.344 0 .674.058.982.164L15.232 8l.767.443.006.216-1.146 1.986A3 3 0 0 1 13 16H5a3.001 3.001 0 0 1-2.83-2H0v-1h2c0-.648.205-1.248.555-1.738L.5 9.207l.707-.707 2.055 2.055c.225-.16.473-.29.738-.384V6h1v4h3V6h1v4H8h4zm-7 1a2 2 0 1 0 0 4h8a2 2 0 1 0 0-4H5zm8 3a1 1 0 1 1 0-2 1 1 0 0 1 0 2zm-8 0a1 1 0 1 1 0-2 1 1 0 0 1 0 2z"/>
</svg>
