<svg width="16" height="16" viewBox="0 0 16 16" xmlns="http://www.w3.org/2000/svg">
  <g class="iconStroke" fill-rule="evenodd">
    <path d="M0 12h6v1H0zm9 0h6v1H9z"/>
    <path d="M7.006 4.856v-.152C5.796 3.4 5 2.02 5 .792V0h1v.792c0 .84.587 1.92 1.506 2.974.92-1.054 1.506-2.134 1.506-2.974V0h1v.792c0 1.228-.795 2.61-2.004 3.912 0 .043 0 .094-.002.152l.002.37c.002.48.004 1.2.004 2.16 0 1.917 0 4.788-.005 8.615h-1C7 12.178 6.997 9.307 7 7.39c0-.96.002-1.68.004-2.16 0-.145 0-.268.002-.37z" fill-rule="nonzero"/>
    <path d="M0 6h6v5H0zm9 0h6v5H9z"/>
  </g>
</svg>
