<svg xmlns="http://www.w3.org/2000/svg" viewBox="0 0 16 16" width="16" height="16">
  <path class="iconStroke" fill-rule="evenodd" d="M5 11.5a3.5 3.5 0 1 0 7 0 3.5 3.5 0 0 0-7 0zm6 0c0 1.379-1.121 2.5-2.5 2.5A2.503 2.503 0 0 1 6 11.5C6 10.121 7.122 9 8.5 9c1.379 0 2.5 1.121 2.5 2.5zM4.486 7.384l-.64-.769A6.975 6.975 0 0 1 8.32 5c1.658 0 3.228.579 4.475 1.617l-.64.769A5.97 5.97 0 0 0 8.32 6c-1.42 0-2.763.495-3.833 1.384zM2.639 6.035L2 5.266A9.788 9.788 0 0 1 8.28 3c2.327 0 4.531.812 6.282 2.27l-.64.768A8.787 8.787 0 0 0 8.28 4c-2.09 0-4.068.728-5.64 2.036zm-2-1.262L0 4.003A12.967 12.967 0 0 1 8.318 1C11.4 1 13.679 1.665 16 3.596v1.18A11.966 11.966 0 0 0 8.318 2C5.473 2 2.782 2.991.639 4.773z"/>
</svg>
