<svg xmlns="http://www.w3.org/2000/svg" viewBox="0 0 16 16" width="16" height="16">
  <path class="iconStroke" d="M3.993 13.74A7 7 0 1 0 1 8c0 .999.146 1.822.476 2.6l1.747-1.747a4.5 4.5 0 0 1 4.804-5.825l.76.087-1.668 2.88 1.958 1.881 2.846-1.565.072.757a4.5 4.5 0 0 1-5.999 4.668l-2.003 2.005zm-1.385-.013l-.008-.008.224-.224c.076-.08.157-.161.227-.227l2.716-2.716.315.142a3.5 3.5 0 0 0 4.903-2.725l-2.07 1.137-3.054-2.932 1.244-2.15a3.5 3.5 0 0 0-2.84 4.774l.122.306-3.18 3.18-.143-.336-.012.007C.32 10.752 0 9.537 0 8a8 8 0 1 1 8 8c-2.138 0-3.968-.727-5.456-2.203l.064-.07z"/>
</svg>
