<svg xmlns="http://www.w3.org/2000/svg" viewBox="0 0 16 16" width="16" height="16">
  <path class="iconStroke" d="M7.5 16c.725 0 1.438-.103 2.12-.304l-.282-.96A6.502 6.502 0 0 1 7.5 15v1zm4.108-1.224a7.538 7.538 0 0 0 1.606-1.417l-.762-.649a6.538 6.538 0 0 1-1.393 1.23l.549.836zm2.766-3.272c.287-.656.479-1.35.568-2.068l-.992-.123a6.452 6.452 0 0 1-.492 1.79l.916.4zm-1.279-7.999c-.478-.535-1.03-1-1.64-1.378l-.528.849a6.535 6.535 0 0 1 1.422 1.196l.746-.667zM9.362 1.233A7.513 7.513 0 0 0 7.5 1l-.158.002.021 1C7.431 2 7.431 2 7.5 2c.55 0 1.091.068 1.614.202l.248-.969zm-4.136.118a7.472 7.472 0 0 0-1.928.936l.56.828a6.472 6.472 0 0 1 1.671-.811l-.303-.953zm-3.532 2.4A7.498 7.498 0 0 0 .587 5.587l.921.39a6.498 6.498 0 0 1 .96-1.59l-.774-.634zM.046 7.664a7.576 7.576 0 0 0 .067 2.14l.985-.173a6.556 6.556 0 0 1-.058-1.857l-.994-.11zm.746 4.196a7.516 7.516 0 0 0 1.225 1.758l.73-.682a6.516 6.516 0 0 1-1.06-1.525l-.895.449zm2.931 3.122l.505-.864a6.456 6.456 0 0 0 1.72.697l-.237.971a7.456 7.456 0 0 1-1.988-.804zm.779-7.188l3.029 3.043 7.076-7.105.709.705-7.785 7.817-3.738-3.755.709-.705z"/>
</svg>
