<svg xmlns="http://www.w3.org/2000/svg" viewBox="0 0 16 16" width="16" height="16">
  <path class="iconStroke" d="M5 8h7v7H5V8zm1 6h5V9H6v5zM4.486 7.384l-.64-.769A6.975 6.975 0 0 1 8.32 5c1.658 0 3.228.579 4.475 1.617l-.64.769A5.97 5.97 0 0 0 8.32 6c-1.42 0-2.763.495-3.833 1.384zM2.639 6.035L2 5.266A9.788 9.788 0 0 1 8.28 3c2.327 0 4.531.812 6.282 2.27l-.64.768A8.787 8.787 0 0 0 8.28 4c-2.09 0-4.068.728-5.64 2.036zm-2-1.262L0 4.003A12.967 12.967 0 0 1 8.318 1c3.082 0 6.001 1.076 8.321 3.007l-.64.768A11.966 11.966 0 0 0 8.319 2C5.473 2 2.782 2.991.639 4.773z"/>
</svg>
