<svg width="16" height="16" viewBox="0 0 16 16" 
  xmlns="http://www.w3.org/2000/svg">
  <g class="iconStroke" fill="none" fill-rule="evenodd">
    <path d="M7.0062 4.8562a44.4423 44.4423 0 0 0-.0013-.1527C5.7955 3.4007 5 2.0198 5 .7916V0h1v.7916c0 .8402.5871 1.92 1.5062 2.974.9192-1.054 1.5063-2.1338 1.5063-2.974V0h1v.7916c0 1.2282-.7955 2.6091-2.0049 3.912-.0005.0434-.001.0943-.0014.1526.0008.1017.0015.2245.002.3687.002.4817.0034 1.2019.004 2.1608a5166.61 5166.61 0 0 1-.0055 8.615L7.5062 16l-.5004.0006a5138.9302 5138.9302 0 0 1-.0055-8.615c.0006-.9588.0019-1.679.0039-2.1607.0006-.1442.0013-.267.002-.3687z"/>
    <path d="M0 6h6v1H0zm9 0h6v1H9zM0 8h6v5H0zm9 0h6v5H9z"/>
  </g>
</svg>
