<svg
   width="16"
   height="16"
   viewBox="0 0 16 16"
   id="SwivelChuteSwivelOnOff"
   xmlns="http://www.w3.org/2000/svg">
  <path
     class="iconStroke"
     d="M 3 0 C 3 0 5.11 9.08 6.51 11.31 C 8.21 13.99 13 15 13 15 L 12.73 13 L 12.47 11 C 12.47 11 9.96 11 8.75 8 C 8.13 6.48 6.56 1 6.56 1 L 3 0 z M 4.5 1 C 4.78 1 5 1.22 5 1.5 C 5 1.78 4.78 2 4.5 2 C 4.22 2 4 1.78 4 1.5 C 4 1.22 4.22 1 4.5 1 z M 5.79 3.23 A 0.5 0.5 0 0 1 6.2 3.61 C 6.2 3.61 6.46 4.73 6.86 6.06 C 7.25 7.4 7.78 8.97 8.22 9.75 C 9.11 11.3 11.04 12 11.04 12 A 0.5 0.5 0 0 1 11.36 12.63 A 0.5 0.5 0 0 1 10.72 12.95 C 10.72 12.95 8.47 12.22 7.36 10.25 C 6.8 9.28 6.29 7.71 5.9 6.34 C 5.5 4.98 5.23 3.84 5.23 3.84 A 0.5 0.5 0 0 1 5.6 3.24 A 0.5 0.5 0 0 1 5.79 3.23 z M 12 4.03 L 12 6.03 L 9 6 L 9 7 L 12 7.03 L 12 9.03 L 16 6.53 L 12 4.03 z M 4 11 L 0 13.5 L 4 16 L 4 14 L 7 14.03 L 7 13.03 L 4 13 L 4 11 z" />
</svg>
