<svg xmlns="http://www.w3.org/2000/svg" viewBox="0 0 16 16" width="16" height="16">
  <path class="iconStroke" fill-rule="evenodd" d="M2.195 0H16v2.955l-2.627.053c-.238 1.428-.452 3.21-.452 4.992 0 4 1.079 8 1.079 8H2s1.144-4 1.144-8c0-1.777-.225-3.553-.476-4.98H0V0h2.195zm1.332 2h8.946a32.2 32.2 0 0 1 .256-1H3.27c.087.318.173.652.256 1zm8.73 1H3.742c.316 1.7.383 3.392.383 5 0 1.842-.088 3.794-.537 5.743-.102.44-.208.861-.317 1.257h9.458a32.433 32.433 0 0 1-.317-1.257c-.45-1.949-.553-3.9-.553-5.743 0-1.608.079-3.3.398-5z"/>
</svg>
