<svg
   viewBox="0 0 16 16"
   width="16"
   height="16"
   id="TransportbeltSwivelOnOff"
   xmlns="http://www.w3.org/2000/svg">
  <path
     class="iconStroke"
     d="M 3.5 0 C 2.12 -0.01 1 1.11 1 2.49 L 1 6.46 L 2 6.45 L 2 2.49 C 2 1.67 2.67 1 3.5 1 C 4.32 1 5 1.68 5 2.49 L 5 5.38 L 6 6 L 6 2.49 C 6 1.13 4.88 0 3.5 0 z M 12.49 0 C 11.11 -0.01 9.99 1.11 9.99 2.49 L 9.99 6 L 10.99 5.37 L 10.99 2.49 C 10.99 1.67 11.66 1 12.49 1 C 13.32 1 13.99 1.68 13.99 2.49 L 13.99 6.45 L 14.99 6.46 L 14.99 2.49 C 14.99 1.13 13.87 0 12.49 0 z M 3.5 2 C 2.83 2 2.83 3 3.5 3 C 4.17 3 4.17 2 3.5 2 z M 12.49 2 C 11.83 2 11.83 3 12.49 3 C 13.16 3 13.16 2 12.49 2 z M 7.99 4.87 L 7.99 10.87 L 7.99 4.87 z M 3.5 5.47 L 3.5 7.47 L 0 7.5 L 0 8.5 L 3.5 8.47 L 3.5 10.47 L 7.5 7.97 L 3.5 5.47 z M 12.5 5.47 L 8.5 7.97 L 12.5 10.47 L 12.5 8.47 L 16 8.5 L 16 7.5 L 12.5 7.47 L 12.5 5.47 z M 2 9.58 L 1 9.59 L 1 13.51 C 1 14.87 2.12 16 3.5 16 C 4.88 16.01 6 14.89 6 13.51 L 6 10 L 5 10.62 L 5 13.51 C 5 14.33 4.33 15 3.5 15 C 2.68 15 2 14.32 2 13.51 L 2 9.58 z M 14 9.58 L 14 13.51 C 14 14.33 13.33 15 12.5 15 C 11.68 15 11 14.32 11 13.51 L 11 10.63 L 10 10 L 10 13.51 C 10 14.87 11.12 16 12.5 16 C 13.88 16.01 15 14.89 15 13.51 L 15 9.59 L 14 9.58 z M 3.5 13 C 2.83 13 2.83 14 3.5 14 C 4.17 14 4.17 13 3.5 13 z M 12.5 13 C 11.83 13 11.83 14 12.5 14 C 13.17 14 13.17 13 12.5 13 z" />
</svg>
