<svg xmlns="http://www.w3.org/2000/svg" viewBox="0 0 16 16" width="16" height="16">
  <path class="iconStroke" d="M11 3.494A2.49 2.49 0 0 1 13.5 1C14.88 1 16 2.127 16 3.494v10.012A2.49 2.49 0 0 1 13.5 16c-1.38 0-2.5-1.127-2.5-2.494V3.494zm1 0v10.012c0 .818.675 1.494 1.5 1.494.835 0 1.5-.665 1.5-1.494V3.494C15 2.676 14.325 2 13.5 2c-.835 0-1.5.665-1.5 1.494zm-12 0A2.49 2.49 0 0 1 2.5 1C3.88 1 5 2.127 5 3.494v10.012A2.49 2.49 0 0 1 2.5 16C1.12 16 0 14.873 0 13.506V3.494zm1 0v10.012C1 14.324 1.675 15 2.5 15c.835 0 1.5-.665 1.5-1.494V3.494C4 2.676 3.325 2 2.5 2 1.665 2 1 2.665 1 3.494zM2.5 4a.5.5 0 1 1 0-1 .5.5 0 0 1 0 1zm0 10a.5.5 0 1 1 0-1 .5.5 0 0 1 0 1zm11 0a.5.5 0 1 1 0-1 .5.5 0 0 1 0 1zm0-10a.5.5 0 1 1 0-1 .5.5 0 0 1 0 1zM6 0h1v16H6V0zm3 0h1v16H9V0z"/>
</svg>
