<svg xmlns="http://www.w3.org/2000/svg" viewBox="0 0 16 16" width="16" height="16">
  <path class="iconStroke" d="M2 3.494A2.49 2.49 0 0 1 4.5 1c.556 0 1.07.183 1.485.49 0 0 .015 1.188.015 2.004v10.012c0 .821-.007 2.004-.007 2.004A2.504 2.504 0 0 1 2 13.506V3.494zm1 0v10.012C3 14.324 3.675 15 4.5 15c.835 0 1.5-.665 1.5-1.494V3.494C6 2.676 5.325 2 4.5 2 3.665 2 3 2.665 3 3.494zM4.5 4a.5.5 0 1 1 0-1 .5.5 0 0 1 0 1zm0 10a.5.5 0 1 1 0-1 .5.5 0 0 1 0 1zM6 0v16h1V0H6zm3 0v16h1V0H9zm2.5 14a.5.5 0 1 0 0-1 .5.5 0 0 0 0 1zm0-10a.5.5 0 1 0 0-1 .5.5 0 0 0 0 1zM10 3.494v10.012c0 .818.675 1.494 1.5 1.494.835 0 1.5-.665 1.5-1.494V3.494C13 2.676 12.325 2 11.5 2c-.835 0-1.5.665-1.5 1.494zm0 0l.002-2a2.504 2.504 0 0 1 3.998 2v10.012A2.49 2.49 0 0 1 11.5 16a2.486 2.486 0 0 1-1.48-.487S10 14.324 10 13.506V3.494z"/>
</svg>
