<svg xmlns="http://www.w3.org/2000/svg" viewBox="0 0 16 16" width="16" height="16">
  <path class="iconStroke" d="M5.88 10.134l-.707.707A3.99 3.99 0 0 1 4 8.01c0-1.075.427-2.083 1.171-2.83l.708.707A2.992 2.992 0 0 0 5 8.01c0 .808.32 1.563.88 2.124zm-1.266 1.768l-.706.708A6.478 6.478 0 0 1 2 8.01c0-1.747.693-3.385 1.905-4.596l.706.708A5.477 5.477 0 0 0 3 8.01c0 1.481.587 2.867 1.614 3.892zm-1.416 1.413l-.707.707A8.475 8.475 0 0 1 0 8.01C0 5.726.905 3.583 2.49 2l.707.707A7.473 7.473 0 0 0 1 8.01c0 2.017.8 3.906 2.198 5.305zm7.629-2.474l-.708-.707C10.68 9.573 11 8.818 11 8.01c0-.806-.32-1.561-.879-2.122l.708-.706A3.992 3.992 0 0 1 12 8.01a3.99 3.99 0 0 1-1.173 2.83zm1.265 1.77l-.706-.709A5.479 5.479 0 0 0 13 8.01a5.477 5.477 0 0 0-1.611-3.888l.706-.708A6.477 6.477 0 0 1 14 8.01c0 1.75-.694 3.389-1.908 4.6zm1.417 1.41l-.707-.706A7.475 7.475 0 0 0 15 8.01a7.473 7.473 0 0 0-2.197-5.303L13.51 2A8.473 8.473 0 0 1 16 8.01a8.475 8.475 0 0 1-2.49 6.012zM6 8.012c0-1.104.897-2 2-2s2 .896 2 2c0 1.102-.897 2-2 2s-2-.898-2-2z"/>
</svg>
