<svg xmlns="http://www.w3.org/2000/svg" viewBox="0 0 16 16" width="16" height="16">
  <path class="iconStroke" fill-rule="evenodd" d="M12.612 3c.05-.247.106-.495.168-.743.11-.44.225-.861.343-1.257H2.877c.118.396.233.817.343 1.257.062.248.118.496.167.743h9.225zm-.175 1H3.559c.196 1.361.243 2.708.243 4 0 1.842-.095 3.794-.582 5.743-.11.44-.225.861-.343 1.257h10.246a30.404 30.404 0 0 1-.343-1.257c-.487-1.949-.6-3.9-.6-5.743 0-1.292.056-2.639.257-4zM1.5 0h13s-1.169 4-1.169 8 1.169 8 1.169 8h-13s1.24-4 1.24-8S1.5 0 1.5 0z"/>
</svg>
