<?xml version="1.0" encoding="utf-8"?>
<!-- Generator: Adobe Illustrator 26.5.0, SVG Export Plug-In . SVG Version: 6.00 Build 0)  -->
<svg version="1.2" baseProfile="tiny" xmlns="http://www.w3.org/2000/svg" xmlns:xlink="http://www.w3.org/1999/xlink" x="0px"
	 y="0px" viewBox="0 0 22.669 55.997" overflow="visible" xml:space="preserve">
<g id="grid" display="none">
</g>
<g id="stk">
	<g>
		<polygon fill="#9B9B9B" points="17.744,9.958 17.744,5.007 4.946,5.007 4.918,9.958 		"/>
		<rect x="1" y="1" fill="none" stroke="#9B9B9B" stroke-width="2" stroke-miterlimit="10" width="20.669" height="53.997"/>
		<text transform="matrix(1 0 0 1 4.5833 33.868)" fill="#9B9B9B" font-family="'SegoeUI-Bold'" font-size="9px">A</text>
		<text transform="matrix(1 0 0 1 11.6751 33.868)" fill="#9B9B9B" font-family="'SegoeUI-Bold'" font-size="9px">C</text>
		<g>
			<path fill="none" stroke="#9B9B9B" stroke-width="2" stroke-miterlimit="10" d="M11.147,22.334
				c-0.623,0.364-1.347,0.572-2.12,0.572c-2.323,0-4.207-1.884-4.207-4.207s1.884-4.207,4.207-4.207c0.772,0,1.495,0.208,2.117,0.57
				"/>
			<line fill="none" stroke="#9B9B9B" stroke-width="2" stroke-miterlimit="10" x1="8.813" y1="18.791" x2="17.753" y2="18.791"/>
			
				<polyline fill="none" stroke="#9B9B9B" stroke-width="2" stroke-linecap="round" stroke-linejoin="round" stroke-miterlimit="10" points="
				14.687,21.507 17.45,18.744 14.914,16.208 			"/>
		</g>
	</g>
	<path fill="#9B9B9B" d="M15.609,36.967c1.105,0,2,0.895,2,2v0.822v2.94V49.1c0,1.105-0.895,2-2,2H7.055
		c-1.106,0-2.003-0.898-2-2.005l0.016-6.367h-0.02l0.018-3.771c0.005-1.101,0.899-1.99,2-1.99H15.609 M15.609,34.967h-8.54
		c-2.195,0-3.989,1.786-4,3.981l-0.018,3.771l-0.01,2.01h0.025l-0.011,4.362c-0.003,1.07,0.412,2.077,1.168,2.835
		C4.979,52.683,5.985,53.1,7.055,53.1h8.553c2.206,0,4-1.794,4-4v-6.372v-2.94v-0.822C19.609,36.761,17.814,34.967,15.609,34.967
		L15.609,34.967z"/>
</g>
</svg>
