<?xml version="1.0" encoding="utf-8"?>
<!-- Generator: Adobe Illustrator 26.5.0, SVG Export Plug-In . SVG Version: 6.00 Build 0)  -->
<svg version="1.2" baseProfile="tiny" xmlns="http://www.w3.org/2000/svg" xmlns:xlink="http://www.w3.org/1999/xlink" x="0px"
	 y="0px" viewBox="0 0 8.068 14.208" overflow="visible" xml:space="preserve">
<g id="grid" display="none">
</g>
<g id="stk">
	<g>
		<g id="eZm2kw_00000029044768010683420790000017781436329967718021_">
			<g>
				<path fill="#7E7E7E" d="M8.068,14.208c0-1.063,0-2.126-0.003-3.189c-0.002-0.871-0.556-1.402-1.438-1.41
					C6.13,9.605,5.633,9.603,5.135,9.599C4.863,9.748,4.558,9.783,4.261,9.845c0,1.334,0.001,2.667,0,4.001
					c0,0.104-0.002,0.209-0.012,0.313c-0.002,0.018-0.006,0.034-0.011,0.048H8.068z"/>
				<path fill="#7E7E7E" d="M0,14.208c0-1.063,0-2.126,0.003-3.189c0.002-0.871,0.556-1.402,1.438-1.41
					c0.497-0.004,0.995-0.007,1.492-0.01C3.206,9.748,3.51,9.783,3.807,9.845c0,1.334-0.001,2.667,0,4.001
					c0,0.104,0.002,0.209,0.012,0.313c0.002,0.018,0.006,0.034,0.011,0.048H0z"/>
				<path fill="#7E7E7E" d="M4.384,14.208c-0.005-0.015-0.008-0.03-0.009-0.047c-0.006-0.091-0.008-0.183-0.008-0.274
					c0-1.347,0.001-2.694,0.001-4.04c-0.302-0.05-0.605-0.096-0.877-0.25C2.808,9.651,2.118,9.525,1.44,9.684
					c-0.002,1.508-0.003,3.016-0.005,4.524H4.384z"/>
				<path fill="#7E7E7E" d="M3.972,9.846c-0.302-0.05-0.605-0.096-0.877-0.25c0.083-0.438-1.927-2.29-1.925-2.587
					c0.01-1.363-0.009-2.727,0.012-4.09C1.209,1.264,2.53-0.017,4.156,0c1.603,0.017,2.886,1.318,2.898,2.959
					c0.01,1.35-0.002,2.701,0.005,4.051C7.06,7.252,5.165,9.199,5.135,9.599C4.863,9.748,4.558,9.783,4.261,9.845
					C4.165,9.846,4.069,9.846,3.972,9.846z M4.117,8.892c1.088,0.003,2.084-0.816,2.277-1.854c0.051-0.275,0.004-0.431-0.296-0.505
					C4.764,6.204,3.435,6.202,2.103,6.547C1.84,6.615,1.796,6.751,1.835,6.998C2.001,8.05,3.003,8.889,4.117,8.892z"/>
				<path fill="#7E7E7E" d="M0.578,14.208c0.001-1.281,0.001-2.562,0.002-3.843c0-0.09,0.011-0.186-0.07-0.255
					c-0.313,0.265-0.342,0.628-0.343,0.999c-0.001,1.033,0,2.066,0,3.099H0.578z"/>
				<path fill="#FFFFFF" d="M3.989,14.208h0.25c0.005-0.015,0.009-0.031,0.011-0.048c0.01-0.104,0.012-0.209,0.012-0.313
					c0.001-1.334,0-2.667,0-4.001c-0.096,0-0.193,0.001-0.289,0.001c0,1.347-0.001,2.694-0.001,4.04
					c0,0.091,0.002,0.183,0.008,0.274C3.981,14.178,3.984,14.193,3.989,14.208z"/>
			</g>
		</g>
	</g>
</g>
</svg>
