<?xml version="1.0" encoding="utf-8"?>
<!-- Generator: Adobe Illustrator 26.5.0, SVG Export Plug-In . SVG Version: 6.00 Build 0)  -->
<svg version="1.2" baseProfile="tiny" xmlns="http://www.w3.org/2000/svg" xmlns:xlink="http://www.w3.org/1999/xlink" x="0px"
	 y="0px" viewBox="0 0 22.669 55.997" overflow="visible" xml:space="preserve">
<g id="grid" display="none">
</g>
<g id="stk">
	<g>
		<polygon fill="#9B9B9B" points="17.744,9.958 17.744,5.007 4.946,5.007 4.918,9.958 		"/>
		<rect x="1" y="1" fill="none" stroke="#9B9B9B" stroke-width="2" stroke-miterlimit="10" width="20.669" height="53.997"/>
		<text transform="matrix(1 0 0 1 5.5833 33.868)" fill="#9B9B9B" font-family="'SegoeUI-Bold'" font-size="9px">A</text>
		<text transform="matrix(1 0 0 1 12.8118 33.868)" fill="#9B9B9B" font-family="'SegoeUI-Bold'" font-size="9px">I</text>
		<g>
			<path fill="none" stroke="#9B9B9B" stroke-width="2" stroke-miterlimit="10" d="M12.41,14.854c0.518-0.235,1.09-0.386,1.62-0.386
				c2.323,0,4.207,1.884,4.207,4.207s-1.884,4.207-4.207,4.207c-0.533,0-1.043-0.099-1.512-0.28"/>
			<line fill="none" stroke="#9B9B9B" stroke-width="2" stroke-miterlimit="10" x1="3.469" y1="18.767" x2="12.409" y2="18.767"/>
			
				<polyline fill="none" stroke="#9B9B9B" stroke-width="2" stroke-linecap="round" stroke-linejoin="round" stroke-miterlimit="10" points="
				9.343,21.483 12.106,18.72 9.57,16.185 			"/>
		</g>
	</g>
	<path fill="#9B9B9B" d="M15.588,36.967c1.105,0,2,0.895,2,2v0.822v2.94V49.1c0,1.105-0.895,2-2,2H7.035
		c-1.106,0-2.003-0.898-2-2.005l0.016-6.367H5.03l0.018-3.771c0.005-1.101,0.899-1.99,2-1.99H15.588 M15.588,34.967h-8.54
		c-2.195,0-3.989,1.786-4,3.981L3.03,42.719l-0.01,2.01h0.025l-0.011,4.362c-0.003,1.07,0.412,2.077,1.168,2.835
		C4.959,52.683,5.964,53.1,7.035,53.1h8.553c2.206,0,4-1.794,4-4v-6.372v-2.94v-0.822C19.588,36.761,17.793,34.967,15.588,34.967
		L15.588,34.967z"/>
</g>
</svg>
