<?xml version="1.0" encoding="utf-8"?>
<!-- Generator: Adobe Illustrator 26.5.0, SVG Export Plug-In . SVG Version: 6.00 Build 0)  -->
<svg version="1.2" baseProfile="tiny" xmlns="http://www.w3.org/2000/svg" xmlns:xlink="http://www.w3.org/1999/xlink" x="0px"
	 y="0px" viewBox="0 0 22.427 56" overflow="visible" xml:space="preserve">
<g id="grid" display="none">
	<g display="inline">
		<line fill="none" stroke="#808080" stroke-width="0.0778" stroke-miterlimit="10" x1="33" y1="37.023" x2="1" y2="37.023"/>
		<line fill="none" stroke="#808080" stroke-width="0.0778" stroke-miterlimit="10" x1="33" y1="37.023" x2="1" y2="37.023"/>
		<line fill="none" stroke="#808080" stroke-width="0.0778" stroke-miterlimit="10" x1="33" y1="53.023" x2="1" y2="21.024"/>
		<line fill="none" stroke="#808080" stroke-width="0.0778" stroke-miterlimit="10" x1="1" y1="53.023" x2="33" y2="21.024"/>
		<path fill="#EA008A" d="M31.776,22.248v29.552H2.224V22.248H31.776 M31.857,22.166H2.143v29.714h29.714V22.166L31.857,22.166z"/>
		<line fill="none" stroke="#808080" stroke-width="0.0778" stroke-miterlimit="10" x1="17" y1="21.024" x2="17" y2="53.023"/>
		<line fill="none" stroke="#808080" stroke-width="0.0778" stroke-miterlimit="10" x1="17" y1="21.024" x2="17" y2="53.023"/>
		<line fill="none" stroke="#808080" stroke-width="0.0778" stroke-miterlimit="10" x1="33" y1="53.023" x2="1" y2="21.024"/>
		<path fill="#EA008A" d="M32.922,24.53v24.987H1.078V24.53H32.922 M33,24.452H1v25.143h32V24.452L33,24.452z"/>
		<path fill="#EA008A" d="M29.493,21.102v31.844H4.507V21.102H29.493 M29.571,21.023H4.429v32h25.143V21.023L29.571,21.023z"/>
		<path fill="#EA008A" d="M17,21.101c8.78,0,15.922,7.143,15.922,15.922S25.78,52.946,17,52.946S1.078,45.803,1.078,37.023
			S8.22,21.101,17,21.101 M17,21.023c-8.837,0-16,7.163-16,16c0,8.837,7.163,16,16,16s16-7.163,16-16
			C33,28.187,25.837,21.023,17,21.023L17,21.023z"/>
	</g>
</g>
<g id="stk">
	
		<rect x="0.843" y="0.711" fill="none" stroke="#9B9B9B" stroke-width="1.5" stroke-miterlimit="10" width="20.859" height="54.493"/>
	<g>
		<g>
			<rect x="5.678" y="5.448" fill="#B8B8B8" width="11.136" height="45.371"/>
		</g>
	</g>
	<path fill="#808080" d="M7.987,24.824V10.078c0-1.67,1.354-3.024,3.024-3.024h0.393c1.67,0,3.024,1.354,3.024,3.024v14.746
		c0,1.67-1.354,3.024-3.024,3.024h-0.393C9.341,27.848,7.987,26.494,7.987,24.824z"/>
	<g>
		<circle fill="none" stroke="#9B9B9B" stroke-width="2" stroke-miterlimit="10" cx="11.215" cy="45.147" r="1.22"/>
	</g>
	<g>
		<circle fill="none" stroke="#9B9B9B" stroke-width="2" stroke-miterlimit="10" cx="11.215" cy="38.202" r="1.22"/>
	</g>
	<g>
		<circle fill="none" stroke="#9B9B9B" stroke-width="2" stroke-miterlimit="10" cx="11.215" cy="31.257" r="1.22"/>
	</g>
	<g>
		<circle fill="none" stroke="#9B9B9B" stroke-width="2" stroke-miterlimit="10" cx="11.215" cy="24.312" r="1.22"/>
	</g>
	<g>
		<circle fill="none" stroke="#575756" stroke-width="2" stroke-miterlimit="10" cx="11.215" cy="17.367" r="1.22"/>
	</g>
	<g>
		<circle fill="none" stroke="#575756" stroke-width="2" stroke-miterlimit="10" cx="11.215" cy="10.422" r="1.22"/>
	</g>
</g>
</svg>
