<?xml version="1.0" encoding="utf-8"?>
<!-- Generator: Adobe Illustrator 26.5.0, SVG Export Plug-In . SVG Version: 6.00 Build 0)  -->
<svg version="1.2" baseProfile="tiny" xmlns="http://www.w3.org/2000/svg" xmlns:xlink="http://www.w3.org/1999/xlink" x="0px"
	 y="0px" viewBox="0 0 41.062 56" overflow="visible" xml:space="preserve">
<g id="grid" display="none">
</g>
<g id="stk">
	
		<rect x="-79.057" y="-9.176" fill="none" stroke="#FFFFFF" stroke-width="0.5" stroke-miterlimit="10" width="530.325" height="69.711"/>
	<g>
		<g>
			<g>
				
					<rect x="29.966" y="6.236" fill="#B8B8B8" stroke="#9C9B9B" stroke-width="0" stroke-miterlimit="0" width="6.27" height="16.518"/>
			</g>
			<g>
				<rect x="27.151" y="28.198" fill="#B8B8B8" width="6.27" height="27.03"/>
			</g>
			<g>
				<g>
					
						<rect x="5.094" y="20.127" fill="#B8B8B8" stroke="#9C9B9B" stroke-width="0" stroke-miterlimit="0" width="17.273" height="13.709"/>
				</g>
			</g>
			<rect x="1" y="0.997" fill="none" stroke="#9C9B9B" stroke-width="2" stroke-miterlimit="10" width="39.062" height="54.007"/>
			
				<rect x="26.322" y="27.958" fill="none" stroke="#9C9B9B" stroke-width="2" stroke-miterlimit="10" width="13.591" height="27.046"/>
			<polyline fill="none" stroke="#9C9B9B" stroke-width="2" stroke-miterlimit="10" points="26.317,28.01 26.317,55.003 
				1.077,55.003 1.077,15.355 13.495,15.355 			"/>
			<line fill="none" stroke="#9C9B9B" stroke-width="2" stroke-miterlimit="10" x1="22.367" y1="38.114" x2="5.099" y2="38.114"/>
			<line fill="none" stroke="#9C9B9B" stroke-width="2" stroke-miterlimit="10" x1="22.367" y1="43.607" x2="5.099" y2="43.607"/>
			<line fill="none" stroke="#9C9B9B" stroke-width="2" stroke-miterlimit="10" x1="22.367" y1="49.1" x2="5.099" y2="49.1"/>
		</g>
		<g>
			
				<rect x="5.368" y="6.442" fill="#7E7E7E" stroke="#9C9B9B" stroke-width="0" stroke-miterlimit="0" width="4.882" height="3.538"/>
		</g>
		<g>
			<rect x="12.97" y="6.442" fill="#B8B8B8" width="4.882" height="3.538"/>
		</g>
		<g>
			<rect x="20.573" y="6.442" fill="#B8B8B8" width="4.882" height="3.538"/>
		</g>
		<line fill="none" stroke="#9C9B9B" stroke-width="2" stroke-miterlimit="10" x1="32.978" y1="27.675" x2="32.978" y2="55.937"/>
		<g>
			<circle fill="none" stroke="#7E7E7E" stroke-width="2" stroke-miterlimit="10" cx="13.397" cy="27.16" r="2.722"/>
		</g>
		<g>
			<circle fill="#9B9B9B" cx="36.256" cy="33.34" r="1"/>
		</g>
		<g>
			<circle fill="#9B9B9B" cx="36.256" cy="41.061" r="1"/>
		</g>
		<g>
			<circle fill="#9B9B9B" cx="36.256" cy="49.522" r="1"/>
		</g>
	</g>
</g>
</svg>
