<?xml version="1.0" encoding="utf-8"?>
<!-- Generator: Adobe Illustrator 26.5.0, SVG Export Plug-In . SVG Version: 6.00 Build 0)  -->
<svg version="1.2" baseProfile="tiny" xmlns="http://www.w3.org/2000/svg" xmlns:xlink="http://www.w3.org/1999/xlink" x="0px"
	 y="0px" viewBox="0 0 23.358 56.273" overflow="visible" xml:space="preserve">
<g id="grid" display="none">
</g>
<g id="stk">
	<g>
		<polygon fill="#9B9B9B" points="18.076,34.244 18.102,5.042 5.211,5.031 5.157,34.389 		"/>
		
			<rect x="1.047" y="1.055" fill="none" stroke="#9B9B9B" stroke-width="2" stroke-miterlimit="10" width="21.264" height="54.164"/>
		
			<text transform="matrix(-0.0115 -0.975 0.9999 -0.0112 14.9593 29.3341)" fill="#FFFFFF" font-family="'SegoeUI-Bold'" font-size="9.2589px">C</text>
		
			<text transform="matrix(-0.0115 -0.975 0.9999 -0.0112 14.8824 22.7985)" fill="#FFFFFF" font-family="'SegoeUI-Bold'" font-size="9.2589px">P</text>
		
			<text transform="matrix(-0.0115 -0.975 0.9999 -0.0112 14.8065 16.3507)" fill="#FFFFFF" font-family="'SegoeUI-Bold'" font-size="9.2589px">U</text>
	</g>
	<path fill="#9B9B9B" d="M15.737,37.052c1.105,0,2,0.895,2,2v0.822v2.94v6.372c0,1.105-0.895,2-2,2H7.184
		c-1.107,0-2.003-0.898-2-2.005l0.016-6.367h-0.02l0.018-3.771c0.005-1.101,0.899-1.99,2-1.99H15.737 M15.737,35.052h-8.54
		c-2.195,0-3.989,1.786-4,3.981l-0.018,3.771l-0.01,2.01h0.025l-0.011,4.362c-0.003,1.07,0.412,2.077,1.168,2.835
		c0.756,0.758,1.762,1.175,2.832,1.175h8.553c2.206,0,4-1.794,4-4v-6.372v-2.94v-0.822C19.737,36.846,17.942,35.052,15.737,35.052
		L15.737,35.052z"/>
</g>
</svg>
